<svg width="41" height="41" viewBox="0 0 41 41" fill="none" xmlns="http://www.w3.org/2000/svg">
<g clip-path="url(#clip0_1_1973)">
<path d="M0.830322 8.9963C0.830322 4.21979 4.70245 0.347656 9.47897 0.347656H32.0271C36.8037 0.347656 40.6758 4.21979 40.6758 8.9963V18.1951V31.5444C40.6758 36.3209 36.8037 40.1932 32.0271 40.1932H9.47897C4.70246 40.1932 0.830322 36.3209 0.830322 31.5446V8.9963Z" fill="white"/>
<path d="M0.830322 8.99643C0.830322 4.2199 4.70246 0.347778 9.47897 0.347778H32.0272C36.8037 0.347778 40.6759 4.21992 40.6759 8.99643V12.0524H0.830322V8.99643Z" fill="#CF74A2"/>
<path d="M13.1777 9.60832L15.0898 4.2959H16.3129L18.2249 9.60832H17.1602L16.7475 8.38154H14.655L14.2388 9.60832H13.1777ZM14.8982 7.61893H16.5007L15.915 5.88742C15.8487 5.68603 15.7836 5.45761 15.7197 5.20218H15.6829C15.6166 5.45761 15.5503 5.68603 15.484 5.88742L14.8982 7.61893Z" fill="#CBCBCB"/>
<path d="M19.1531 9.60877V4.30005H21.1647C21.565 4.30005 21.9038 4.36637 22.1813 4.49898C22.4589 4.62916 22.6689 4.81582 22.8115 5.05897C22.9538 5.30212 23.025 5.58456 23.025 5.9063C23.025 6.23049 22.9538 6.51662 22.8115 6.76468C22.6714 7.01274 22.4601 7.20431 22.1778 7.3394C21.8978 7.47447 21.56 7.54203 21.1647 7.54203H20.1183V9.60877H19.1531ZM21.0799 6.74258C21.2887 6.74258 21.4655 6.70942 21.6104 6.64311C21.7577 6.57679 21.8708 6.48224 21.9494 6.35943C22.0303 6.23664 22.0709 6.08559 22.0709 5.9063C22.0709 5.73193 22.0315 5.58456 21.9529 5.4642C21.8745 5.34386 21.7602 5.25299 21.6104 5.19159C21.463 5.1302 21.2862 5.09949 21.0799 5.09949H20.1183V6.74258H21.0799Z" fill="#CBCBCB"/>
<path d="M24.0457 9.60832V4.2959H26.315C26.6711 4.2959 26.9757 4.35607 27.2287 4.47642C27.4816 4.59676 27.6744 4.76869 27.807 4.99219C27.9397 5.2157 28.006 5.47726 28.006 5.7769C28.006 5.98811 27.968 6.17968 27.8918 6.3516C27.8182 6.52353 27.7088 6.6672 27.564 6.78265C27.4189 6.89562 27.2458 6.97545 27.0444 7.02211V7.05157C27.3294 7.11298 27.543 7.24807 27.6855 7.45683C27.8304 7.6656 27.9077 7.95295 27.9176 8.31889C27.9176 8.35083 27.9176 8.38154 27.9176 8.411C27.9201 8.43801 27.9224 8.4675 27.9249 8.49942C27.9348 8.76467 27.9544 8.97712 27.9839 9.13676C28.0134 9.29395 28.0514 9.42412 28.098 9.52727V9.60832H27.1071C27.0653 9.50762 27.0322 9.38605 27.0077 9.24361C26.9831 9.10115 26.9621 8.91695 26.945 8.69099C26.9425 8.64924 26.94 8.60626 26.9375 8.56205C26.9351 8.51784 26.9328 8.47241 26.9303 8.42574C26.9229 8.1875 26.8847 8.00084 26.816 7.86575C26.7497 7.73068 26.6515 7.63611 26.5213 7.58209C26.3911 7.5256 26.2217 7.49735 26.0129 7.49735H25.0402V9.60832H24.0457ZM26.1456 6.69423C26.3224 6.69423 26.4747 6.66475 26.6024 6.60581C26.7324 6.54686 26.8331 6.45723 26.9045 6.33687C26.9782 6.21408 27.0149 6.06547 27.0149 5.8911C27.0149 5.71426 26.9769 5.56691 26.9008 5.44901C26.8271 5.33113 26.7252 5.24516 26.595 5.19113C26.4673 5.1371 26.3175 5.11008 26.1456 5.11008H25.0402V6.69423H26.1456Z" fill="#CBCBCB"/>
<path d="M13.1777 9.29984L15.0898 3.98743H16.3129L18.2249 9.29984H17.1602L16.7475 8.07306H14.655L14.2388 9.29984H13.1777ZM14.8982 7.31045H16.5007L15.915 5.57895C15.8487 5.37756 15.7836 5.14914 15.7197 4.89371H15.6829C15.6166 5.14914 15.5503 5.37756 15.484 5.57895L14.8982 7.31045Z" fill="white"/>
<path d="M19.1531 9.29981V3.99109H21.1647C21.565 3.99109 21.9038 4.05741 22.1813 4.19002C22.4589 4.3202 22.6689 4.50686 22.8115 4.75001C22.9538 4.99316 23.025 5.2756 23.025 5.59734C23.025 5.92153 22.9538 6.20766 22.8115 6.45572C22.6714 6.70378 22.4601 6.89535 22.1778 7.03044C21.8978 7.16551 21.56 7.23307 21.1647 7.23307H20.1183V9.29981H19.1531ZM21.0799 6.43362C21.2887 6.43362 21.4655 6.40046 21.6104 6.33415C21.7577 6.26783 21.8708 6.17328 21.9494 6.05047C22.0303 5.92768 22.0709 5.77663 22.0709 5.59734C22.0709 5.42297 22.0315 5.2756 21.9529 5.15524C21.8745 5.0349 21.7602 4.94403 21.6104 4.88263C21.463 4.82124 21.2862 4.79053 21.0799 4.79053H20.1183V6.43362H21.0799Z" fill="white"/>
<path d="M24.0457 9.29984V3.98743H26.315C26.6711 3.98743 26.9757 4.0476 27.2287 4.16795C27.4816 4.28829 27.6744 4.46021 27.807 4.68372C27.9397 4.90723 28.006 5.16879 28.006 5.46843C28.006 5.67964 27.968 5.87121 27.8918 6.04313C27.8182 6.21506 27.7088 6.35873 27.564 6.47418C27.4189 6.58715 27.2458 6.66698 27.0444 6.71364V6.7431C27.3294 6.80451 27.543 6.9396 27.6855 7.14835C27.8304 7.35713 27.9077 7.64448 27.9176 8.01042C27.9176 8.04236 27.9176 8.07306 27.9176 8.10253C27.9201 8.12954 27.9224 8.15903 27.9249 8.19095C27.9348 8.4562 27.9544 8.66865 27.9839 8.82829C28.0134 8.98548 28.0514 9.11564 28.098 9.21879V9.29984H27.1071C27.0653 9.19915 27.0322 9.07757 27.0077 8.93513C26.9831 8.79268 26.9621 8.60848 26.945 8.38252C26.9425 8.34077 26.94 8.29779 26.9375 8.25357C26.9351 8.20937 26.9328 8.16394 26.9303 8.11726C26.9229 7.87903 26.8847 7.69237 26.816 7.55728C26.7497 7.42221 26.6515 7.32764 26.5213 7.27362C26.3911 7.21713 26.2217 7.18888 26.0129 7.18888H25.0402V9.29984H24.0457ZM26.1456 6.38576C26.3224 6.38576 26.4747 6.35628 26.6024 6.29734C26.7324 6.23839 26.8331 6.14876 26.9045 6.0284C26.9782 5.9056 27.0149 5.757 27.0149 5.58262C27.0149 5.40579 26.9769 5.25844 26.9008 5.14054C26.8271 5.02265 26.7252 4.93669 26.595 4.88265C26.4673 4.82863 26.3175 4.8016 26.1456 4.8016H25.0402V6.38576H26.1456Z" fill="white"/>
<path d="M15.2937 33.752C13.8743 33.752 12.665 33.4189 11.6659 32.7528C10.6667 32.0788 9.90942 31.1074 9.39399 29.8386C8.87856 28.5699 8.62085 27.0394 8.62085 25.2473V24.5812C8.62085 22.7812 8.87856 21.2468 9.39399 19.9781C9.90942 18.7014 10.6627 17.7299 11.654 17.0638C12.6531 16.3898 13.8624 16.0529 15.2818 16.0529C16.7012 16.0529 17.9066 16.3858 18.8978 17.0519C19.889 17.718 20.6383 18.6895 21.1458 19.9662C21.6533 21.2428 21.9071 22.7812 21.9071 24.5812V25.2473C21.9071 27.0394 21.6533 28.5738 21.1458 29.8505C20.6383 31.1193 19.889 32.0867 18.8978 32.7528C17.9145 33.4189 16.7131 33.752 15.2937 33.752ZM15.3056 31.0995C16.0748 31.0995 16.7131 30.8893 17.2206 30.4691C17.7361 30.0408 18.1206 29.4104 18.3744 28.5778C18.636 27.7373 18.767 26.6984 18.767 25.4615V24.3671C18.767 23.1301 18.636 22.0913 18.3744 21.2507C18.1128 20.4102 17.7242 19.7758 17.2087 19.3477C16.7012 18.9194 16.0629 18.7054 15.2937 18.7054C14.5324 18.7054 13.8901 18.9194 13.3668 19.3477C12.8434 19.7679 12.4469 20.3983 12.1773 21.2388C11.9156 22.0794 11.7848 23.1222 11.7848 24.3671V25.4615C11.7848 26.6905 11.9196 27.7254 12.1892 28.5659C12.4588 29.3985 12.8514 30.0289 13.3668 30.4572C13.8901 30.8853 14.5364 31.0995 15.3056 31.0995Z" fill="#80385C"/>
<path d="M28.8058 33.4783V20.1683H28.675C28.1278 20.6758 27.4974 21.0803 26.7837 21.3816C26.07 21.6749 25.281 21.8653 24.4167 21.9524V19.2763C25.1145 19.181 25.7647 18.9947 26.3675 18.7172C26.978 18.4316 27.5211 18.0868 27.997 17.6823C28.4807 17.2699 28.8971 16.818 29.2459 16.3263H31.8984V33.4783H28.8058Z" fill="#80385C"/>
<path d="M15.2937 33.1337C13.8743 33.1337 12.665 32.8006 11.6659 32.1345C10.6667 31.4605 9.90942 30.4891 9.39399 29.2204C8.87856 27.9516 8.62085 26.4211 8.62085 24.629V23.9629C8.62085 22.1629 8.87856 20.6286 9.39399 19.3598C9.90942 18.0831 10.6627 17.1117 11.654 16.4456C12.6531 15.7716 13.8624 15.4346 15.2818 15.4346C16.7012 15.4346 17.9066 15.7676 18.8978 16.4337C19.889 17.0998 20.6383 18.0712 21.1458 19.3479C21.6533 20.6245 21.9071 22.1629 21.9071 23.9629V24.629C21.9071 26.4211 21.6533 27.9555 21.1458 29.2323C20.6383 30.501 19.889 31.4684 18.8978 32.1345C17.9145 32.8006 16.7131 33.1337 15.2937 33.1337ZM15.3056 30.4812C16.0748 30.4812 16.7131 30.271 17.2206 29.8508C17.7361 29.4225 18.1206 28.7921 18.3744 27.9595C18.636 27.1191 18.767 26.0801 18.767 24.8432V23.7489C18.767 22.5118 18.636 21.473 18.3744 20.6324C18.1128 19.792 17.7242 19.1575 17.2087 18.7294C16.7012 18.3011 16.0629 18.0871 15.2937 18.0871C14.5324 18.0871 13.8901 18.3011 13.3668 18.7294C12.8434 19.1496 12.4469 19.7801 12.1773 20.6205C11.9156 21.4611 11.7848 22.5039 11.7848 23.7489V24.8432C11.7848 26.0723 11.9196 27.1072 12.1892 27.9476C12.4588 28.7802 12.8514 29.4106 13.3668 29.8389C13.8901 30.267 14.5364 30.4812 15.3056 30.4812Z" fill="#CF74A2"/>
<path d="M28.8058 32.8609V19.5509H28.675C28.1278 20.0584 27.4974 20.4629 26.7837 20.7642C26.07 21.0575 25.281 21.2479 24.4167 21.335V18.6589C25.1145 18.5636 25.7647 18.3774 26.3675 18.0998C26.978 17.8143 27.5211 17.4694 27.997 17.0649C28.4807 16.6526 28.8971 16.2007 29.2459 15.709H31.8984V32.8609H28.8058Z" fill="#CF74A2"/>
<path fill-rule="evenodd" clip-rule="evenodd" d="M0.853516 28.9004V31.6028C0.853516 36.3793 4.72565 40.2514 9.50216 40.2514H32.0505C36.827 40.2514 40.6991 36.3793 40.6991 31.6029V28.9004C40.6991 33.6769 36.827 37.549 32.0505 37.549H9.50216C4.72565 37.549 0.853516 33.6769 0.853516 28.9004Z" fill="black" fill-opacity="0.2"/>
<path fill-rule="evenodd" clip-rule="evenodd" d="M9.50192 0.405273C4.7254 0.405273 0.853271 4.2774 0.853271 9.05392V9.28186C1.32036 4.94603 4.99182 1.57017 9.45175 1.57017H32.0502C36.8268 1.57017 40.6989 5.44231 40.6989 10.2188V9.05392C40.6989 4.2774 36.8268 0.405273 32.0502 0.405273H9.50192Z" fill="white" fill-opacity="0.3"/>
</g>
<defs>
<clipPath id="clip0_1_1973">
<rect width="40" height="40" fill="white" transform="translate(0.780029 0.347656)"/>
</clipPath>
</defs>
</svg>
