<svg width="56" height="73" viewBox="0 0 56 73" fill="none" xmlns="http://www.w3.org/2000/svg">
<g clip-path="url(#clip0_17_8780)">
<path d="M0.287598 20.8616C0.287598 14.1485 5.72958 8.70654 12.4426 8.70654H44.1326C50.8456 8.70654 56.2876 14.1485 56.2876 20.8616V52.5513C56.2876 59.2643 50.8456 64.7065 44.1326 64.7065H12.4426C5.72958 64.7065 0.287598 59.2643 0.287598 52.5515V20.8616Z" fill="white"/>
<path d="M0.287598 20.8616C0.287598 14.1487 5.72958 8.70654 12.4426 8.70654H44.1326C50.8456 8.70654 56.2876 14.1487 56.2876 20.8616V25.1567H0.287598V20.8616Z" fill="#CF74A2"/>
<path d="M17.6406 21.7224L20.3278 14.2563H22.0468L24.734 21.7224H23.2376L22.6578 19.9983H19.7167L19.1318 21.7226L17.6406 21.7224ZM20.0586 18.9267H22.311L21.4877 16.4931C21.3846 16.1755 21.293 15.8543 21.2131 15.53H21.1615C21.0785 15.8539 20.9853 16.1751 20.8819 16.4931L20.0586 18.9267ZM26.0389 21.7224V14.2618H28.8658C29.4284 14.2618 29.9048 14.3549 30.2949 14.5413C30.6849 14.7243 30.9801 14.9865 31.1803 15.3284C31.3804 15.67 31.4807 16.067 31.4807 16.5191C31.4807 16.975 31.3804 17.3769 31.1803 17.7255C30.9834 18.0741 30.6867 18.3435 30.2897 18.5332C29.8962 18.7231 29.4215 18.818 28.8658 18.818H27.3953V21.7228H26.0389V21.7224ZM28.7466 17.6943C29.0401 17.6943 29.2886 17.6476 29.4922 17.5545C29.6995 17.4612 29.8582 17.3283 29.9687 17.1558C30.0826 16.9832 30.1395 16.7709 30.1395 16.5189C30.1395 16.2736 30.0843 16.0668 29.9739 15.8975C29.8634 15.7284 29.703 15.6008 29.4922 15.5144C29.2852 15.4282 29.0366 15.385 28.7466 15.385H27.3953V17.6943H28.7466ZM32.9147 21.7224V14.2566H36.1041C36.6047 14.2566 37.0327 14.3412 37.3882 14.5101C37.7438 14.6794 38.0149 14.921 38.2011 15.235C38.3875 15.5491 38.4809 15.9166 38.4809 16.3379C38.4809 16.6348 38.4273 16.904 38.3203 17.1456C38.2199 17.3829 38.0614 17.5913 37.8594 17.7514C37.6558 17.9102 37.4125 18.0225 37.1295 18.0878V18.1295C37.5297 18.2156 37.8301 18.4056 38.0303 18.699C38.2339 18.9923 38.3426 19.3962 38.3565 19.9106V20.04C38.36 20.078 38.3634 20.1194 38.3669 20.1641C38.3806 20.537 38.4084 20.8357 38.4496 21.0599C38.4911 21.2809 38.5447 21.4636 38.6102 21.6088V21.7226H37.2174C37.1588 21.5811 37.1121 21.4102 37.0776 21.2101C37.0431 21.01 37.0138 20.751 36.9895 20.4335L36.9793 20.2523L36.9689 20.0606C36.9585 19.7259 36.9051 19.4637 36.8085 19.2736C36.7151 19.0839 36.5771 18.951 36.3941 18.875C36.2111 18.7956 35.973 18.7559 35.6796 18.7559H34.3128V21.7228H32.9147V21.7224ZM35.866 17.627C36.1145 17.627 36.3286 17.5855 36.5081 17.5026C36.6858 17.4244 36.8344 17.2922 36.9326 17.1247C37.0362 16.9522 37.088 16.7434 37.088 16.4983C37.088 16.2498 37.0344 16.0425 36.9274 15.8769C36.8264 15.7133 36.6759 15.5863 36.4976 15.5144C36.3181 15.4384 36.1076 15.4004 35.866 15.4004H34.3128V17.627H35.866Z" fill="#CBCBCB"/>
<path d="M17.6406 21.2878L20.3278 13.8218H22.0468L24.734 21.2878H23.2376L22.6578 19.5637H19.7167L19.1318 21.288L17.6406 21.2878ZM20.0586 18.4921H22.311L21.4877 16.0585C21.3846 15.7409 21.293 15.4197 21.2131 15.0955H21.1615C21.0785 15.4194 20.9853 15.7405 20.8819 16.0585L20.0586 18.4921ZM26.0389 21.2878V13.8272H28.8658C29.4284 13.8272 29.9048 13.9203 30.2949 14.1068C30.6849 14.2897 30.9801 14.5519 31.1803 14.8938C31.3804 15.2355 31.4807 15.6324 31.4807 16.0846C31.4807 16.5404 31.3804 16.9424 31.1803 17.291C30.9834 17.6395 30.6867 17.9089 30.2897 18.0986C29.8962 18.2885 29.4215 18.3834 28.8658 18.3834H27.3953V21.2882H26.0389V21.2878ZM28.7466 17.2597C29.0401 17.2597 29.2886 17.213 29.4922 17.1199C29.6995 17.0266 29.8582 16.8937 29.9687 16.7212C30.0826 16.5486 30.1395 16.3364 30.1395 16.0844C30.1395 15.8391 30.0843 15.6322 29.9739 15.4629C29.8634 15.2938 29.703 15.1662 29.4922 15.0798C29.2852 14.9937 29.0366 14.9505 28.7466 14.9505H27.3953V17.2597H28.7466ZM32.9147 21.2878V13.822H36.1041C36.6047 13.822 37.0327 13.9066 37.3882 14.0755C37.7438 14.2448 38.0149 14.4864 38.2011 14.8005C38.3875 15.1146 38.4809 15.482 38.4809 15.9033C38.4809 16.2003 38.4273 16.4694 38.3203 16.711C38.2199 16.9484 38.0614 17.1567 37.8594 17.3168C37.6558 17.4757 37.4125 17.5879 37.1295 17.6532V17.6949C37.5297 17.7811 37.8301 17.971 38.0303 18.2644C38.2339 18.5577 38.3426 18.9616 38.3565 19.476V19.6054C38.36 19.6434 38.3634 19.6848 38.3669 19.7296C38.3806 20.1025 38.4084 20.4011 38.4496 20.6253C38.4911 20.8463 38.5447 21.0291 38.6102 21.1743V21.288H37.2174C37.1588 21.1465 37.1121 20.9757 37.0776 20.7755C37.0431 20.5754 37.0138 20.3165 36.9895 19.9989L36.9793 19.8177L36.9689 19.626C36.9585 19.2913 36.9051 19.0291 36.8085 18.839C36.7151 18.6493 36.5771 18.5164 36.3941 18.4405C36.2111 18.361 35.973 18.3213 35.6796 18.3213H34.3128V21.2882H32.9147V21.2878ZM35.866 17.1924C36.1145 17.1924 36.3286 17.151 36.5081 17.068C36.6858 16.9899 36.8344 16.8576 36.9326 16.6901C37.0362 16.5176 37.088 16.3088 37.088 16.0637C37.088 15.8152 37.0344 15.6079 36.9274 15.4423C36.8264 15.2788 36.6759 15.1518 36.4976 15.0798C36.3181 15.0039 36.1076 14.9659 35.866 14.9659H34.3128V17.1924H35.866Z" fill="white"/>
<path d="M20.6146 55.6537C18.6199 55.6537 16.9203 55.1855 15.516 54.2493C14.1116 53.3021 13.0474 51.9368 12.3231 50.1537C11.5986 48.3706 11.2363 46.2196 11.2363 43.7009V42.7648C11.2363 40.235 11.5986 38.0786 12.3229 36.2955C13.0474 34.5011 14.106 33.1358 15.4993 32.1996C16.9036 31.2524 18.6032 30.7788 20.5979 30.7788C22.5928 30.7788 24.2867 31.2468 25.6798 32.1829C27.0728 33.1191 28.126 34.4844 28.8392 36.2787C29.5525 38.0729 29.9093 40.235 29.9093 42.7648V43.7009C29.9093 46.2196 29.5525 48.376 28.8392 50.1704C28.126 51.9535 27.0728 53.3132 25.6798 54.2493C24.2978 55.1855 22.6095 55.6537 20.6146 55.6537ZM20.6313 51.9258C21.7122 51.9258 22.6095 51.6303 23.3228 51.0397C24.0471 50.4378 24.5876 49.5518 24.9442 48.3817C25.3121 47.2005 25.4959 45.7404 25.4959 44.002V42.4639C25.4959 40.7253 25.3121 39.2654 24.9442 38.084C24.5765 36.9028 24.0304 36.0111 23.3061 35.4094C22.5928 34.8076 21.6955 34.5067 20.6146 34.5067C19.5445 34.5067 18.642 34.8076 17.9064 35.4094C17.1708 36 16.6136 36.8861 16.2347 38.0673C15.867 39.2487 15.6831 40.7143 15.6831 42.4639V44.002C15.6831 45.7293 15.8726 47.1838 16.2514 48.365C16.6303 49.5351 17.1821 50.4211 17.9064 51.023C18.642 51.6247 19.5502 51.9258 20.6313 51.9258ZM39.6051 55.269V36.5629H39.421C38.6522 37.2761 37.7662 37.8446 36.7632 38.2681C35.7602 38.6802 34.6513 38.9479 33.4364 39.0703V35.3092C34.4171 35.1752 35.3311 34.9135 36.178 34.5234C37.0363 34.1221 37.7996 33.6374 38.4682 33.0689C39.148 32.4894 39.7332 31.8543 40.2235 31.1632H43.9514V55.269H39.6051Z" fill="#AF5883"/>
<path d="M20.6146 54.7855C18.6199 54.7855 16.9203 54.3173 15.516 53.3812C14.1116 52.4339 13.0474 51.0687 12.3231 49.2856C11.5986 47.5025 11.2363 45.3515 11.2363 42.8328V41.8966C11.2363 39.3668 11.5986 37.2104 12.3229 35.4273C13.0474 33.6329 14.106 32.2676 15.4993 31.3315C16.9036 30.3843 18.6032 29.9106 20.5979 29.9106C22.5928 29.9106 24.2867 30.3786 25.6798 31.3148C27.0728 32.2509 28.126 33.6162 28.8392 35.4106C29.5525 37.2048 29.9093 39.3668 29.9093 41.8966V42.8328C29.9093 45.3515 29.5525 47.5079 28.8392 49.3023C28.126 51.0854 27.0728 52.445 25.6798 53.3812C24.2978 54.3173 22.6095 54.7855 20.6146 54.7855ZM20.6313 51.0576C21.7122 51.0576 22.6095 50.7622 23.3228 50.1716C24.0471 49.5697 24.5876 48.6837 24.9442 47.5135C25.3121 46.3323 25.4959 44.8722 25.4959 43.1338V41.5958C25.4959 39.8572 25.3121 38.3972 24.9442 37.2158C24.5765 36.0346 24.0304 35.143 23.3061 34.5413C22.5928 33.9394 21.6955 33.6386 20.6146 33.6386C19.5445 33.6386 18.642 33.9394 17.9064 34.5413C17.1708 35.1319 16.6136 36.0179 16.2347 37.1991C15.867 38.3805 15.6831 39.8461 15.6831 41.5958V43.1338C15.6831 44.8611 15.8726 46.3156 16.2514 47.4968C16.6303 48.667 17.1821 49.553 17.9064 50.1549C18.642 50.7565 19.5502 51.0576 20.6313 51.0576ZM39.6051 54.4009V35.6947H39.421C38.6522 36.4079 37.7662 36.9764 36.7632 37.3999C35.7602 37.8121 34.6513 38.0797 33.4364 38.2021V34.441C34.4171 34.3071 35.3311 34.0453 36.178 33.6553C37.0363 33.2539 37.7996 32.7692 38.4682 32.2008C39.148 31.6212 39.7332 30.9861 40.2235 30.295H43.9514V54.4009H39.6051Z" fill="#CF74A2"/>
<path fill-rule="evenodd" clip-rule="evenodd" d="M0.319824 48.8345V52.6325C0.319824 59.3455 5.76181 64.7875 12.4749 64.7875H44.1648C50.8778 64.7875 56.3198 59.3455 56.3198 52.6327V48.8345C56.3198 55.5475 50.8778 60.9895 44.1648 60.9895H12.4749C5.76181 60.9895 0.319824 55.5475 0.319824 48.8345Z" fill="black" fill-opacity="0.2"/>
<path fill-rule="evenodd" clip-rule="evenodd" d="M12.4749 8.7876C5.76181 8.7876 0.319824 14.2298 0.319824 20.9426V21.263C0.976413 15.1694 6.13623 10.4248 12.4043 10.4248H44.1648C50.8778 10.4248 56.3198 15.8668 56.3198 22.5799V20.9429C56.3198 14.2298 50.8778 8.78781 44.1648 8.78781L12.4749 8.7876Z" fill="white" fill-opacity="0.3"/>
</g>
<defs>
<clipPath id="clip0_17_8780">
<rect width="56" height="259" fill="white" transform="translate(0 -92.7935)"/>
</clipPath>
</defs>
</svg>
