<svg width="600" height="247" viewBox="0 0 600 247" fill="none" xmlns="http://www.w3.org/2000/svg">
<g clip-path="url(#clip0_1_2375)">
<path opacity="0.3" d="M297.758 123.558V0.607178" stroke="#161616" stroke-width="1.17873"/>
<path opacity="0.3" d="M416.242 123.558V74.9466C416.242 72.3494 417.535 69.8587 419.837 68.0222C422.138 66.1858 425.26 65.154 428.515 65.154C431.77 65.154 434.891 64.1223 437.193 62.2859C439.494 60.4494 440.787 57.9587 440.787 55.3615V0.607178" stroke="#D44B45" stroke-width="1.17873"/>
<path opacity="0.3" d="M532.721 123.558V89.6353C532.721 76.1151 546.457 65.154 563.403 65.154C580.348 65.154 594.085 54.194 594.085 40.6727V0.607178" stroke="#E4761B" stroke-width="1.17873"/>
<path opacity="0.3" d="M66.8046 123.558V89.6353C66.8046 76.1151 53.0686 65.154 36.1227 65.154C19.1782 65.154 5.44092 54.194 5.44092 40.6727V0.607178" stroke="#2844E5" stroke-width="1.17873"/>
<path opacity="0.3" d="M183.284 123.558V74.9466C183.284 72.3494 181.991 69.8587 179.689 68.0222C177.388 66.1858 174.266 65.154 171.011 65.154C167.756 65.154 164.634 64.1223 162.333 62.2859C160.031 60.4494 158.738 57.9587 158.738 55.3615V0.607178" stroke="#1F51F4" stroke-width="1.17873"/>
<path opacity="0.3" d="M297.758 123.558V246.508" stroke="#161616" stroke-width="1.17873"/>
<path opacity="0.3" d="M416.242 123.558V172.169C416.242 174.766 417.535 177.257 419.837 179.093C422.138 180.93 425.26 181.961 428.515 181.961C431.77 181.961 434.891 182.993 437.193 184.829C439.494 186.666 440.787 189.157 440.787 191.754V246.508" stroke="#D44B45" stroke-width="1.17873"/>
<path opacity="0.3" d="M532.721 123.558V157.48C532.721 171 546.457 181.961 563.403 181.961C580.348 181.961 594.085 192.921 594.085 206.443V246.508" stroke="#E4761B" stroke-width="1.17873"/>
<path opacity="0.3" d="M66.8046 123.558V157.48C66.8046 171 53.0686 181.961 36.1227 181.961C19.1782 181.961 5.44092 192.921 5.44092 206.443V246.508" stroke="#2844E5" stroke-width="1.17873"/>
<path opacity="0.3" d="M183.284 123.558V172.169C183.284 174.766 181.991 177.257 179.689 179.093C177.388 180.93 174.266 181.961 171.011 181.961C167.756 181.961 164.634 182.993 162.333 184.829C160.031 186.666 158.738 189.157 158.738 191.754V246.508" stroke="#1F51F4" stroke-width="1.17873"/>
<path d="M57.949 81.8425H73.9035C82.6213 81.8425 89.1122 81.8425 94.2244 82.2299C99.3244 82.615 102.984 83.381 106.057 84.8771C109.54 86.5723 112.47 88.9011 114.609 91.6731C116.491 94.1136 117.455 97.0198 117.941 101.074C118.426 105.135 118.426 110.292 118.426 117.219V129.897C118.426 136.823 118.426 141.981 117.941 146.042C117.455 150.095 116.491 153.002 114.609 155.442C112.471 158.214 109.54 160.543 106.057 162.238C102.984 163.734 99.3258 164.5 94.2244 164.885C89.1108 165.272 82.6213 165.273 73.9035 165.273H57.949C49.2313 165.273 42.7417 165.272 37.6308 164.885C32.5281 164.5 28.8694 163.734 25.7972 162.238C22.3139 160.543 19.3831 158.214 17.2445 155.442C15.3626 153.002 14.3985 150.095 13.9131 146.042C13.4276 141.981 13.4263 136.823 13.4263 129.897V117.219C13.4263 110.292 13.4263 105.135 13.9131 101.073C14.3985 97.0198 15.3613 94.1136 17.2445 91.6731C19.3833 88.901 22.3141 86.5722 25.7972 84.8771C28.8694 83.381 32.5281 82.615 37.6294 82.2299C42.7417 81.8436 49.2313 81.8425 57.949 81.8425Z" fill="url(#paint0_linear_1_2375)" stroke="#EBEBEB" stroke-width="1.17873"/>
<path d="M52.7522 146.448V125.976L77.6167 146.448H91.4481V145.916L62.8513 122.61L89.2417 100.493V100.228H75.3231L52.7522 119.771V100.228H41.5513V146.448H52.7522Z" fill="white"/>
<mask id="mask0_1_2375" style="mask-type:luminance" maskUnits="userSpaceOnUse" x="130" y="81" width="107" height="85">
<path d="M211.837 81.1233H154.564C141.008 81.1233 130.019 89.8918 130.019 100.708V146.407C130.019 157.223 141.008 165.992 154.564 165.992H211.837C225.393 165.992 236.382 157.223 236.382 146.407V100.708C236.382 89.8918 225.393 81.1233 211.837 81.1233Z" fill="white"/>
</mask>
<g mask="url(#mask0_1_2375)">
<path d="M130.019 81.1233V165.992H236.382V81.1233H130.019Z" fill="#3A76F0"/>
<path d="M174.423 95.238L175.244 97.8907C172.009 98.5285 168.914 99.5511 166.061 100.924L164.306 98.5784C167.446 97.061 170.857 95.9347 174.423 95.238ZM191.977 95.238L191.156 97.8907C194.39 98.5285 197.486 99.5511 200.339 100.924L202.116 98.5784C198.967 97.0624 195.549 95.9362 191.977 95.238ZM151.894 108.474C149.994 110.983 148.582 113.708 147.708 116.555L151.031 117.209C151.83 114.629 153.112 112.159 154.833 109.883L151.894 108.474ZM150.066 123.558C150.066 122.232 150.19 120.907 150.439 119.596L147.053 119.182C146.502 122.08 146.502 125.027 147.053 127.925L150.439 127.52C150.191 126.208 150.066 124.884 150.066 123.558ZM202.094 148.53L200.339 146.193C197.491 147.567 194.398 148.59 191.167 149.226L191.988 151.878C195.549 151.175 198.956 150.046 202.094 148.53ZM216.336 123.558C216.335 124.884 216.21 126.208 215.961 127.52L219.348 127.925C219.897 125.027 219.897 122.08 219.348 119.182L215.961 119.596C216.21 120.907 216.336 122.232 216.336 123.558ZM218.693 130.553L215.369 129.898C214.571 132.482 213.289 134.954 211.567 137.233L214.507 138.642C216.408 136.131 217.82 133.403 218.693 130.553ZM188.166 149.699C184.874 150.096 181.527 150.096 178.236 149.699L177.726 152.4C181.354 152.84 185.046 152.84 188.674 152.4L188.166 149.699ZM209.875 139.239C207.9 141.375 205.533 143.261 202.852 144.833L204.888 147.038C207.84 145.304 210.452 143.228 212.637 140.88L209.875 139.239ZM202.852 102.274C205.533 103.85 207.9 105.739 209.875 107.878L212.637 106.236C210.46 103.886 207.855 101.808 204.91 100.07L202.852 102.274ZM156.527 107.878C158.5 105.739 160.867 103.85 163.548 102.274L161.492 100.07C158.545 101.807 155.941 103.885 153.764 106.236L156.527 107.878ZM214.507 108.474L211.567 109.883C213.289 112.156 214.571 114.623 215.369 117.202L218.693 116.547C217.818 113.702 216.407 110.981 214.507 108.474ZM178.236 97.4174C181.527 97.0195 184.874 97.0195 188.166 97.4174L188.674 94.7157C185.045 94.2764 181.354 94.2764 177.726 94.7157L178.236 97.4174ZM158.282 147.767L151.208 149.076L152.86 143.432L149.526 142.811L147.874 148.455C147.771 148.805 147.755 149.168 147.827 149.522C147.9 149.877 148.059 150.217 148.296 150.523C148.533 150.828 148.844 151.094 149.21 151.303C149.576 151.513 149.99 151.663 150.428 151.745C150.942 151.837 151.474 151.837 151.987 151.745L159.06 150.444L158.282 147.767ZM150.232 140.374L153.577 140.988L154.718 137.076C153.05 134.842 151.807 132.423 151.031 129.898L147.708 130.553C148.455 132.97 149.586 135.302 151.073 137.491L150.232 140.374ZM166.227 146.292L161.325 147.204L162.104 149.873L165.708 149.201C168.449 150.391 171.372 151.294 174.402 151.887L175.223 149.234C172.068 148.607 169.047 147.61 166.259 146.276L166.227 146.292ZM183.201 99.8536C166.789 99.8623 153.503 110.48 153.503 123.567C153.513 128.024 155.093 132.389 158.063 136.164L155.207 145.894L167.391 143.615C181.279 150.585 199.623 147.261 208.358 136.189C217.094 125.116 212.939 110.48 199.061 103.502C194.311 101.118 188.812 99.8526 183.201 99.8536Z" fill="white"/>
</g>
<path d="M328.561 81.4307H271.616C258.182 81.4307 247.291 90.1203 247.291 100.839V146.277C247.291 156.996 258.182 165.686 271.616 165.686H328.561C341.995 165.686 352.886 156.996 352.886 146.277V100.839C352.886 90.1203 341.995 81.4307 328.561 81.4307Z" fill="#161616"/>
<path d="M328.561 80.8862H271.616C257.805 80.8862 246.61 89.8194 246.61 100.839V146.276C246.61 157.296 257.805 166.229 271.616 166.229H328.561C342.372 166.229 353.568 157.296 353.568 146.276V100.839C353.568 89.8194 342.372 80.8862 328.561 80.8862Z" stroke="black" stroke-opacity="0.08" stroke-width="1.17873"/>
<path d="M263.377 105.735L262.292 108.466H267.327L264.826 114.798L268.842 115.665L271.641 108.467H275.987L277.072 105.735H263.377ZM278.62 115.481C279.113 115.455 279.607 115.455 280.102 115.455C280.924 115.455 282.142 115.507 282.142 116.4C282.142 117.03 281.846 117.818 281.616 118.423C281.187 119.657 280.661 120.892 280.563 122.153H285.072C284.94 120.13 286.521 118.37 286.521 116.374C286.521 115.034 285.237 114.482 283.755 114.272L284.183 114.22C287.41 113.878 289.221 111.829 289.221 109.307C289.221 106.497 286.29 105.709 283.262 105.709H278.093C276.611 109.361 275.23 113.037 273.78 116.715L277.763 117.556L278.62 115.481ZM281.418 108.283H282.866C283.953 108.283 285.007 108.493 285.007 109.517C285.007 110.778 283.887 112.88 282.011 112.88H279.607L281.418 108.283ZM298.998 116.059H294.784C296.298 113.773 297.747 111.488 299.031 109.123L296.035 108.388L286.323 122.179H290.867L293.204 118.659H298.767L298.602 122.179H302.981L303.311 110.148L299.558 109.229C299.192 111.494 299.005 113.775 298.998 116.059ZM311.541 122.179H321.813L322.931 119.499H317.072L319.244 114.036L315.162 113.037L311.541 122.179ZM299.822 126.46C299.822 123.966 297.417 123.203 294.652 123.203H288.925L283.525 136.652L290.373 139.647C294.488 139.516 297.352 137.099 297.352 133.763C297.352 132.476 296.365 131.477 294.817 131.136C297.878 130.584 299.822 129.035 299.822 126.46ZM292.315 136.127C291.492 137.099 290.636 137.178 289.253 137.178H287.475L289.418 132.345C290.834 132.397 293.369 132.109 293.369 133.79C293.401 134.525 292.842 135.523 292.315 136.127ZM291.953 129.98H290.34L292.052 125.725C293.336 125.777 295.772 125.437 295.772 127.012C295.772 128.903 294.291 129.98 291.953 129.98ZM308.577 111.462L304.233 123.072L300.381 132.502L304.99 132.213L308.314 123.834L312.825 112.485C312.199 112.355 309.697 111.698 308.577 111.462ZM319.047 125.961H323.426L324.512 123.256H310.718L309.632 125.961H314.669L312.299 132.003L316.71 131.767L319.047 125.961ZM335.771 128.431C336.034 127.931 336.43 126.828 336.43 126.303C336.43 123.754 333.334 123.072 330.701 123.072C326.19 123.072 323.492 125.593 323.492 129.061C323.492 129.56 324.083 130.821 325.236 131.241L330.668 130.952C329.747 130.322 328.101 128.877 328.101 128.089C328.101 127.012 328.857 125.62 330.405 125.62C331.458 125.62 332.084 125.857 332.084 126.75C332.084 127.328 331.721 127.879 331.523 128.431H335.771ZM280.924 123.308C278.883 123.308 278.587 124.517 278.061 125.804C277.896 126.277 277.567 126.828 277.567 127.301C277.567 128.247 278.62 128.405 279.574 128.405C280.759 128.405 281.385 128.089 281.781 127.222C282.077 126.618 282.801 124.963 282.801 124.359C282.833 123.544 281.781 123.308 280.924 123.308ZM281.485 124.49C281.485 124.701 281.187 125.383 281.089 125.62L280.628 126.75C280.431 127.17 280.233 127.669 279.541 127.669C279.146 127.669 278.916 127.485 278.916 127.17C278.916 126.75 279.311 125.988 279.509 125.567C279.674 125.147 279.904 124.28 280.496 124.122C280.628 124.096 280.759 124.07 280.924 124.07C281.187 124.07 281.517 124.28 281.485 124.49ZM287.048 124.149L287.377 123.334H284.118L282.176 128.378H283.525L284.381 126.198H286.159L286.488 125.383H284.71L285.171 124.149H287.048Z" fill="#DAE2EB"/>
<path d="M321.285 108.835L319.606 113.195L315.524 112.197L317.598 106.917L321.285 108.835ZM325.27 137.887C327.079 137.887 328.89 136.311 328.692 134.945C328.496 133.684 327.607 132.765 326.092 132.055L331.392 131.767C332.38 132.633 332.873 133.08 332.94 134.472C333.006 135.575 332.249 136.968 331.59 137.913C330.108 140.014 327.771 140.462 324.907 140.462C322.174 140.462 319.278 139.778 319.278 137.152C319.278 136.364 319.574 135.575 319.936 134.84H324.413C324.051 135.313 323.82 136.022 323.787 136.548C323.787 137.256 324.281 137.887 325.27 137.887ZM309.796 138.413L312.001 132.896L316.446 132.66L314.635 137.283L309.796 138.413ZM289.154 140.094L281.714 140.934L283.163 137.467L289.154 140.094ZM303.442 109.307L299.887 108.467C298.9 108.23 296.397 107.626 296.397 107.6L297.254 106.365L303.509 105.367L303.442 109.307ZM264.562 115.639L268.579 116.505L266.703 121.391L263.41 118.633L264.562 115.639ZM277.5 118.396L275.952 122.337L271.608 122.311C272.036 121.233 273.121 118.607 273.55 117.53L277.5 118.396Z" fill="#8294A3"/>
<path d="M445.064 81.4307H388.118C374.684 81.4307 363.794 90.1203 363.794 100.839V146.277C363.794 156.996 374.684 165.686 388.118 165.686H445.064C458.498 165.686 469.388 156.996 469.388 146.277V100.839C469.388 90.1203 458.498 81.4307 445.064 81.4307Z" fill="#D44B45"/>
<path d="M445.064 80.8862H388.118C374.308 80.8862 363.112 89.8194 363.112 100.839V146.276C363.112 157.296 374.308 166.229 388.118 166.229H445.064C458.874 166.229 470.07 157.296 470.07 146.276V100.839C470.07 89.8194 458.874 80.8862 445.064 80.8862Z" stroke="black" stroke-opacity="0.08" stroke-width="1.17873"/>
<path d="M443.196 103.191H393.12C392.115 103.191 391.825 104.279 392.741 104.599L418.259 113.604C418.594 113.728 418.818 113.996 418.818 114.281V132.307C418.818 133.038 420.001 133.323 420.516 132.717L443.978 104.333C444.381 103.851 443.933 103.191 443.196 103.191Z" fill="white"/>
<path d="M388.853 144.841H438.929C439.934 144.841 440.224 143.753 439.308 143.432L413.79 134.428C413.626 134.368 413.487 134.273 413.388 134.153C413.289 134.033 413.235 133.894 413.231 133.75V115.725C413.231 114.994 412.047 114.709 411.533 115.315L388.071 143.699C387.668 144.18 388.116 144.841 388.853 144.841Z" fill="white"/>
<path d="M561.569 81.4307H504.623C491.189 81.4307 480.299 90.1203 480.299 100.839V146.277C480.299 156.996 491.189 165.686 504.623 165.686H561.569C575.003 165.686 585.893 156.996 585.893 146.277V100.839C585.893 90.1203 575.003 81.4307 561.569 81.4307Z" fill="white"/>
<path d="M561.569 80.8862H504.623C490.813 80.8862 479.617 89.8194 479.617 100.839V146.276C479.617 157.296 490.813 166.229 504.623 166.229H561.569C575.379 166.229 586.575 157.296 586.575 146.276V100.839C586.575 89.8194 575.379 80.8862 561.569 80.8862Z" stroke="black" stroke-opacity="0.08" stroke-width="1.17873"/>
<path d="M533.148 99.9272L552.92 145.626L533.148 137.207L513.375 145.626L533.148 99.9272Z" fill="#FF4800"/>
</g>
<defs>
<linearGradient id="paint0_linear_1_2375" x1="63.8808" y1="86.7388" x2="89.9209" y2="168.613" gradientUnits="userSpaceOnUse">
<stop stop-color="#00BFF7"/>
<stop offset="1" stop-color="#7964F9"/>
</linearGradient>
<clipPath id="clip0_1_2375">
<rect width="600" height="246.462" fill="white" transform="translate(0 0.326904)"/>
</clipPath>
</defs>
</svg>
