<svg width="41" height="41" viewBox="0 0 41 41" fill="none" xmlns="http://www.w3.org/2000/svg">
<g clip-path="url(#clip0_1_1991)">
<mask id="mask0_1_1991" style="mask-type:luminance" maskUnits="userSpaceOnUse" x="0" y="0" width="41" height="41">
<path d="M31.997 0.424927H9.4487C4.67218 0.424927 0.800049 4.29706 0.800049 9.07358V31.6218C0.800049 36.3984 4.67218 40.2705 9.4487 40.2705H31.997C36.7735 40.2705 40.6456 36.3984 40.6456 31.6218V9.07358C40.6456 4.29706 36.7735 0.424927 31.997 0.424927Z" fill="white"/>
</mask>
<g mask="url(#mask0_1_1991)">
<path d="M0.800049 9.07358C0.800049 4.29707 4.67219 0.424927 9.4487 0.424927H31.9968C36.7734 0.424927 40.6455 4.29707 40.6455 9.07358V18.2723V31.6217C40.6455 36.3982 36.7734 40.2705 31.9968 40.2705H9.4487C4.67219 40.2705 0.800049 36.3982 0.800049 31.6218V9.07358Z" fill="#00A05E"/>
<g filter="url(#filter0_d_1_1991)">
<path d="M0.800049 29.6865H40.2305" stroke="#00804B" stroke-width="0.830114" stroke-linecap="round"/>
</g>
<path d="M4.95069 15.5509H4.95069C5.5371 15.5509 6.01247 16.0263 6.01247 16.6127V24.4988C6.01247 25.0852 5.5371 25.5605 4.95069 25.5605H4.95069C4.36429 25.5605 3.88892 25.0852 3.88892 24.4988V16.6127C3.88892 16.0263 4.36429 15.5509 4.95069 15.5509Z" stroke="#19C77F" stroke-width="0.46332"/>
<path d="M4.12061 16.6125C4.12061 16.154 4.49227 15.7823 4.95072 15.7823C5.40919 15.7823 5.78084 16.154 5.78084 16.6125V24.4986C5.78084 24.9571 5.40919 25.3287 4.95072 25.3287C4.49227 25.3287 4.12061 24.9571 4.12061 24.4986V16.6125Z" fill="black" fill-opacity="0.5"/>
<mask id="mask1_1_1991" style="mask-type:luminance" maskUnits="userSpaceOnUse" x="4" y="15" width="2" height="11">
<path d="M4.12061 16.6125C4.12061 16.154 4.49227 15.7823 4.95072 15.7823C5.40919 15.7823 5.78084 16.154 5.78084 16.6125V24.4986C5.78084 24.9571 5.40919 25.3287 4.95072 25.3287C4.49227 25.3287 4.12061 24.9571 4.12061 24.4986V16.6125Z" fill="#1B271D"/>
</mask>
<g mask="url(#mask1_1_1991)">
<path d="M3.81177 16.6128C3.81177 15.9838 4.32171 15.4738 4.95076 15.4738C5.57981 15.4738 6.08976 15.9838 6.08976 16.6128H5.472C5.472 16.3249 5.23864 16.0916 4.95076 16.0916C4.6629 16.0916 4.42953 16.3249 4.42953 16.6128H3.81177ZM6.08976 24.4988C6.08976 25.1279 5.57981 25.6378 4.95076 25.6378C4.32171 25.6378 3.81177 25.1279 3.81177 24.4988H4.42953C4.42953 24.7867 4.6629 25.0201 4.95076 25.0201C5.23864 25.0201 5.472 24.7867 5.472 24.4988H6.08976ZM4.95076 25.6378C4.32171 25.6378 3.81177 25.1279 3.81177 24.4988V16.6128C3.81177 15.9838 4.32171 15.4738 4.95076 15.4738V16.0916C4.6629 16.0916 4.42953 16.3249 4.42953 16.6128V24.4988C4.42953 24.7867 4.6629 25.0201 4.95076 25.0201V25.6378ZM4.95076 15.4738C5.57981 15.4738 6.08976 15.9838 6.08976 16.6128V24.4988C6.08976 25.1279 5.57981 25.6378 4.95076 25.6378V25.0201C5.23864 25.0201 5.472 24.7867 5.472 24.4988V16.6128C5.472 16.3249 5.23864 16.0916 4.95076 16.0916V15.4738Z" fill="#1B271D"/>
</g>
<path d="M8.30982 15.5509H8.30982C8.89623 15.5509 9.3716 16.0263 9.3716 16.6127V24.4988C9.3716 25.0852 8.89623 25.5605 8.30982 25.5605H8.30982C7.72342 25.5605 7.24805 25.0852 7.24805 24.4988V16.6127C7.24805 16.0263 7.72342 15.5509 8.30982 15.5509Z" stroke="#19C77F" stroke-width="0.46332"/>
<path d="M7.47974 16.6125C7.47974 16.154 7.8514 15.7823 8.30985 15.7823C8.76831 15.7823 9.13997 16.154 9.13997 16.6125V24.4986C9.13997 24.9571 8.76831 25.3287 8.30985 25.3287C7.8514 25.3287 7.47974 24.9571 7.47974 24.4986V16.6125Z" fill="black" fill-opacity="0.5"/>
<mask id="mask2_1_1991" style="mask-type:luminance" maskUnits="userSpaceOnUse" x="7" y="15" width="3" height="11">
<path d="M7.47974 16.6125C7.47974 16.154 7.8514 15.7823 8.30985 15.7823C8.76831 15.7823 9.13997 16.154 9.13997 16.6125V24.4986C9.13997 24.9571 8.76831 25.3287 8.30985 25.3287C7.8514 25.3287 7.47974 24.9571 7.47974 24.4986V16.6125Z" fill="#1B271D"/>
</mask>
<g mask="url(#mask2_1_1991)">
<path d="M7.1709 16.6128C7.1709 15.9838 7.68084 15.4738 8.30989 15.4738C8.93894 15.4738 9.44889 15.9838 9.44889 16.6128H8.83113C8.83113 16.3249 8.59777 16.0916 8.30989 16.0916C8.02202 16.0916 7.78866 16.3249 7.78866 16.6128H7.1709ZM9.44889 24.4988C9.44889 25.1279 8.93894 25.6378 8.30989 25.6378C7.68084 25.6378 7.1709 25.1279 7.1709 24.4988H7.78866C7.78866 24.7867 8.02202 25.0201 8.30989 25.0201C8.59777 25.0201 8.83113 24.7867 8.83113 24.4988H9.44889ZM8.30989 25.6378C7.68084 25.6378 7.1709 25.1279 7.1709 24.4988V16.6128C7.1709 15.9838 7.68084 15.4738 8.30989 15.4738V16.0916C8.02202 16.0916 7.78866 16.3249 7.78866 16.6128V24.4988C7.78866 24.7867 8.02202 25.0201 8.30989 25.0201V25.6378ZM8.30989 15.4738C8.93894 15.4738 9.44889 15.9838 9.44889 16.6128V24.4988C9.44889 25.1279 8.93894 25.6378 8.30989 25.6378V25.0201C8.59777 25.0201 8.83113 24.7867 8.83113 24.4988V16.6128C8.83113 16.3249 8.59777 16.0916 8.30989 16.0916V15.4738Z" fill="#1B271D"/>
</g>
<path d="M11.6687 15.5509H11.6687C12.2551 15.5509 12.7305 16.0263 12.7305 16.6127V24.4988C12.7305 25.0852 12.2551 25.5605 11.6687 25.5605H11.6687C11.0823 25.5605 10.6069 25.0852 10.6069 24.4988V16.6127C10.6069 16.0263 11.0823 15.5509 11.6687 15.5509Z" stroke="#19C77F" stroke-width="0.46332"/>
<path d="M10.8386 16.6125C10.8386 16.154 11.2103 15.7823 11.6687 15.7823C12.1272 15.7823 12.4989 16.154 12.4989 16.6125V24.4986C12.4989 24.9571 12.1272 25.3287 11.6687 25.3287C11.2103 25.3287 10.8386 24.9571 10.8386 24.4986V16.6125Z" fill="black" fill-opacity="0.5"/>
<mask id="mask3_1_1991" style="mask-type:luminance" maskUnits="userSpaceOnUse" x="10" y="15" width="3" height="11">
<path d="M10.8386 16.6125C10.8386 16.154 11.2103 15.7823 11.6687 15.7823C12.1272 15.7823 12.4989 16.154 12.4989 16.6125V24.4986C12.4989 24.9571 12.1272 25.3287 11.6687 25.3287C11.2103 25.3287 10.8386 24.9571 10.8386 24.4986V16.6125Z" fill="#1B271D"/>
</mask>
<g mask="url(#mask3_1_1991)">
<path d="M10.5298 16.6128C10.5298 15.9838 11.0397 15.4738 11.6688 15.4738C12.2978 15.4738 12.8078 15.9838 12.8078 16.6128H12.19C12.19 16.3249 11.9567 16.0916 11.6688 16.0916C11.3809 16.0916 11.1475 16.3249 11.1475 16.6128H10.5298ZM12.8078 24.4988C12.8078 25.1279 12.2978 25.6378 11.6688 25.6378C11.0397 25.6378 10.5298 25.1279 10.5298 24.4988H11.1475C11.1475 24.7867 11.3809 25.0201 11.6688 25.0201C11.9567 25.0201 12.19 24.7867 12.19 24.4988H12.8078ZM11.6688 25.6378C11.0397 25.6378 10.5298 25.1279 10.5298 24.4988V16.6128C10.5298 15.9838 11.0397 15.4738 11.6688 15.4738V16.0916C11.3809 16.0916 11.1475 16.3249 11.1475 16.6128V24.4988C11.1475 24.7867 11.3809 25.0201 11.6688 25.0201V25.6378ZM11.6688 15.4738C12.2978 15.4738 12.8078 15.9838 12.8078 16.6128V24.4988C12.8078 25.1279 12.2978 25.6378 11.6688 25.6378V25.0201C11.9567 25.0201 12.19 24.7867 12.19 24.4988V16.6128C12.19 16.3249 11.9567 16.0916 11.6688 16.0916V15.4738Z" fill="#1B271D"/>
</g>
<path d="M15.0278 15.5509H15.0278C15.6142 15.5509 16.0896 16.0263 16.0896 16.6127V24.4988C16.0896 25.0852 15.6142 25.5605 15.0278 25.5605H15.0278C14.4414 25.5605 13.9661 25.0852 13.9661 24.4988V16.6127C13.9661 16.0263 14.4414 15.5509 15.0278 15.5509Z" stroke="#19C77F" stroke-width="0.46332"/>
<path d="M14.1978 16.6125C14.1978 16.154 14.5694 15.7823 15.0279 15.7823C15.4863 15.7823 15.858 16.154 15.858 16.6125V24.4986C15.858 24.9571 15.4863 25.3287 15.0279 25.3287C14.5694 25.3287 14.1978 24.9571 14.1978 24.4986V16.6125Z" fill="black" fill-opacity="0.5"/>
<mask id="mask4_1_1991" style="mask-type:luminance" maskUnits="userSpaceOnUse" x="14" y="15" width="2" height="11">
<path d="M14.1978 16.6125C14.1978 16.154 14.5694 15.7823 15.0279 15.7823C15.4863 15.7823 15.858 16.154 15.858 16.6125V24.4986C15.858 24.9571 15.4863 25.3287 15.0279 25.3287C14.5694 25.3287 14.1978 24.9571 14.1978 24.4986V16.6125Z" fill="#1B271D"/>
</mask>
<g mask="url(#mask4_1_1991)">
<path d="M13.8889 16.6128C13.8889 15.9838 14.3989 15.4738 15.0279 15.4738C15.657 15.4738 16.1669 15.9838 16.1669 16.6128H15.5491C15.5491 16.3249 15.3158 16.0916 15.0279 16.0916C14.74 16.0916 14.5067 16.3249 14.5067 16.6128H13.8889ZM16.1669 24.4988C16.1669 25.1279 15.657 25.6378 15.0279 25.6378C14.3989 25.6378 13.8889 25.1279 13.8889 24.4988H14.5067C14.5067 24.7867 14.74 25.0201 15.0279 25.0201C15.3158 25.0201 15.5491 24.7867 15.5491 24.4988H16.1669ZM15.0279 25.6378C14.3989 25.6378 13.8889 25.1279 13.8889 24.4988V16.6128C13.8889 15.9838 14.3989 15.4738 15.0279 15.4738V16.0916C14.74 16.0916 14.5067 16.3249 14.5067 16.6128V24.4988C14.5067 24.7867 14.74 25.0201 15.0279 25.0201V25.6378ZM15.0279 15.4738C15.657 15.4738 16.1669 15.9838 16.1669 16.6128V24.4988C16.1669 25.1279 15.657 25.6378 15.0279 25.6378V25.0201C15.3158 25.0201 15.5491 24.7867 15.5491 24.4988V16.6128C15.5491 16.3249 15.3158 16.0916 15.0279 16.0916V15.4738Z" fill="#1B271D"/>
</g>
<path d="M36.2874 20.5551C36.2874 18.7212 34.8008 17.2346 32.9669 17.2346C31.1331 17.2346 29.6465 18.7212 29.6465 20.5551C29.6465 22.3889 31.1331 23.8755 32.9669 23.8755C34.8008 23.8755 36.2874 22.3889 36.2874 20.5551Z" fill="#303030" stroke="#19C77F" stroke-width="0.415058"/>
<path d="M31.0991 20.5551C31.0991 19.5236 31.9354 18.6875 32.9669 18.6875C33.9984 18.6875 34.8347 19.5236 34.8347 20.5551C34.8347 21.5867 33.9984 22.4229 32.9669 22.4229C31.9354 22.4229 31.0991 21.5867 31.0991 20.5551Z" fill="#83FF49"/>
<mask id="mask5_1_1991" style="mask-type:luminance" maskUnits="userSpaceOnUse" x="31" y="18" width="4" height="5">
<path d="M31.0991 20.5551C31.0991 19.5236 31.9354 18.6875 32.9669 18.6875C33.9984 18.6875 34.8347 19.5236 34.8347 20.5551C34.8347 21.5867 33.9984 22.4229 32.9669 22.4229C31.9354 22.4229 31.0991 21.5867 31.0991 20.5551Z" fill="#00A05E"/>
</mask>
<g mask="url(#mask5_1_1991)">
<path d="M30.7903 20.5554C30.7903 19.3533 31.7648 18.3789 32.967 18.3789C34.1691 18.3789 35.1436 19.3533 35.1436 20.5554H34.5259C34.5259 19.6946 33.828 18.9967 32.967 18.9967C32.106 18.9967 31.408 19.6946 31.408 20.5554H30.7903ZM35.1436 20.5554C35.1436 21.7576 34.1691 22.7321 32.967 22.7321C31.7648 22.7321 30.7903 21.7576 30.7903 20.5554H31.408C31.408 21.4164 32.106 22.1144 32.967 22.1144C33.828 22.1144 34.5259 21.4164 34.5259 20.5554H35.1436ZM32.967 22.7321C31.7648 22.7321 30.7903 21.7576 30.7903 20.5554C30.7903 19.3533 31.7648 18.3789 32.967 18.3789V18.9967C32.106 18.9967 31.408 19.6946 31.408 20.5554C31.408 21.4164 32.106 22.1144 32.967 22.1144V22.7321ZM32.967 18.3789C34.1691 18.3789 35.1436 19.3533 35.1436 20.5554C35.1436 21.7576 34.1691 22.7321 32.967 22.7321V22.1144C33.828 22.1144 34.5259 21.4164 34.5259 20.5554C34.5259 19.6946 33.828 18.9967 32.967 18.9967V18.3789Z" fill="#00A05E"/>
</g>
<g filter="url(#filter1_d_1_1991)">
<path d="M0.800049 11.2355H40.2305" stroke="#00804B" stroke-width="0.830114" stroke-linecap="round"/>
</g>
<path fill-rule="evenodd" clip-rule="evenodd" d="M0.823242 28.9777V31.6801C0.823242 36.4566 4.69538 40.3287 9.47189 40.3287H32.0202C36.7967 40.3287 40.6688 36.4566 40.6688 31.6801V28.9777C40.6688 33.7542 36.7967 37.6263 32.0202 37.6263H9.47189C4.69538 37.6263 0.823242 33.7542 0.823242 28.9777Z" fill="black" fill-opacity="0.2"/>
<path fill-rule="evenodd" clip-rule="evenodd" d="M9.47165 0.482544C4.69513 0.482544 0.822998 4.35468 0.822998 9.13119V9.35912C1.29009 5.02331 4.96155 1.64744 9.42147 1.64744H32.0199C36.7965 1.64744 40.6686 5.51957 40.6686 10.2961V9.13119C40.6686 4.35468 36.7965 0.482544 32.0199 0.482544H9.47165Z" fill="white" fill-opacity="0.3"/>
</g>
</g>
<defs>
<filter id="filter0_d_1_1991" x="0.38501" y="29.2715" width="40.2605" height="1.2934" filterUnits="userSpaceOnUse" color-interpolation-filters="sRGB">
<feFlood flood-opacity="0" result="BackgroundImageFix"/>
<feColorMatrix in="SourceAlpha" type="matrix" values="0 0 0 0 0 0 0 0 0 0 0 0 0 0 0 0 0 0 127 0" result="hardAlpha"/>
<feOffset dy="0.46332"/>
<feComposite in2="hardAlpha" operator="out"/>
<feColorMatrix type="matrix" values="0 0 0 0 0.0980392 0 0 0 0 0.780392 0 0 0 0 0.498039 0 0 0 1 0"/>
<feBlend mode="normal" in2="BackgroundImageFix" result="effect1_dropShadow_1_1991"/>
<feBlend mode="normal" in="SourceGraphic" in2="effect1_dropShadow_1_1991" result="shape"/>
</filter>
<filter id="filter1_d_1_1991" x="0.38501" y="10.8204" width="40.2605" height="1.2934" filterUnits="userSpaceOnUse" color-interpolation-filters="sRGB">
<feFlood flood-opacity="0" result="BackgroundImageFix"/>
<feColorMatrix in="SourceAlpha" type="matrix" values="0 0 0 0 0 0 0 0 0 0 0 0 0 0 0 0 0 0 127 0" result="hardAlpha"/>
<feOffset dy="0.46332"/>
<feComposite in2="hardAlpha" operator="out"/>
<feColorMatrix type="matrix" values="0 0 0 0 0.0980392 0 0 0 0 0.780392 0 0 0 0 0.498039 0 0 0 1 0"/>
<feBlend mode="normal" in2="BackgroundImageFix" result="effect1_dropShadow_1_1991"/>
<feBlend mode="normal" in="SourceGraphic" in2="effect1_dropShadow_1_1991" result="shape"/>
</filter>
<clipPath id="clip0_1_1991">
<rect width="40" height="39.8456" fill="white" transform="translate(0.75 0.424927)"/>
</clipPath>
</defs>
</svg>
