<svg width="40" height="41" viewBox="0 0 40 41" fill="none" xmlns="http://www.w3.org/2000/svg">
<g clip-path="url(#clip0_1_2036)">
<mask id="mask0_1_2036" style="mask-type:luminance" maskUnits="userSpaceOnUse" x="0" y="0" width="40" height="41">
<path d="M39.8956 0.534912H0.0500488V40.3805H39.8956V0.534912Z" fill="white"/>
</mask>
<g mask="url(#mask0_1_2036)">
<path d="M0.0500488 9.18356C0.0500488 4.40705 3.92219 0.534912 8.6987 0.534912H31.2468C36.0234 0.534912 39.8955 4.40705 39.8955 9.18356V18.3823V31.7317C39.8955 36.5082 36.0234 40.3805 31.2468 40.3805H8.6987C3.92219 40.3805 0.0500488 36.5082 0.0500488 31.7318V9.18356Z" fill="#FFFFFE"/>
<path d="M22.0491 0.534912H31.2469C36.0234 0.534912 39.8956 4.40705 39.8956 9.18356V18.3823H25.7556C23.7085 18.3823 22.0491 16.7229 22.0491 14.6758V0.534912Z" fill="#4368E3"/>
<path d="M22.0481 0.534912L39.8955 18.3824H24.8941C23.3222 18.3824 22.0481 17.1081 22.0481 15.5363V0.534912Z" fill="white"/>
<path d="M22.9738 0.536133L39.8955 17.4655V18.4147L22.0439 0.536133H22.9738Z" fill="#C24228"/>
<path fill-rule="evenodd" clip-rule="evenodd" d="M0.0732422 29.0876V31.79C0.0732422 36.5666 3.94538 40.4387 8.72189 40.4387H31.2702C36.0467 40.4387 39.9188 36.5666 39.9188 31.79V29.0876C39.9188 33.8642 36.0467 37.7363 31.2702 37.7363H8.72189C3.94538 37.7363 0.0732422 33.8642 0.0732422 29.0876Z" fill="#CCCCCB"/>
<path fill-rule="evenodd" clip-rule="evenodd" d="M8.72165 0.592529C3.94513 0.592529 0.072998 4.46466 0.072998 9.24117V9.46911C0.540092 5.13329 4.21155 1.75743 8.67147 1.75743H31.2699C36.0465 1.75743 39.9186 5.62956 39.9186 10.4061V9.24117C39.9186 4.46466 36.0465 0.592529 31.2699 0.592529H8.72165Z" fill="white" fill-opacity="0.3"/>
<path fill-rule="evenodd" clip-rule="evenodd" d="M21.9846 0.536133V15.5515C21.9846 17.1294 23.2639 18.4087 24.8418 18.4087H39.9536V19.4897H24.8418C22.6668 19.4897 20.9036 17.7265 20.9036 15.5515V0.536133H21.9846Z" fill="#CCCCCB"/>
</g>
</g>
<defs>
<clipPath id="clip0_1_2036">
<rect width="40" height="39.8456" fill="white" transform="translate(0 0.534912)"/>
</clipPath>
</defs>
</svg>
