<svg width="20" height="20" viewBox="0 0 20 20" fill="none" xmlns="http://www.w3.org/2000/svg">
<path d="M16.25 4.44442V13.4719C16.25 13.6561 16.1768 13.8327 16.0466 13.963C15.9164 14.0932 15.7397 14.1663 15.5556 14.1663C15.3714 14.1663 15.1948 14.0932 15.0645 13.963C14.9343 13.8327 14.8612 13.6561 14.8612 13.4719V6.12059L4.93611 16.0465C4.80581 16.1768 4.62908 16.25 4.44481 16.25C4.26053 16.25 4.08381 16.1768 3.9535 16.0465C3.8232 15.9162 3.75 15.7395 3.75 15.5552C3.75 15.3709 3.8232 15.1942 3.9535 15.0639L13.8794 5.13885H6.52808C6.34391 5.13885 6.16728 5.06568 6.03705 4.93545C5.90682 4.80522 5.83365 4.6286 5.83365 4.44442C5.83365 4.26025 5.90682 4.08362 6.03705 3.95339C6.16728 3.82316 6.34391 3.75 6.52808 3.75H15.5556C15.7397 3.75 15.9164 3.82316 16.0466 3.95339C16.1768 4.08362 16.25 4.26025 16.25 4.44442Z" fill="#4A6DD9"/>
</svg>
