<svg width="16" height="16" viewBox="0 0 16 16" fill="none" xmlns="http://www.w3.org/2000/svg">
<path d="M13.3463 6.35375L8.34633 11.3538C8.2999 11.4002 8.24475 11.4371 8.18405 11.4623C8.12335 11.4874 8.05829 11.5004 7.99258 11.5004C7.92687 11.5004 7.86181 11.4874 7.80111 11.4623C7.74041 11.4371 7.68527 11.4002 7.63883 11.3538L2.63883 6.35375C2.56883 6.28382 2.52114 6.1947 2.50182 6.09765C2.48249 6.00061 2.49239 5.90002 2.53027 5.8086C2.56815 5.71719 2.63229 5.63908 2.71459 5.58414C2.79689 5.5292 2.89363 5.49992 2.99258 5.5H12.9926C13.0915 5.49992 13.1883 5.5292 13.2706 5.58414C13.3529 5.63908 13.417 5.71719 13.4549 5.8086C13.4928 5.90002 13.5027 6.00061 13.4833 6.09765C13.464 6.1947 13.4163 6.28382 13.3463 6.35375Z" fill="#CFD3D8" fill-opacity="0.3"/>
</svg>
