<svg width="206" height="51" viewBox="0 0 206 51" fill="none" xmlns="http://www.w3.org/2000/svg">
<path fill-rule="evenodd" clip-rule="evenodd" d="M40.0771 28.0528V44.7909L48.9943 39.66V22.9219L40.0771 28.0528Z" fill="white"/>
<path opacity="0.5" fill-rule="evenodd" clip-rule="evenodd" d="M22.3378 10.4132L9.58126 17.7734L0.664062 12.6425L22.3378 0.151367L37.589 8.96241L28.7072 14.0933L22.3378 10.4132Z" fill="white"/>
<path opacity="0.5" fill-rule="evenodd" clip-rule="evenodd" d="M25.6055 36.3955L40.0764 28.053L48.9759 22.9044L40.0764 17.7734L25.6055 26.1514V36.3955Z" fill="white"/>
<path fill-rule="evenodd" clip-rule="evenodd" d="M0.664062 12.6426V37.6603L22.3378 50.1514V39.8896L9.58126 32.5293V17.7735L0.664062 12.6426Z" fill="white"/>
<g clip-path="url(#clip0_110_7301)">
<path d="M83.2886 35.9664C81.7076 36.5864 79.7856 36.7724 77.7396 36.7724C77.4296 36.7724 77.1196 36.7724 76.8096 36.7414C70.0826 36.4314 65.1846 32.4014 65.1846 25.2714C65.1846 18.0794 70.4236 13.6774 77.4296 13.6774C79.5686 13.6774 81.6456 14.0804 83.1956 14.8244L82.9166 20.1254C81.6456 19.5364 79.8786 19.1024 77.9566 19.1024C73.2136 19.1024 70.3306 21.6754 70.3306 25.5814C70.3306 29.3014 72.5626 31.6574 76.3756 32.0914C77.0576 32.1534 77.8016 32.1534 78.4836 32.1224V26.1084H83.2886V35.9664ZM86.4835 36.4004V19.5674H91.1955V21.7994H91.3195C92.1875 20.0014 94.2335 19.1644 96.9615 19.1644L96.6515 24.6514C92.6835 24.4964 91.2885 26.0774 91.2885 29.9834V36.4004H86.4835ZM108.066 25.7054C108.066 24.7134 107.074 24.0934 104.997 24.0934C102.982 24.0934 101.091 24.6824 99.6028 25.3644L99.2618 20.5594C100.719 19.7844 102.92 19.1644 105.493 19.1644C110.763 19.1644 113.026 21.6134 113.026 26.1394V36.4004H108.128V34.3544C106.888 35.8424 105.462 36.8034 102.982 36.8034C100.192 36.8034 98.1768 35.3464 98.1768 32.5254C98.1768 28.9294 101.06 27.8754 104.656 27.2864C106.02 27.0384 106.764 26.8524 107.415 26.6044C107.942 26.3874 108.066 26.1394 108.066 25.7054ZM108.128 29.0844C107.632 29.3324 106.826 29.6424 105.803 29.8594C104.191 30.2314 103.199 30.6344 103.199 32.0294C103.199 33.1454 104.129 33.6724 105.307 33.6724C106.671 33.6724 107.663 32.8354 108.128 31.8124V29.0844ZM116.242 42.2904V19.5674H120.954V21.5824H121.078C122.039 20.0944 123.93 19.1644 126.224 19.1644C130.781 19.1644 134.191 22.4194 134.191 27.9994C134.191 33.5794 130.502 36.8034 126.193 36.8034C124.023 36.8034 122.101 35.8424 121.14 34.0754H121.047V42.2904H116.242ZM125.17 32.3704C127.402 32.3704 129.138 30.6344 129.138 28.2164C129.138 25.7984 127.402 24.0934 125.17 24.0934C122.907 24.0934 121.14 25.7054 121.14 28.2164C121.14 30.6964 122.907 32.3704 125.17 32.3704ZM148.143 27.8444C148.143 25.5504 147.182 24.0004 144.919 24.0004C142.687 24.0004 141.664 25.5194 141.664 27.8754V36.4004H136.859V12.8404H141.571V21.5204H141.695C142.687 20.0634 144.206 19.1644 146.593 19.1644C150.778 19.1644 152.917 21.9544 152.917 26.0464V36.4004H148.143V27.8444ZM170.367 36.0594C168.879 36.5864 167.205 36.8034 165.376 36.8034C159.3 36.8034 155.425 33.7034 155.425 27.9064C155.425 22.8844 158.711 19.1644 163.764 19.1644C168.91 19.1644 171.483 23.1944 171.483 27.7514C171.483 28.4334 171.452 29.1774 171.328 29.7354H160.788C161.408 31.8744 163.33 32.8354 166.244 32.8354C167.67 32.8354 168.848 32.6494 169.964 32.2464L170.367 36.0594ZM163.826 23.6284C162.276 23.6284 160.881 24.5274 160.54 26.7904H166.957C166.864 25.0234 165.624 23.6284 163.826 23.6284ZM174.125 36.4004V19.5674H178.837V21.7994H178.961C179.829 20.0014 181.875 19.1644 184.603 19.1644L184.293 24.6514C180.325 24.4964 178.93 26.0774 178.93 29.9834V36.4004H174.125ZM185.939 36.4004V32.7734L193.472 24.1554H186.28V19.5674H199.331V23.8764L191.798 32.2154H199.486V36.4004H185.939Z" fill="white"/>
</g>
<defs>
<clipPath id="clip0_110_7301">
<rect width="141" height="50" fill="white" transform="translate(65)"/>
</clipPath>
</defs>
</svg>
