<svg width="236" height="50" viewBox="0 0 236 50" fill="none" xmlns="http://www.w3.org/2000/svg">
<path fill-rule="evenodd" clip-rule="evenodd" d="M18.8126 31.25V6.25L8 12.5V37.5L29.608 50L40.4206 43.75L18.8126 31.25Z" fill="white"/>
<path fill-rule="evenodd" clip-rule="evenodd" d="M29.6074 25L51.2155 37.5V25L40.42 18.75V6.25L29.6074 0V25Z" fill="white"/>
<g clip-path="url(#clip0_110_7262)">
<path d="M70.79 33.6498H93.14V36.7998H67.13V16.3398H70.79V33.6498ZM95.2702 29.2698C95.2702 23.8098 99.3502 21.3798 108.08 21.3798C116.84 21.3798 120.89 23.8098 120.89 29.2698C120.89 34.7298 116.84 37.1598 108.08 37.1598C99.3502 37.1598 95.2702 34.7298 95.2702 29.2698ZM98.6902 29.2698C98.6902 32.8098 101.09 34.2198 108.08 34.2198C115.07 34.2198 117.47 32.8098 117.47 29.2698C117.47 25.7598 115.07 24.3198 108.08 24.3198C101.09 24.3198 98.6902 25.7598 98.6902 29.2698ZM147.412 22.5198V34.4598C147.412 40.3998 143.722 42.5898 135.142 42.5898C131.932 42.5898 127.702 42.1098 124.612 41.2098L125.392 38.5398C128.332 39.3198 131.722 39.8598 135.322 39.8598C142.102 39.8598 144.232 38.2998 144.112 34.4898L144.052 33.7698C140.932 35.0598 137.152 36.0498 133.222 36.0498C127.102 36.0498 123.952 33.9198 123.952 28.8498C123.952 23.2998 128.452 21.4698 135.352 21.4698C140.002 21.4698 144.262 22.0098 147.412 22.5198ZM127.372 28.8198C127.372 32.0298 129.232 33.3498 133.492 33.3498C136.942 33.3498 140.512 32.6298 143.962 31.4598V24.9198C141.292 24.5598 137.842 24.2898 134.902 24.2898C130.192 24.2898 127.372 25.4598 127.372 28.8198ZM154.808 15.5598V19.6098H151.388V15.5598H154.808ZM151.388 36.7998V21.7698H154.808V36.7998H151.388ZM181.804 22.5198V42.1998H178.384V34.3398C175.204 35.8098 171.364 37.0998 167.374 37.0998C161.674 37.0998 158.464 34.8198 158.464 29.4198C158.464 23.4198 162.934 21.4698 169.654 21.4698C174.304 21.4698 178.654 21.9798 181.804 22.5198ZM161.884 29.2698C161.884 32.8098 163.744 34.2198 168.004 34.2198C171.454 34.2198 174.934 33.2298 178.384 31.9398V24.9198C175.714 24.5598 172.234 24.2898 169.294 24.2898C164.584 24.2898 161.884 25.6098 161.884 29.2698ZM185.512 29.9598V21.7698H188.932V29.5098C188.932 32.5398 190.792 34.2498 195.352 34.2498C197.872 34.2498 201.322 33.5298 205.012 32.2998V21.7698H208.432V36.7998H205.462L205.162 34.6398C201.952 35.9898 198.082 37.1598 194.272 37.1598C188.752 37.1598 185.512 35.1198 185.512 29.9598ZM224.47 34.3998C228.85 34.3998 232.54 33.7398 234.07 33.4098L234.79 35.9898C232.24 36.6498 228.04 37.1598 224.2 37.1598C215.98 37.1598 211.96 35.0898 211.96 29.2698C211.96 23.5698 216.31 21.4098 223.72 21.4098C230.53 21.4098 235.33 23.1498 235.33 28.4898C235.33 28.9998 235.27 29.8398 235.21 30.1698H215.32C215.74 33.5898 218.53 34.3998 224.47 34.3998ZM223.6 23.8398C218.26 23.8398 215.68 24.9198 215.32 28.2198H231.97C231.7 25.2498 229.75 23.8398 223.6 23.8398Z" fill="white"/>
</g>
<defs>
<clipPath id="clip0_110_7262">
<rect width="171" height="50" fill="white" transform="translate(65)"/>
</clipPath>
</defs>
</svg>
