<svg width="194" height="50" viewBox="0 0 194 50" fill="none" xmlns="http://www.w3.org/2000/svg">
<path fill-rule="evenodd" clip-rule="evenodd" d="M25.4904 48.5582C35.8826 48.5582 45.0983 41.6955 48.0394 31.6955C39.8604 33.0586 31.042 29.6705 25.4904 23.6562C19.9388 29.6705 11.1205 33.0586 2.94141 31.6955C6.07866 41.8915 15.0983 48.5582 25.4904 48.5582Z" fill="white"/>
<path opacity="0.5" fill-rule="evenodd" clip-rule="evenodd" d="M49.0197 26.7942C49.0197 15.802 43.1739 5.72077 32.1569 2.48047C33.1687 8.55124 31.4243 15.1722 28.2354 20.3236C33.5069 25.8462 41.5311 28.6663 49.0197 26.7942Z" fill="white"/>
<path opacity="0.5" fill-rule="evenodd" clip-rule="evenodd" d="M22.5492 20.1275C19.2811 15.0998 17.6293 8.47055 18.6276 2.48047C7.69973 5.75883 1.96094 15.8951 1.96094 26.7942C9.41518 28.6578 17.5239 25.9066 22.5492 20.1275Z" fill="white"/>
<path fill-rule="evenodd" clip-rule="evenodd" d="M25.4897 16.0098C27.0583 13.0686 27.8426 9.73529 27.8426 6.20588C27.8426 4.63725 27.6465 3.06863 27.2544 1.5C26.6661 1.5 26.0779 1.5 25.4897 1.5C24.9014 1.5 24.3132 1.5 23.725 1.5C23.3328 3.06863 23.1367 4.63725 23.1367 6.20588C23.1367 9.73529 24.1171 13.0686 25.4897 16.0098Z" fill="white"/>
<g clip-path="url(#clip0_110_7248)">
<path d="M78.539 30.1634C78.539 29.0414 77.219 28.6784 75.272 28.1834L72.467 27.4904C68.639 26.5334 65.207 25.1474 65.207 20.5274C65.207 15.8744 69.266 13.3004 74.15 13.3004C78.473 13.3004 81.212 14.5214 82.697 15.3794V21.3524C80.486 19.9664 76.856 18.6794 73.952 18.6794C72.236 18.6794 71.213 19.1084 71.213 20.0984C71.213 21.2534 72.566 21.6164 74.81 22.2104L77.252 22.8704C80.684 23.7944 84.314 25.0484 84.314 29.8004C84.314 34.2884 80.387 36.7304 75.14 36.7304C71.015 36.7304 67.682 35.4104 66.164 34.3214V28.5464C68.408 30.1964 72.5 31.5494 75.503 31.5494C77.813 31.5494 78.539 31.0544 78.539 30.1634ZM89.6208 17.2934C87.4428 17.2934 86.1228 16.3034 86.1228 14.6204C86.1228 12.9374 87.4428 11.9804 89.6208 11.9804C91.8318 11.9804 93.0858 12.9374 93.0858 14.6204C93.0858 16.3034 91.8318 17.2934 89.6208 17.2934ZM86.9478 18.9104H92.2278V36.4004H86.9478V18.9104ZM112.143 32.6054C112.143 39.5024 107.886 41.9444 102.969 41.9444C100.197 41.9444 97.8208 41.1524 96.3688 40.2614V34.9484C97.9858 36.1694 100.131 36.9944 102.375 36.9944C105.873 36.9944 106.863 35.4764 106.863 33.4304V33.2324C105.741 33.9584 104.289 34.5194 102.375 34.5194C98.2498 34.5194 95.0818 31.7474 95.0818 27.3254C95.0818 21.2204 99.9988 18.5804 104.751 18.5804C108.051 18.5804 110.394 19.4384 112.143 20.1314V32.6054ZM100.56 26.5994C100.56 29.0084 102.177 29.7674 103.926 29.7674C104.949 29.7674 106.005 29.5034 106.863 29.1734V23.5964C106.236 23.4314 105.51 23.2994 104.718 23.2994C102.474 23.2994 100.56 24.2894 100.56 26.5994ZM124.245 23.6954C122.892 23.6954 121.605 23.9924 120.648 24.3884V36.4004H115.368V18.9104H120.318V20.9894C121.704 19.7354 123.948 18.5804 126.654 18.5804C130.977 18.5804 132.528 21.3524 132.528 25.1804V36.4004H127.248V26.5994C127.248 24.9164 126.489 23.6954 124.245 23.6954ZM143.919 31.6154C145.272 31.6154 146.559 31.3184 147.516 30.9224V18.9104H152.796V36.4004H147.846V34.3214C146.46 35.5754 144.216 36.7304 141.51 36.7304C137.187 36.7304 135.636 33.9584 135.636 30.1304V18.9104H140.916V28.7114C140.916 30.3944 141.675 31.6154 143.919 31.6154ZM164.649 23.6954C163.428 23.6954 162.273 24.0254 161.382 24.3884V36.4004H156.102V18.9104H161.052V20.9894C162.405 19.7354 164.484 18.5804 167.058 18.5804C169.599 18.5804 171.117 19.6364 171.909 21.3524C173.196 19.9664 175.473 18.5804 178.278 18.5804C182.37 18.5804 183.822 21.3524 183.822 25.1804V36.4004H178.542V26.5994C178.542 24.8834 177.882 23.6954 175.869 23.6954C174.648 23.6954 173.46 24.0254 172.569 24.3884C172.602 24.6524 172.602 24.9164 172.602 25.1804V36.4004H167.322V26.5994C167.322 24.8834 166.662 23.6954 164.649 23.6954ZM189.779 36.8954C187.964 36.8954 186.512 35.4434 186.512 33.6284C186.512 31.8134 187.964 30.3284 189.779 30.3284C191.594 30.3284 193.079 31.8134 193.079 33.6284C193.079 35.4434 191.594 36.8954 189.779 36.8954Z" fill="white"/>
</g>
<defs>
<clipPath id="clip0_110_7248">
<rect width="129" height="50" fill="white" transform="translate(65)"/>
</clipPath>
</defs>
</svg>
