<svg width="226" height="50" viewBox="0 0 226 50" fill="none" xmlns="http://www.w3.org/2000/svg">
<path d="M49.8662 12.0624C50.4925 9.60553 49.0085 7.1061 46.5516 6.47982C44.0946 5.85355 41.5952 7.33758 40.9689 9.79451C40.3427 12.2514 41.8267 14.7509 44.2836 15.3771C46.7405 16.0034 49.24 14.5194 49.8662 12.0624Z" fill="white"/>
<path d="M34.4477 7.94653C38.6903 2.65247 31.2517 -2.66863 27.3643 2.18102C27.1462 2.39963 1.93817 33.4663 1.76757 33.7251C-2.71175 39.3141 4.41428 45.0256 8.85094 39.4905C9.06886 39.2717 34.2771 8.20507 34.4477 7.94653Z" fill="white"/>
<path d="M40.0007 24.8616C44.0722 19.7814 36.9464 14.0701 32.9194 19.0942C32.6994 19.3142 15.5752 40.4938 15.4032 40.7547C11.3049 46.0625 18.4307 51.7737 22.4845 46.522C22.7045 46.302 39.829 25.1224 40.0007 24.8616Z" fill="white"/>
<path d="M8.55583 15.2145C10.9255 14.3129 12.1156 11.661 11.214 9.29125C10.3124 6.92155 7.66043 5.73144 5.29073 6.63307C2.92102 7.53471 1.73092 10.1866 2.63255 12.5564C3.53418 14.9261 6.18613 16.1162 8.55583 15.2145Z" fill="white"/>
<g clip-path="url(#clip0_110_7274)">
<path d="M71.8956 36.8496L65.0796 13.9376H67.4796L72.1196 29.6816C72.4396 30.8016 72.7276 31.9536 73.0156 33.4576C73.3996 31.7936 73.7196 30.8016 74.0716 29.6816L79.0636 13.9376H81.4636L86.4556 29.6816C86.8076 30.8336 87.1276 31.9856 87.4796 33.4576C87.8316 31.6976 88.1196 30.5776 88.3756 29.7136L93.1116 13.9376H95.4476L88.5676 36.8496H86.3916L80.2476 17.3936L74.1036 36.8496H71.8956ZM96.4774 36.8496H94.1414L102.557 13.9376H105.405L113.917 36.8496H111.517L109.277 30.7696H98.7174L96.4774 36.8496ZM103.677 17.1696L99.4214 28.7536H108.541L104.253 17.1696C104.157 16.8496 103.997 16.4656 103.965 16.2416C103.933 16.4336 103.805 16.8496 103.677 17.1696ZM120.227 27.2816L112.451 13.9376H115.043L120.707 23.8256C120.963 24.3056 121.155 24.6896 121.379 25.2016C121.667 24.6256 121.667 24.6256 122.083 23.8256L127.683 13.9376H130.211L122.531 27.2816V36.8496H120.227V27.2816ZM137.225 13.4576V33.0736H147.017V36.8496H133.129V13.4576H137.225ZM154.444 13.4576V36.8496H150.348V13.4576H154.444ZM163.661 36.8496H159.629V13.4576H163.693L174.669 30.0336V13.4576H178.701V36.8496H174.669L163.661 20.2736V36.8496ZM198.407 36.8496H183.879V13.4576H198.407V17.2336H187.975V23.2496H197.319V26.8656H187.975V33.0736H198.407V36.8496Z" fill="white"/>
</g>
<defs>
<clipPath id="clip0_110_7274">
<rect width="161" height="50" fill="white" transform="translate(65)"/>
</clipPath>
</defs>
</svg>
