<svg width="205" height="50" viewBox="0 0 205 50" fill="none" xmlns="http://www.w3.org/2000/svg">
<path opacity="0.4" d="M6.91626 24.3994V50.0002H0V29.9279L6.91626 24.3994Z" fill="white"/>
<path d="M6.91602 24.3994V50.0002H13.8323V28.6827L6.91602 24.3994Z" fill="white"/>
<path opacity="0.5" d="M20.544 13.9424V49.9997H11.3223V21.5742L20.544 13.9424Z" fill="white"/>
<path d="M20.5449 13.9424V49.9997H29.7666V19.6534L20.5449 13.9424Z" fill="white"/>
<path opacity="0.6" d="M37.5776 0V50H25.1553V11.4186L37.5776 0Z" fill="white"/>
<path d="M37.5781 0V50H50.0004V11.4186L37.5781 0Z" fill="white"/>
<g clip-path="url(#clip0_110_7282)">
<path d="M65.4156 36.6504V14.4744H68.7436V36.6504H65.4156ZM77.1364 36.6504H73.9364V19.4664H76.8164V21.2584L78.6084 19.4664H84.9764L86.3524 20.8744L87.7284 19.4664H95.0244L97.2644 21.6744V36.6504H94.0644V22.4744H87.2804V36.6504H84.0804V22.4744H78.6724L77.1364 23.8504V36.6504ZM105.199 43.1464H101.999V19.4664H104.879V21.2584L106.671 19.4664H113.231L115.471 21.6744V34.4104L113.231 36.6504H105.199V43.1464ZM112.271 22.4744H106.735L105.199 23.8504V33.7064H112.271V22.4744ZM123.386 36.6504H120.186V19.4664H123.066V21.6424L125.274 19.4664H129.242V22.5384H125.21L123.386 24.2664V36.6504ZM135.139 16.3624H131.811V13.3544H135.139V16.3624ZM135.075 36.6504H131.875V19.4664H135.075V36.6504ZM143.074 36.6504H139.874V19.4664H142.754V21.2584L144.546 19.4664H151.394L153.634 21.6744V36.6504H150.402V22.4744H144.61L143.074 23.8504V36.6504ZM166.918 36.6504H161.19L158.95 34.4104V22.1224H156.582V19.4664H158.95V15.9784H162.15V19.4664H166.566V22.1224H162.15V33.6424H166.918V36.6504ZM173.421 16.3624H170.093V13.3544H173.421V16.3624ZM173.357 36.6504H170.157V19.4664H173.357V36.6504ZM182.795 36.6504H179.595V22.1224H176.811V19.4664H179.595V15.2744L181.835 13.0664H187.147V15.7224H182.795V19.4664H186.827V22.1224H182.795V36.6504ZM189.817 37.7384H192.921V40.3624H200.121V35.7224H191.801L189.593 33.5144V19.4664H192.793V32.9064H200.121V19.4664H203.321V40.9384L201.049 43.1464H192.089L189.817 40.9384V37.7384Z" fill="white"/>
</g>
<defs>
<clipPath id="clip0_110_7282">
<rect width="140" height="50" fill="white" transform="translate(65)"/>
</clipPath>
</defs>
</svg>
