<svg width="56" height="73" viewBox="0 0 56 73" fill="none" xmlns="http://www.w3.org/2000/svg">
<g clip-path="url(#clip0_17_8713)">
<path d="M0.217014 20.8616C0.217014 14.1485 5.659 8.70654 12.3721 8.70654H44.0618C50.7748 8.70654 56.217 14.1485 56.217 20.8616V52.5515C56.217 59.2646 50.7748 64.7065 44.0618 64.7065H12.3718C5.659 64.7065 0.216797 59.2646 0.216797 52.5515L0.217014 20.8616Z" fill="#2797CF"/>
<path d="M27.668 48.068C58.6496 29.404 25.2294 49.5815 56.2108 30.9175V53.5925L51.3944 62.5846L27.668 48.068Z" fill="#FFFFFE" fill-opacity="0.4"/>
<path d="M0.216309 52.1333V30.6772L50.1058 61.051L46.2099 63.5731L4.72127 61.1319L0.216309 52.1333Z" fill="#FFFFFE" fill-opacity="0.4"/>
<path opacity="0.1" fill-rule="evenodd" clip-rule="evenodd" d="M0.217014 24.7409V21.6489L28.2166 38.8717L56.219 21.6865V24.7784L28.2168 41.9637L0.217014 24.7409Z" fill="black"/>
<path d="M28.298 38.7238L0.216797 21.6495V20.9564C0.216797 14.1911 5.72064 8.70654 12.5099 8.70654H43.9235C50.7759 8.70654 56.3056 14.2896 56.2157 21.1173L56.2085 21.6495L28.298 38.7238Z" fill="#FFFFFE" fill-opacity="0.4"/>
<path d="M0.354837 19.772L28.2168 36.857L56.0955 19.788L56.1818 20.9664V21.8965L28.2168 39.0175L0.251953 21.8963V20.8581L0.354837 19.772Z" fill="#B1DAEE"/>
<path d="M28.2168 47.6039L0.251953 30.4829V32.6433L46.872 61.1983L48.1417 60.8267L49.1148 60.4134L29.9689 48.6916L56.1818 32.6433V30.4829L28.2168 47.6039Z" fill="#B1DAEE"/>
<path fill-rule="evenodd" clip-rule="evenodd" d="M0.217285 48.7534V52.5516C0.217285 59.2647 5.65927 64.7067 12.3723 64.7067H44.0622C50.7753 64.7067 56.2173 59.2647 56.2173 52.5516V48.7534C56.2173 55.4665 50.7753 60.9085 44.0622 60.9085H12.3723C5.65927 60.9085 0.217285 55.4665 0.217285 48.7534Z" fill="#2797CF"/>
<path fill-rule="evenodd" clip-rule="evenodd" d="M12.3718 8.70654C5.65878 8.70654 0.216797 14.1485 0.216797 20.8616V21.182C0.873169 15.0879 6.0332 10.3438 12.3013 10.3438H44.062C50.775 10.3438 56.217 15.7858 56.217 22.4988V20.8616C56.217 14.1485 50.775 8.70654 44.062 8.70654H12.3718Z" fill="white" fill-opacity="0.3"/>
</g>
<defs>
<clipPath id="clip0_17_8713">
<rect width="56" height="258" fill="white" transform="translate(0 -92.2935)"/>
</clipPath>
</defs>
</svg>
