<svg width="56" height="73" viewBox="0 0 56 73" fill="none" xmlns="http://www.w3.org/2000/svg">
<g clip-path="url(#clip0_17_8724)">
<mask id="mask0_17_8724" style="mask-type:luminance" maskUnits="userSpaceOnUse" x="0" y="8" width="57" height="57">
<path d="M0.0703125 8.70654H56.0703V64.7065H0.0703125V8.70654Z" fill="white"/>
</mask>
<g mask="url(#mask0_17_8724)">
<path d="M0.0705296 20.8616C0.0705296 14.1485 5.51251 8.70654 12.2256 8.70654H43.9153C50.6283 8.70654 56.0703 14.1485 56.0703 20.8616V52.5513C56.0703 59.2643 50.6283 64.7065 43.9153 64.7065H12.2254C5.51251 64.7065 0.0703125 59.2643 0.0703125 52.5515L0.0705296 20.8616Z" fill="#FFFFFE"/>
<path d="M30.9883 8.70654H43.9152C50.6282 8.70654 56.0702 14.1485 56.0702 20.8616V33.7898H36.1976C33.3205 33.7898 30.9883 31.4575 30.9883 28.5805V8.70654Z" fill="#EF5A3C"/>
<path d="M30.9873 8.70654L56.0705 33.7898H34.9872C32.778 33.7898 30.9873 31.9989 30.9873 29.7897V8.70654Z" fill="white"/>
<path d="M32.2883 8.7085L56.0705 32.5015V33.8356L30.9814 8.7085H32.2883Z" fill="#C24228"/>
<path fill-rule="evenodd" clip-rule="evenodd" d="M0.103027 48.8345V52.6325C0.103027 59.3455 5.54501 64.7875 12.2581 64.7875H43.948C50.661 64.7875 56.103 59.3455 56.103 52.6325V48.8345C56.103 55.5475 50.661 60.9895 43.948 60.9895H12.2581C5.54501 60.9895 0.103027 55.5475 0.103027 48.8345Z" fill="#CCCCCB"/>
<path fill-rule="evenodd" clip-rule="evenodd" d="M12.2576 8.7876C5.54452 8.7876 0.102539 14.2296 0.102539 20.9426V21.263C0.758911 15.1694 5.91873 10.4248 12.187 10.4248H43.9475C50.6606 10.4248 56.1025 15.8668 56.1025 22.5799V20.9426C56.1025 14.2296 50.6606 8.7876 43.9475 8.7876H12.2576Z" fill="white" fill-opacity="0.3"/>
<path fill-rule="evenodd" clip-rule="evenodd" d="M30.8978 8.7085V29.8116C30.8978 32.0292 32.6957 33.8271 34.9133 33.8271H56.1518V35.3465H34.9133C31.8565 35.3465 29.3784 32.8684 29.3784 29.8116V8.7085H30.8978Z" fill="#CCCCCB"/>
</g>
</g>
<defs>
<clipPath id="clip0_17_8724">
<rect width="56" height="258" fill="white" transform="translate(0 -92.2935)"/>
</clipPath>
</defs>
</svg>
