<svg width="56" height="73" viewBox="0 0 56 73" fill="none" xmlns="http://www.w3.org/2000/svg">
<g clip-path="url(#clip0_17_8737)">
<mask id="mask0_17_8737" style="mask-type:luminance" maskUnits="userSpaceOnUse" x="0" y="8" width="57" height="57">
<path d="M43.9153 8.70654H12.2254C5.51231 8.70654 0.0703125 14.1485 0.0703125 20.8616V52.5515C0.0703125 59.2645 5.51231 64.7065 12.2254 64.7065H43.9153C50.6283 64.7065 56.0703 59.2645 56.0703 52.5515V20.8616C56.0703 14.1485 50.6283 8.70654 43.9153 8.70654Z" fill="white"/>
</mask>
<g mask="url(#mask0_17_8737)">
<path d="M0.0705296 20.8616C0.0705296 14.1485 5.51251 8.70654 12.2256 8.70654H43.9153C50.6283 8.70654 56.0703 14.1485 56.0703 20.8616V52.5513C56.0703 59.2643 50.6283 64.7065 43.9153 64.7065H12.2254C5.51251 64.7065 0.0703125 59.2643 0.0703125 52.5515L0.0705296 20.8616Z" fill="#00A05E"/>
<path d="M0.0703125 49.8315H55.4869" stroke="#00804B" stroke-width="1.16667" stroke-linecap="round"/>
<path d="M7.39612 31.4566C7.39612 30.6325 6.72801 29.9644 5.90387 29.9644C5.07972 29.9644 4.41162 30.6325 4.41162 31.4566V42.5398C4.41162 43.364 5.07972 44.0321 5.90387 44.0321C6.72801 44.0321 7.39612 43.364 7.39612 42.5398V31.4566Z" stroke="#19C77F" stroke-width="0.651163"/>
<path d="M4.7373 31.4562C4.7373 31.1468 4.86022 30.8501 5.07901 30.6313C5.29781 30.4125 5.59455 30.2896 5.90397 30.2896C6.21339 30.2896 6.51014 30.4125 6.72893 30.6313C6.94772 30.8501 7.07064 31.1468 7.07064 31.4562V42.5394C7.07064 42.8489 6.94772 43.1456 6.72893 43.3644C6.51014 43.5832 6.21339 43.7061 5.90397 43.7061C5.59455 43.7061 5.29781 43.5832 5.07901 43.3644C4.86022 43.1456 4.7373 42.8489 4.7373 42.5394V31.4562Z" fill="black" fill-opacity="0.5"/>
<mask id="mask1_17_8737" style="mask-type:luminance" maskUnits="userSpaceOnUse" x="4" y="30" width="4" height="14">
<path d="M4.7373 31.4562C4.7373 31.1468 4.86022 30.8501 5.07901 30.6313C5.29781 30.4125 5.59455 30.2896 5.90397 30.2896C6.21339 30.2896 6.51014 30.4125 6.72893 30.6313C6.94772 30.8501 7.07064 31.1468 7.07064 31.4562V42.5394C7.07064 42.8489 6.94772 43.1456 6.72893 43.3644C6.51014 43.5832 6.21339 43.7061 5.90397 43.7061C5.59455 43.7061 5.29781 43.5832 5.07901 43.3644C4.86022 43.1456 4.7373 42.8489 4.7373 42.5394V31.4562Z" fill="white"/>
</mask>
<g mask="url(#mask1_17_8737)">
<path d="M4.30322 31.4558C4.30322 31.0312 4.47188 30.624 4.77208 30.3238C5.07228 30.0236 5.47945 29.855 5.904 29.855C6.32855 29.855 6.73571 30.0236 7.03592 30.3238C7.33612 30.624 7.50477 31.0312 7.50477 31.4558H6.63656C6.63656 31.2615 6.55938 31.0751 6.42199 30.9378C6.28461 30.8004 6.09828 30.7232 5.904 30.7232C5.70971 30.7232 5.52338 30.8004 5.386 30.9378C5.24862 31.0751 5.17144 31.2615 5.17144 31.4558H4.30322ZM7.50477 42.539C7.50477 42.9635 7.33612 43.3707 7.03592 43.6709C6.73571 43.9711 6.32855 44.1398 5.904 44.1398C5.47945 44.1398 5.07228 43.9711 4.77208 43.6709C4.47188 43.3707 4.30322 42.9635 4.30322 42.539H5.17144C5.17144 42.7333 5.24862 42.9196 5.386 43.057C5.52338 43.1944 5.70971 43.2715 5.904 43.2715C6.09828 43.2715 6.28461 43.1944 6.42199 43.057C6.55938 42.9196 6.63656 42.7333 6.63656 42.539H7.50477ZM5.904 44.1398C5.47945 44.1398 5.07228 43.9711 4.77208 43.6709C4.47188 43.3707 4.30322 42.9635 4.30322 42.539V31.4558C4.30322 31.0312 4.47188 30.624 4.77208 30.3238C5.07228 30.0236 5.47945 29.855 5.904 29.855V30.7232C5.70971 30.7232 5.52338 30.8004 5.386 30.9378C5.24862 31.0751 5.17144 31.2615 5.17144 31.4558V42.539C5.17144 42.7333 5.24862 42.9196 5.386 43.057C5.52338 43.1944 5.70971 43.2715 5.904 43.2715V44.1398ZM5.904 29.855C6.11421 29.855 6.32237 29.8964 6.51659 29.9768C6.7108 30.0573 6.88727 30.1752 7.03592 30.3238C7.18456 30.4725 7.30247 30.6489 7.38292 30.8432C7.46337 31.0374 7.50477 31.2455 7.50477 31.4558V42.539C7.50477 42.9635 7.33612 43.3707 7.03592 43.6709C6.73571 43.9711 6.32855 44.1398 5.904 44.1398V43.2715C6.09828 43.2715 6.28461 43.1944 6.42199 43.057C6.55938 42.9196 6.63656 42.7333 6.63656 42.539V31.4558C6.63656 31.2615 6.55938 31.0751 6.42199 30.9378C6.28461 30.8004 6.09828 30.7232 5.904 30.7232V29.855Z" fill="#1B271D"/>
</g>
<path d="M12.1168 31.4566C12.1168 30.6325 11.4487 29.9644 10.6246 29.9644C9.80043 29.9644 9.13232 30.6325 9.13232 31.4566V42.5398C9.13232 43.364 9.80043 44.0321 10.6246 44.0321C11.4487 44.0321 12.1168 43.364 12.1168 42.5398V31.4566Z" stroke="#19C77F" stroke-width="0.651163"/>
<path d="M9.45801 31.4562C9.45801 31.1468 9.58092 30.8501 9.79972 30.6313C10.0185 30.4125 10.3153 30.2896 10.6247 30.2896C10.9341 30.2896 11.2308 30.4125 11.4496 30.6313C11.6684 30.8501 11.7913 31.1468 11.7913 31.4562V42.5394C11.7913 42.8489 11.6684 43.1456 11.4496 43.3644C11.2308 43.5832 10.9341 43.7061 10.6247 43.7061C10.3153 43.7061 10.0185 43.5832 9.79972 43.3644C9.58092 43.1456 9.45801 42.8489 9.45801 42.5394V31.4562Z" fill="black" fill-opacity="0.5"/>
<mask id="mask2_17_8737" style="mask-type:luminance" maskUnits="userSpaceOnUse" x="9" y="30" width="3" height="14">
<path d="M9.45801 31.4562C9.45801 31.1468 9.58092 30.8501 9.79972 30.6313C10.0185 30.4125 10.3153 30.2896 10.6247 30.2896C10.9341 30.2896 11.2308 30.4125 11.4496 30.6313C11.6684 30.8501 11.7913 31.1468 11.7913 31.4562V42.5394C11.7913 42.8489 11.6684 43.1456 11.4496 43.3644C11.2308 43.5832 10.9341 43.7061 10.6247 43.7061C10.3153 43.7061 10.0185 43.5832 9.79972 43.3644C9.58092 43.1456 9.45801 42.8489 9.45801 42.5394V31.4562Z" fill="white"/>
</mask>
<g mask="url(#mask2_17_8737)">
<path d="M9.02393 31.4558C9.02393 31.0312 9.19258 30.624 9.49278 30.3238C9.79299 30.0236 10.2001 29.855 10.6247 29.855C11.0493 29.855 11.4564 30.0236 11.7566 30.3238C12.0568 30.624 12.2255 31.0312 12.2255 31.4558H11.3573C11.3573 31.2615 11.2801 31.0751 11.1427 30.9378C11.0053 30.8004 10.819 30.7232 10.6247 30.7232C10.4304 30.7232 10.2441 30.8004 10.1067 30.9378C9.96932 31.0751 9.89214 31.2615 9.89214 31.4558H9.02393ZM12.2255 42.539C12.2255 42.9635 12.0568 43.3707 11.7566 43.6709C11.4564 43.9711 11.0493 44.1398 10.6247 44.1398C10.2001 44.1398 9.79299 43.9711 9.49278 43.6709C9.19258 43.3707 9.02393 42.9635 9.02393 42.539H9.89214C9.89214 42.7333 9.96932 42.9196 10.1067 43.057C10.2441 43.1944 10.4304 43.2715 10.6247 43.2715C10.819 43.2715 11.0053 43.1944 11.1427 43.057C11.2801 42.9196 11.3573 42.7333 11.3573 42.539H12.2255ZM10.6247 44.1398C10.2001 44.1398 9.79299 43.9711 9.49278 43.6709C9.19258 43.3707 9.02393 42.9635 9.02393 42.539V31.4558C9.02393 31.0312 9.19258 30.624 9.49278 30.3238C9.79299 30.0236 10.2001 29.855 10.6247 29.855V30.7232C10.4304 30.7232 10.2441 30.8004 10.1067 30.9378C9.96932 31.0751 9.89214 31.2615 9.89214 31.4558V42.539C9.89214 42.7333 9.96932 42.9196 10.1067 43.057C10.2441 43.1944 10.4304 43.2715 10.6247 43.2715V44.1398ZM10.6247 29.855C11.0493 29.855 11.4564 30.0236 11.7566 30.3238C12.0568 30.624 12.2255 31.0312 12.2255 31.4558V42.539C12.2255 42.9635 12.0568 43.3707 11.7566 43.6709C11.4564 43.9711 11.0493 44.1398 10.6247 44.1398V43.2715C10.819 43.2715 11.0053 43.1944 11.1427 43.057C11.2801 42.9196 11.3573 42.7333 11.3573 42.539V31.4558C11.3573 31.2615 11.2801 31.0751 11.1427 30.9378C11.0053 30.8004 10.819 30.7232 10.6247 30.7232V29.855Z" fill="#1B271D"/>
</g>
<path d="M16.838 31.4566C16.838 30.6325 16.1699 29.9644 15.3458 29.9644C14.5216 29.9644 13.8535 30.6325 13.8535 31.4566V42.5398C13.8535 43.364 14.5216 44.0321 15.3458 44.0321C16.1699 44.0321 16.838 43.364 16.838 42.5398V31.4566Z" stroke="#19C77F" stroke-width="0.651163"/>
<path d="M14.1787 31.4562C14.1787 31.1468 14.3016 30.8501 14.5204 30.6313C14.7392 30.4125 15.036 30.2896 15.3454 30.2896C15.6548 30.2896 15.9515 30.4125 16.1703 30.6313C16.3891 30.8501 16.512 31.1468 16.512 31.4562V42.5394C16.512 42.8489 16.3891 43.1456 16.1703 43.3644C15.9515 43.5832 15.6548 43.7061 15.3454 43.7061C15.036 43.7061 14.7392 43.5832 14.5204 43.3644C14.3016 43.1456 14.1787 42.8489 14.1787 42.5394V31.4562Z" fill="black" fill-opacity="0.5"/>
<mask id="mask3_17_8737" style="mask-type:luminance" maskUnits="userSpaceOnUse" x="14" y="30" width="3" height="14">
<path d="M14.1787 31.4562C14.1787 31.1468 14.3016 30.8501 14.5204 30.6313C14.7392 30.4125 15.036 30.2896 15.3454 30.2896C15.6548 30.2896 15.9515 30.4125 16.1703 30.6313C16.3891 30.8501 16.512 31.1468 16.512 31.4562V42.5394C16.512 42.8489 16.3891 43.1456 16.1703 43.3644C15.9515 43.5832 15.6548 43.7061 15.3454 43.7061C15.036 43.7061 14.7392 43.5832 14.5204 43.3644C14.3016 43.1456 14.1787 42.8489 14.1787 42.5394V31.4562Z" fill="white"/>
</mask>
<g mask="url(#mask3_17_8737)">
<path d="M13.7446 31.4558C13.7446 31.0312 13.9133 30.624 14.2135 30.3238C14.5137 30.0236 14.9209 29.855 15.3454 29.855C15.77 29.855 16.1771 30.0236 16.4773 30.3238C16.7775 30.624 16.9462 31.0312 16.9462 31.4558H16.078C16.078 31.2615 16.0008 31.0751 15.8634 30.9378C15.726 30.8004 15.5397 30.7232 15.3454 30.7232C15.1511 30.7232 14.9648 30.8004 14.8274 30.9378C14.69 31.0751 14.6128 31.2615 14.6128 31.4558H13.7446ZM16.9462 42.539C16.9462 42.9635 16.7775 43.3707 16.4773 43.6709C16.1771 43.9711 15.77 44.1398 15.3454 44.1398C14.9209 44.1398 14.5137 43.9711 14.2135 43.6709C13.9133 43.3707 13.7446 42.9635 13.7446 42.539H14.6128C14.6128 42.7333 14.69 42.9196 14.8274 43.057C14.9648 43.1944 15.1511 43.2715 15.3454 43.2715C15.5397 43.2715 15.726 43.1944 15.8634 43.057C16.0008 42.9196 16.078 42.7333 16.078 42.539H16.9462ZM15.3454 44.1398C14.9209 44.1398 14.5137 43.9711 14.2135 43.6709C13.9133 43.3707 13.7446 42.9635 13.7446 42.539V31.4558C13.7446 31.0312 13.9133 30.624 14.2135 30.3238C14.5137 30.0236 14.9209 29.855 15.3454 29.855V30.7232C15.1511 30.7232 14.9648 30.8004 14.8274 30.9378C14.69 31.0751 14.6128 31.2615 14.6128 31.4558V42.539C14.6128 42.7333 14.69 42.9196 14.8274 43.057C14.9648 43.1944 15.1511 43.2715 15.3454 43.2715V44.1398ZM15.3454 29.855C15.77 29.855 16.1771 30.0236 16.4773 30.3238C16.7775 30.624 16.9462 31.0312 16.9462 31.4558V42.539C16.9462 42.9635 16.7775 43.3707 16.4773 43.6709C16.1771 43.9711 15.77 44.1398 15.3454 44.1398V43.2715C15.5397 43.2715 15.726 43.1944 15.8634 43.057C16.0008 42.9196 16.078 42.7333 16.078 42.539V31.4558C16.078 31.2615 16.0008 31.0751 15.8634 30.9378C15.726 30.8004 15.5397 30.7232 15.3454 30.7232V29.855Z" fill="#1B271D"/>
</g>
<path d="M21.5587 31.4566C21.5587 30.6325 20.8906 29.9644 20.0665 29.9644C19.2423 29.9644 18.5742 30.6325 18.5742 31.4566V42.5398C18.5742 43.364 19.2423 44.0321 20.0665 44.0321C20.8906 44.0321 21.5587 43.364 21.5587 42.5398V31.4566Z" stroke="#19C77F" stroke-width="0.651163"/>
<path d="M18.8999 31.4562C18.8999 31.1468 19.0228 30.8501 19.2416 30.6313C19.4604 30.4125 19.7571 30.2896 20.0666 30.2896C20.376 30.2896 20.6727 30.4125 20.8915 30.6313C21.1103 30.8501 21.2332 31.1468 21.2332 31.4562V42.5394C21.2332 42.8489 21.1103 43.1456 20.8915 43.3644C20.6727 43.5832 20.376 43.7061 20.0666 43.7061C19.7571 43.7061 19.4604 43.5832 19.2416 43.3644C19.0228 43.1456 18.8999 42.8489 18.8999 42.5394V31.4562Z" fill="black" fill-opacity="0.5"/>
<mask id="mask4_17_8737" style="mask-type:luminance" maskUnits="userSpaceOnUse" x="18" y="30" width="4" height="14">
<path d="M18.8999 31.4562C18.8999 31.1468 19.0228 30.8501 19.2416 30.6313C19.4604 30.4125 19.7571 30.2896 20.0666 30.2896C20.376 30.2896 20.6727 30.4125 20.8915 30.6313C21.1103 30.8501 21.2332 31.1468 21.2332 31.4562V42.5394C21.2332 42.8489 21.1103 43.1456 20.8915 43.3644C20.6727 43.5832 20.376 43.7061 20.0666 43.7061C19.7571 43.7061 19.4604 43.5832 19.2416 43.3644C19.0228 43.1456 18.8999 42.8489 18.8999 42.5394V31.4562Z" fill="white"/>
</mask>
<g mask="url(#mask4_17_8737)">
<path d="M18.4658 31.4558C18.4658 31.0312 18.6345 30.624 18.9347 30.3238C19.2349 30.0236 19.642 29.855 20.0666 29.855C20.4911 29.855 20.8983 30.0236 21.1985 30.3238C21.4987 30.624 21.6674 31.0312 21.6674 31.4558H20.7992C20.7992 31.2615 20.722 31.0751 20.5846 30.9378C20.4472 30.8004 20.2609 30.7232 20.0666 30.7232C19.8723 30.7232 19.686 30.8004 19.5486 30.9378C19.4112 31.0751 19.334 31.2615 19.334 31.4558H18.4658ZM21.6674 42.539C21.6674 42.9635 21.4987 43.3707 21.1985 43.6709C20.8983 43.9711 20.4911 44.1398 20.0666 44.1398C19.642 44.1398 19.2349 43.9711 18.9347 43.6709C18.6345 43.3707 18.4658 42.9635 18.4658 42.539H19.334C19.334 42.7333 19.4112 42.9196 19.5486 43.057C19.686 43.1944 19.8723 43.2715 20.0666 43.2715C20.2609 43.2715 20.4472 43.1944 20.5846 43.057C20.722 42.9196 20.7992 42.7333 20.7992 42.539H21.6674ZM20.0666 44.1398C19.642 44.1398 19.2349 43.9711 18.9347 43.6709C18.6345 43.3707 18.4658 42.9635 18.4658 42.539V31.4558C18.4658 31.0312 18.6345 30.624 18.9347 30.3238C19.2349 30.0236 19.642 29.855 20.0666 29.855V30.7232C19.8723 30.7232 19.686 30.8004 19.5486 30.9378C19.4112 31.0751 19.334 31.2615 19.334 31.4558V42.539C19.334 42.7333 19.4112 42.9196 19.5486 43.057C19.686 43.1944 19.8723 43.2715 20.0666 43.2715V44.1398ZM20.0666 29.855C20.4911 29.855 20.8983 30.0236 21.1985 30.3238C21.4987 30.624 21.6674 31.0312 21.6674 31.4558V42.539C21.6674 42.9635 21.4987 43.3707 21.1985 43.6709C20.8983 43.9711 20.4911 44.1398 20.0666 44.1398V43.2715C20.2609 43.2715 20.4472 43.1944 20.5846 43.057C20.722 42.9196 20.7992 42.7333 20.7992 42.539V31.4558C20.7992 31.2615 20.722 31.0751 20.5846 30.9378C20.4472 30.8004 20.2609 30.7232 20.0666 30.7232V29.855Z" fill="#1B271D"/>
</g>
<path d="M49.9456 36.9982C49.9456 34.4209 47.8563 32.3315 45.279 32.3315C42.7016 32.3315 40.6123 34.4209 40.6123 36.9982C40.6123 39.5755 42.7016 41.6649 45.279 41.6649C47.8563 41.6649 49.9456 39.5755 49.9456 36.9982Z" fill="#303030" stroke="#19C77F" stroke-width="0.583442"/>
<path d="M42.6538 36.9984C42.6538 35.5487 43.8292 34.3735 45.2789 34.3735C46.7286 34.3735 47.9039 35.5487 47.9039 36.9984C47.9039 38.4481 46.7286 39.6234 45.2789 39.6234C43.8292 39.6234 42.6538 38.4481 42.6538 36.9984Z" fill="#83FF49"/>
<mask id="mask5_17_8737" style="mask-type:luminance" maskUnits="userSpaceOnUse" x="42" y="34" width="6" height="6">
<path d="M42.6538 36.9984C42.6538 35.5487 43.8292 34.3735 45.2789 34.3735C46.7286 34.3735 47.9039 35.5487 47.9039 36.9984C47.9039 38.4481 46.7286 39.6234 45.2789 39.6234C43.8292 39.6234 42.6538 38.4481 42.6538 36.9984Z" fill="white"/>
</mask>
<g mask="url(#mask5_17_8737)">
<path d="M42.2197 36.9979C42.2197 35.3084 43.5893 33.939 45.2789 33.939C46.9684 33.939 48.3381 35.3084 48.3381 36.9979H47.4698C47.4698 35.7881 46.489 34.8072 45.2789 34.8072C44.0688 34.8072 43.0879 35.7881 43.0879 36.9979H42.2197ZM48.3381 36.9979C48.3381 38.6875 46.9684 40.0571 45.2789 40.0571C43.5893 40.0571 42.2197 38.6875 42.2197 36.9979H43.0879C43.0879 38.208 44.0688 39.1889 45.2789 39.1889C46.489 39.1889 47.4698 38.208 47.4698 36.9979H48.3381ZM45.2789 40.0571C43.5893 40.0571 42.2197 38.6875 42.2197 36.9979C42.2197 35.3084 43.5893 33.939 45.2789 33.939V34.8072C44.0688 34.8072 43.0879 35.7881 43.0879 36.9979C43.0879 38.208 44.0688 39.1889 45.2789 39.1889V40.0571ZM45.2789 33.939C46.9684 33.939 48.3381 35.3084 48.3381 36.9979C48.3381 38.6875 46.9684 40.0571 45.2789 40.0571V39.1889C46.489 39.1889 47.4698 38.208 47.4698 36.9979C47.4698 35.7881 46.489 34.8072 45.2789 34.8072V33.939Z" fill="#00A05E"/>
</g>
<path d="M0.0703125 23.8999H55.4869" stroke="#00804B" stroke-width="1.16667" stroke-linecap="round"/>
<path fill-rule="evenodd" clip-rule="evenodd" d="M0.103027 48.8345V52.6325C0.103027 59.3455 5.54501 64.7875 12.2581 64.7875H43.948C50.661 64.7875 56.103 59.3455 56.103 52.6325V48.8345C56.103 55.5475 50.661 60.9895 43.948 60.9895H12.2581C5.54501 60.9895 0.103027 55.5475 0.103027 48.8345Z" fill="black" fill-opacity="0.2"/>
<path fill-rule="evenodd" clip-rule="evenodd" d="M12.2576 8.7876C5.54452 8.7876 0.102539 14.2296 0.102539 20.9426V21.263C0.758911 15.1694 5.91873 10.4248 12.187 10.4248H43.9475C50.6606 10.4248 56.1025 15.8668 56.1025 22.5799V20.9426C56.1025 14.2296 50.6606 8.7876 43.9475 8.7876H12.2576Z" fill="white" fill-opacity="0.3"/>
</g>
</g>
<defs>
<clipPath id="clip0_17_8737">
<rect width="56" height="258" fill="white" transform="translate(0 -92.2935)"/>
</clipPath>
</defs>
</svg>
