<svg width="37" height="37" viewBox="0 0 37 37" fill="none" xmlns="http://www.w3.org/2000/svg">
<path fill-rule="evenodd" clip-rule="evenodd" d="M18.5131 34.9997C25.9955 34.9997 32.6308 30.0585 34.7484 22.8585C28.8595 23.84 22.5103 21.4006 18.5131 17.0703C14.516 21.4006 8.16674 23.84 2.27783 22.8585C4.53666 30.1997 11.0308 34.9997 18.5131 34.9997Z" fill="white"/>
<path opacity="0.5" fill-rule="evenodd" clip-rule="evenodd" d="M35.4545 19.3291C35.4545 11.4147 31.2455 4.15626 23.3133 1.82324C24.0418 6.1942 22.7858 10.9613 20.4897 14.6703C24.2853 18.6466 30.0627 20.6771 35.4545 19.3291Z" fill="white"/>
<path opacity="0.5" fill-rule="evenodd" clip-rule="evenodd" d="M16.3958 14.5291C14.0428 10.9091 12.8535 6.1361 13.5723 1.82324C5.70419 4.18366 1.57227 11.4817 1.57227 19.3291C6.93932 20.6709 12.7776 18.6901 16.3958 14.5291Z" fill="white"/>
<path fill-rule="evenodd" clip-rule="evenodd" d="M18.5125 11.5642C19.6419 9.4466 20.2066 7.0466 20.2066 4.50542C20.2066 3.37601 20.0654 2.2466 19.7831 1.11719C19.3595 1.11719 18.936 1.11719 18.5125 1.11719C18.0889 1.11719 17.6654 1.11719 17.2419 1.11719C16.9595 2.2466 16.8184 3.37601 16.8184 4.50542C16.8184 7.0466 17.5242 9.4466 18.5125 11.5642Z" fill="white"/>
</svg>
