<svg width="79" height="37" viewBox="0 0 79 37" fill="none" xmlns="http://www.w3.org/2000/svg">
<g clip-path="url(#clip0_160_7499)">
<path d="M9.47047 12.2681C6.23407 12.2681 4.38151 14.6117 4.38151 18.1383C4.38151 21.7764 6.47959 23.7629 9.49278 23.7629C12.3274 23.7629 14.0461 22.2005 14.0461 19.5891V19.5221H9.11335V16.9999H16.7021V26.1735H14.2916L14.113 24.2986C13.2202 25.5485 11.3677 26.419 9.15799 26.419C4.58239 26.419 1.39062 23.0933 1.39062 18.0713C1.39062 13.1163 4.62703 9.5897 9.53743 9.5897C13.2649 9.5897 16.1441 11.7547 16.6129 15.0804H13.5997C13.0863 13.1609 11.4346 12.2681 9.47047 12.2681Z" fill="white"/>
<path d="M26.3048 15.1027V17.6249H25.3004C23.3362 17.6249 22.1086 18.6739 22.1086 20.8167V26.1735H19.3856V15.1697H21.9524L22.1086 16.7767C22.5774 15.6831 23.6264 14.9465 25.0995 14.9465C25.479 14.9465 25.8584 14.9911 26.3048 15.1027Z" fill="white"/>
<path d="M30.993 26.4636C28.6494 26.4636 27.221 25.1021 27.221 23.0263C27.221 20.9952 28.6941 19.723 31.3055 19.5221L34.6089 19.2766V19.0311C34.6089 17.5356 33.7161 16.933 32.3322 16.933C30.7252 16.933 29.8324 17.6026 29.8324 18.7632H27.5111C27.5111 16.375 29.4753 14.8126 32.4662 14.8126C35.4347 14.8126 37.265 16.4196 37.265 19.4775V26.1735H34.8767L34.6758 24.5441C34.2071 25.6824 32.7117 26.4636 30.993 26.4636ZM31.8858 24.4102C33.5598 24.4102 34.6312 23.4058 34.6312 21.7095V21.1291L32.3322 21.3077C30.6359 21.4639 29.9886 22.0219 29.9886 22.9147C29.9886 23.9191 30.6582 24.4102 31.8858 24.4102Z" fill="white"/>
<path d="M39.9401 31.2847V15.1474H42.4622L42.6408 16.8214C43.3104 15.5491 44.7612 14.8126 46.4352 14.8126C49.5377 14.8126 51.5911 17.0669 51.5911 20.5265C51.5911 23.9638 49.7162 26.4636 46.4352 26.4636C44.7835 26.4636 43.355 25.8163 42.6631 24.7003V31.2847H39.9401ZM42.6854 20.6604C42.6854 22.6469 43.913 24.0084 45.7879 24.0084C47.7074 24.0084 48.8457 22.6246 48.8457 20.6604C48.8457 18.6963 47.7074 17.2901 45.7879 17.2901C43.913 17.2901 42.6854 18.6739 42.6854 20.6604Z" fill="white"/>
<path d="M56.4823 26.1735H53.7593V9.56738H56.5046V16.5759C57.1966 15.5045 58.4911 14.8126 60.0758 14.8126C62.7989 14.8126 64.2273 16.5312 64.2273 19.3882V26.1735H61.5043V20.0355C61.5043 18.1829 60.5892 17.2901 59.2054 17.2901C57.4867 17.2901 56.4823 18.4954 56.4823 20.1471V26.1735Z" fill="white"/>
<path d="M66.2555 20.6381C66.2555 17.2008 68.733 14.8349 72.148 14.8349C75.5629 14.8349 78.0405 17.2008 78.0405 20.6381C78.0405 24.0754 75.5629 26.4413 72.148 26.4413C68.733 26.4413 66.2555 24.0754 66.2555 20.6381ZM68.9785 20.6381C68.9785 22.6469 70.2731 24.0084 72.148 24.0084C74.0229 24.0084 75.3174 22.6469 75.3174 20.6381C75.3174 18.6293 74.0229 17.2678 72.148 17.2678C70.2731 17.2678 68.9785 18.6293 68.9785 20.6381Z" fill="white"/>
</g>
<defs>
<clipPath id="clip0_160_7499">
<rect width="77.76" height="36" fill="white" transform="translate(0.52002 0.0371094)"/>
</clipPath>
</defs>
</svg>
