<svg width="16" height="17" viewBox="0 0 16 17" fill="none" xmlns="http://www.w3.org/2000/svg">
<path d="M6.5 3.46387H3.5C3.23478 3.46387 2.98043 3.56922 2.79289 3.75676C2.60536 3.9443 2.5 4.19865 2.5 4.46387V7.46387C2.5 7.72908 2.60536 7.98344 2.79289 8.17097C2.98043 8.35851 3.23478 8.46387 3.5 8.46387H6.5C6.76522 8.46387 7.01957 8.35851 7.20711 8.17097C7.39464 7.98344 7.5 7.72908 7.5 7.46387V4.46387C7.5 4.19865 7.39464 3.9443 7.20711 3.75676C7.01957 3.56922 6.76522 3.46387 6.5 3.46387ZM6.5 7.46387H3.5V4.46387H6.5V7.46387ZM12.5 3.46387H9.5C9.23478 3.46387 8.98043 3.56922 8.79289 3.75676C8.60536 3.9443 8.5 4.19865 8.5 4.46387V7.46387C8.5 7.72908 8.60536 7.98344 8.79289 8.17097C8.98043 8.35851 9.23478 8.46387 9.5 8.46387H12.5C12.7652 8.46387 13.0196 8.35851 13.2071 8.17097C13.3946 7.98344 13.5 7.72908 13.5 7.46387V4.46387C13.5 4.19865 13.3946 3.9443 13.2071 3.75676C13.0196 3.56922 12.7652 3.46387 12.5 3.46387ZM12.5 7.46387H9.5V4.46387H12.5V7.46387ZM6.5 9.46387H3.5C3.23478 9.46387 2.98043 9.56922 2.79289 9.75676C2.60536 9.9443 2.5 10.1987 2.5 10.4639V13.4639C2.5 13.7291 2.60536 13.9834 2.79289 14.171C2.98043 14.3585 3.23478 14.4639 3.5 14.4639H6.5C6.76522 14.4639 7.01957 14.3585 7.20711 14.171C7.39464 13.9834 7.5 13.7291 7.5 13.4639V10.4639C7.5 10.1987 7.39464 9.9443 7.20711 9.75676C7.01957 9.56922 6.76522 9.46387 6.5 9.46387ZM6.5 13.4639H3.5V10.4639H6.5V13.4639ZM12.5 9.46387H9.5C9.23478 9.46387 8.98043 9.56922 8.79289 9.75676C8.60536 9.9443 8.5 10.1987 8.5 10.4639V13.4639C8.5 13.7291 8.60536 13.9834 8.79289 14.171C8.98043 14.3585 9.23478 14.4639 9.5 14.4639H12.5C12.7652 14.4639 13.0196 14.3585 13.2071 14.171C13.3946 13.9834 13.5 13.7291 13.5 13.4639V10.4639C13.5 10.1987 13.3946 9.9443 13.2071 9.75676C13.0196 9.56922 12.7652 9.46387 12.5 9.46387ZM12.5 13.4639H9.5V10.4639H12.5V13.4639Z" fill="#ABABAB"/>
</svg>
