<svg width="40" height="41" viewBox="0 0 40 41" fill="none" xmlns="http://www.w3.org/2000/svg">
<g clip-path="url(#clip0_1_1960)">
<path d="M0.153564 9.11686C0.153564 4.3587 4.01081 0.501465 8.76896 0.501465H31.2304C35.9886 0.501465 39.8459 4.35872 39.8459 9.11687V18.2803V31.5783C39.8459 36.3365 35.9886 40.1937 31.2304 40.1937H8.76896C4.01081 40.1937 0.153564 36.3365 0.153564 31.5783V9.11686Z" fill="#2797CF"/>
<path d="M19.6108 28.4008C41.5704 15.1719 17.8824 29.4736 39.8418 16.2446V32.3165L36.4279 38.69L19.6108 28.4008Z" fill="#FFFFFE" fill-opacity="0.4"/>
<path d="M0.153326 31.2826L0.15332 16.0747L35.5145 37.6033L32.7532 39.391L3.34646 37.6607L0.153326 31.2826Z" fill="#FFFFFE" fill-opacity="0.4"/>
<path opacity="0.1" fill-rule="evenodd" clip-rule="evenodd" d="M0.153815 11.8668L0.153809 9.67529L19.9998 21.8826L39.8476 9.7018V11.8934L19.9999 24.0742L0.153815 11.8668Z" fill="black"/>
<path d="M20.0573 21.7774L0.153564 9.67529V9.18411C0.153564 4.38881 4.05467 0.501466 8.86691 0.501466L31.1326 0.501465C35.9895 0.501467 39.9089 4.45861 39.8452 9.29804L39.8401 9.67529L20.0573 21.7774Z" fill="#FFFFFE" fill-opacity="0.4"/>
<path d="M0.251368 8.34424L19.9996 20.4538L39.7598 8.35555L39.821 9.19073V9.8499L19.9996 21.9852L0.178467 9.8499V9.11392L0.251368 8.34424Z" fill="#B1DAEE"/>
<path d="M19.9996 28.0722L0.178467 15.937V17.4682L33.2223 37.7078L34.1223 37.4444L34.8119 37.1515L21.2415 28.8432L39.821 17.4682V15.937L19.9996 28.0722Z" fill="#B1DAEE"/>
<path fill-rule="evenodd" clip-rule="evenodd" d="M0.153809 28.8862V31.5784C0.153809 36.3365 4.01104 40.1938 8.7692 40.1938H31.2307C35.9889 40.1938 39.8461 36.3365 39.8461 31.5784V28.8862C39.8461 33.6444 35.9889 37.5016 31.2307 37.5016H8.7692C4.01104 37.5016 0.153809 33.6444 0.153809 28.8862Z" fill="#2797CF"/>
<path fill-rule="evenodd" clip-rule="evenodd" d="M8.76895 0.501465C4.01081 0.501465 0.153564 4.35871 0.153564 9.11685V9.34391C0.618861 5.02476 4.2762 1.66188 8.71898 1.66188H31.2305C35.9887 1.66188 39.8459 5.51913 39.8459 10.2773V9.11685C39.8459 4.35871 35.9887 0.501465 31.2305 0.501465H8.76895Z" fill="white" fill-opacity="0.3"/>
</g>
<defs>
<clipPath id="clip0_1_1960">
<rect width="40" height="39.6923" fill="white" transform="translate(0 0.501465)"/>
</clipPath>
</defs>
</svg>
