<svg width="189" height="50" viewBox="0 0 189 50" fill="none" xmlns="http://www.w3.org/2000/svg">
<path d="M17.5 12C17.5 10.8954 18.3954 10 19.5 10H30.5C31.6046 10 32.5 10.8954 32.5 12V38C32.5 39.1046 31.6046 40 30.5 40H19.5C18.3954 40 17.5 39.1046 17.5 38V12Z" fill="white"/>
<path fill-rule="evenodd" clip-rule="evenodd" d="M5 0H45C47.7614 0 50 2.23858 50 5V45C50 47.7614 47.7614 50 45 50H5C2.23858 50 0 47.7614 0 45V5C0 2.23858 2.23858 0 5 0ZM25 47C37.1503 47 47 37.1503 47 25C47 12.8497 37.1503 3 25 3C12.8497 3 3 12.8497 3 25C3 37.1503 12.8497 47 25 47Z" fill="white"/>
<g clip-path="url(#clip0_110_7268)">
<path d="M79.02 36.2998H64.98V32.4298H69.6V17.6698H64.98V13.7998H79.02V17.6698H74.4V32.4298H79.02V36.2998ZM89.9883 32.5498C92.1183 32.5498 94.4583 32.0398 96.0483 31.3798L97.0083 35.3998C94.5483 36.3298 92.5683 36.7498 89.9883 36.7498C85.4283 36.7498 82.9683 34.5298 82.9683 30.4498V19.6498C82.9683 15.5698 85.4283 13.3498 89.9883 13.3498C92.5683 13.3498 94.5483 13.7698 97.0083 14.6998L96.0483 18.7198C94.4583 18.0598 92.1183 17.5498 89.9883 17.5498C88.3083 17.5498 87.7683 18.2098 87.7683 20.2198V29.8798C87.7683 31.8898 88.3083 32.5498 89.9883 32.5498ZM107.977 36.7498C103.417 36.7498 100.957 34.5298 100.957 30.4498V19.6498C100.957 15.5698 103.417 13.3498 107.977 13.3498C112.537 13.3498 114.997 15.5698 114.997 19.6498V30.4498C114.997 34.5298 112.537 36.7498 107.977 36.7498ZM107.977 17.5498C106.297 17.5498 105.757 18.2098 105.757 20.2198V29.8798C105.757 31.8898 106.297 32.5498 107.977 32.5498C109.657 32.5498 110.197 31.8898 110.197 29.8798V20.2198C110.197 18.2098 109.657 17.5498 107.977 17.5498ZM128.635 36.2998L123.385 23.1298L123.595 36.2998H119.395V13.7998H123.295L128.545 26.9698L128.335 13.7998H132.535V36.2998H128.635ZM150.973 36.2998H136.933V32.4298H141.553V17.6698H136.933V13.7998H150.973V17.6698H146.353V32.4298H150.973V36.2998ZM168.361 32.1298V36.2998H155.521V32.5498L163.261 17.9698H155.521V13.7998H168.361V17.5498L160.621 32.1298H168.361ZM173.81 36.2998V13.7998H186.05V17.6698H178.61V22.4998H185.75V26.3698H178.61V32.4298H186.05V36.2998H173.81Z" fill="white"/>
</g>
<defs>
<clipPath id="clip0_110_7268">
<rect width="124" height="50" fill="white" transform="translate(65)"/>
</clipPath>
</defs>
</svg>
