<svg width="160" height="50" viewBox="0 0 160 50" fill="none" xmlns="http://www.w3.org/2000/svg">
<path d="M33.3444 14.3235C42.1165 14.3841 49.3401 21.7222 49.2189 30.4539C49.1045 39.1519 41.9078 46.2678 33.2165 46.288C24.4916 46.3082 17.2074 38.9634 17.268 30.2183C17.3285 21.3856 24.532 14.2697 33.3444 14.3235ZM45.3951 30.3192C45.4085 23.5332 39.9151 18.0263 33.1627 18.0532C26.5382 18.0801 21.0851 23.5534 21.0178 30.2452C20.9437 36.8495 26.4776 42.4439 33.0886 42.4641C39.9487 42.491 45.3816 37.1322 45.3951 30.3192Z" fill="white"/>
<path d="M23.1387 48.8601C14.0502 46.901 7.04198 37.6779 6.75923 27.9499C6.46301 17.8718 13.3298 8.56115 23.0848 5.80095C32.0184 3.27638 42.9111 6.92523 46.735 13.8594C36.5452 4.37612 20.4371 5.72786 12.9125 17.8112C7.29107 26.8391 8.71156 41.6701 23.1387 48.8601Z" fill="white"/>
<path d="M19.4329 50C9.07214 47.7667 1.08285 37.2524 0.760517 26.1626C0.422833 14.6737 8.25095 4.05968 19.3715 0.91308C29.5557 -1.96491 41.9733 2.19474 46.3325 10.0996C34.7162 -0.71122 16.3531 0.829748 7.77513 14.6046C1.36681 24.8963 2.98616 41.8035 19.4329 50Z" fill="white"/>
<path d="M46.3648 17.394C36.2127 8.38628 23.9129 12.1698 18.6686 19.4742C15.2621 24.2271 14.2724 29.458 15.7468 35.066C17.2009 40.5796 20.8094 44.417 26.3635 47.1772C18.8234 45.8577 12.751 38.3849 12.0441 30.2053C11.3237 21.7968 16.7903 13.5229 24.9497 10.682C32.8062 7.94196 42.0158 10.7897 46.3648 17.394Z" fill="white"/>
<path d="M33.243 36.3991C36.6079 36.3991 39.3357 33.6714 39.3357 30.3065C39.3357 26.9416 36.6079 24.2139 33.243 24.2139C29.8782 24.2139 27.1504 26.9416 27.1504 30.3065C27.1504 33.6714 29.8782 36.3991 33.243 36.3991Z" fill="white"/>
<g clip-path="url(#clip0_110_7292)">
<path d="M74.7176 36.7404C68.1556 36.7404 65.2996 33.7144 65.2996 29.3284V28.7504H68.9036V29.1244C68.9036 31.9464 70.0936 33.3744 74.8536 33.3744C78.2196 33.3744 79.4436 32.4564 79.4436 30.3484C79.4436 28.2744 78.7636 27.5264 75.2616 26.8124L71.3856 26.0304C67.4756 25.2824 65.3676 23.3784 65.3676 19.7744C65.3676 16.4084 67.9856 13.2804 73.8676 13.2804C80.1576 13.2804 82.6736 16.8164 82.6736 20.8624V21.2704H79.0696V20.8964C79.0696 18.1084 77.8456 16.6464 73.7656 16.6464C70.3996 16.6464 69.0396 17.5984 69.0396 19.6044C69.0396 21.6784 69.9576 22.2564 73.0856 22.9364L76.9616 23.7524C81.2456 24.6364 83.1156 26.7784 83.1156 30.2124C83.1156 33.7824 80.5316 36.7404 74.7176 36.7404ZM89.3551 17.3604H85.7171L85.6831 13.6204H89.3551V17.3604ZM89.3891 36.4004H85.7171V19.4004H89.3891V36.4004ZM99.157 34.8024C94.499 34.8024 91.915 31.7424 91.915 26.9824C91.915 22.2224 94.533 19.1624 99.293 19.1624C102.013 19.1624 104.121 20.3184 104.937 22.2904H105.073V19.5024H108.439V35.1764C108.439 40.1744 105.515 42.5204 100.585 42.5204C95.791 42.5204 92.799 40.2424 92.799 36.1624H96.437C96.437 38.4744 97.287 39.2564 100.687 39.2564C103.985 39.2564 104.801 38.3044 104.801 35.1764V31.8104H104.665C103.883 33.4424 101.911 34.8024 99.157 34.8024ZM95.587 26.9824C95.587 30.4504 97.015 31.6744 100.211 31.6744C102.965 31.6744 104.801 30.3484 104.801 27.4924V26.4384C104.801 23.6164 102.965 22.2904 100.143 22.2904C96.981 22.2904 95.587 23.5144 95.587 26.9824ZM115.724 36.4004H112.052V19.5024H115.418V22.6644H115.554C116.336 20.8624 118.138 19.1624 121.436 19.1624C125.822 19.1624 127.794 21.9504 127.794 25.7924V36.4004H124.122V26.6084C124.122 23.5824 123.17 22.3244 120.076 22.3244C117.084 22.3244 115.724 23.4804 115.724 26.6424V36.4004ZM138.757 36.7404C133.181 36.7404 130.563 33.2044 130.563 27.9344C130.563 22.6984 133.691 19.1624 138.723 19.1624C143.279 19.1624 146.475 21.8824 146.475 26.5064C146.475 27.3904 146.373 28.3084 146.271 28.8184H133.997C134.133 31.9124 135.255 33.4764 138.791 33.4764C141.613 33.4764 142.701 32.5244 142.701 30.9944V30.7224H146.339V31.0284C146.339 34.4964 143.313 36.7404 138.757 36.7404ZM138.655 22.2564C135.459 22.2564 134.235 23.7524 134.031 26.3704H142.973C143.109 23.4804 141.545 22.2564 138.655 22.2564ZM156.312 36.4004C152.538 36.4004 150.566 35.0064 150.566 31.1984V22.5624H147.744V19.5024H150.634L151.416 15.3204H154.238V19.5024H159.338V22.5624H154.238V31.0284C154.238 32.7964 154.986 33.1024 157.264 33.1024H159.338V36.0944C158.624 36.2644 157.468 36.4004 156.312 36.4004Z" fill="white"/>
</g>
<defs>
<clipPath id="clip0_110_7292">
<rect width="95" height="50" fill="white" transform="translate(65)"/>
</clipPath>
</defs>
</svg>
