<svg width="192" height="50" viewBox="0 0 192 50" fill="none" xmlns="http://www.w3.org/2000/svg">
<path d="M36.6797 50L25.29 38.6104L39.3828 10.6182L11.1973 24.5176L0 13.3203L50 0L36.6797 50Z" fill="white"/>
<path opacity="0.5" fill-rule="evenodd" clip-rule="evenodd" d="M39.3826 10.6182L25.2899 38.6104H11.1973V24.5178L39.3826 10.6182Z" fill="white"/>
<g clip-path="url(#clip0_110_7224)">
<path d="M76.32 36.6838C74.7627 36.6838 73.312 36.4065 71.968 35.8518C70.6453 35.2758 69.4827 34.4865 68.48 33.4838C67.4773 32.4811 66.688 31.3078 66.112 29.9638C65.5573 28.5985 65.28 27.1265 65.28 25.5478C65.28 23.9905 65.5573 22.5505 66.112 21.2278C66.688 19.8838 67.4773 18.7105 68.48 17.7078C69.4827 16.7051 70.6453 15.9265 71.968 15.3718C73.312 14.7958 74.7627 14.5078 76.32 14.5078C77.8773 14.5078 79.3173 14.7958 80.64 15.3718C81.9627 15.9265 83.1253 16.7051 84.128 17.7078C85.1307 18.7105 85.9093 19.8838 86.464 21.2278C87.0187 22.5505 87.296 23.9905 87.296 25.5478C87.296 27.1265 87.0187 28.5985 86.464 29.9638C85.9093 31.3078 85.1307 32.4811 84.128 33.4838C83.1253 34.4865 81.9627 35.2758 80.64 35.8518C79.3173 36.4065 77.8773 36.6838 76.32 36.6838ZM76.32 33.5798C77.3653 33.5798 78.3467 33.3771 79.264 32.9718C80.2027 32.5451 81.024 31.9691 81.728 31.2438C82.432 30.5185 82.976 29.6758 83.36 28.7158C83.744 27.7345 83.936 26.6785 83.936 25.5478C83.936 24.4385 83.744 23.4038 83.36 22.4438C82.976 21.4838 82.432 20.6411 81.728 19.9158C81.024 19.1905 80.2133 18.6251 79.296 18.2198C78.3787 17.8145 77.3867 17.6118 76.32 17.6118C75.2533 17.6118 74.2507 17.8145 73.312 18.2198C72.3733 18.6251 71.552 19.1905 70.848 19.9158C70.1653 20.6411 69.6213 21.4838 69.216 22.4438C68.832 23.4038 68.64 24.4385 68.64 25.5478C68.64 26.6785 68.832 27.7345 69.216 28.7158C69.6213 29.6758 70.1653 30.5185 70.848 31.2438C71.552 31.9691 72.3733 32.5451 73.312 32.9718C74.2507 33.3771 75.2533 33.5798 76.32 33.5798ZM94.0338 43.4998H90.8658V28.4278C90.8658 26.8705 91.2284 25.4731 91.9538 24.2358C92.7004 22.9985 93.7031 22.0278 94.9618 21.3238C96.2204 20.5985 97.6391 20.2358 99.2178 20.2358C100.796 20.2358 102.215 20.6091 103.474 21.3558C104.732 22.0811 105.724 23.0731 106.45 24.3318C107.175 25.5691 107.538 26.9345 107.538 28.4278C107.538 30.0065 107.186 31.4251 106.482 32.6838C105.778 33.9211 104.807 34.9025 103.57 35.6278C102.354 36.3318 100.946 36.6838 99.3458 36.6838C98.0871 36.6838 96.9244 36.3851 95.8578 35.7878C94.8124 35.1905 93.9698 34.4118 93.3298 33.4518C92.7111 32.4705 92.4018 31.4038 92.4018 30.2518L94.0338 31.0838V43.4998ZM99.2178 33.7078C100.199 33.7078 101.074 33.4731 101.842 33.0038C102.631 32.5131 103.25 31.8731 103.698 31.0838C104.146 30.2731 104.37 29.3985 104.37 28.4598C104.37 27.4998 104.146 26.6251 103.698 25.8358C103.25 25.0465 102.631 24.4171 101.842 23.9478C101.074 23.4785 100.199 23.2438 99.2178 23.2438C98.2364 23.2438 97.3511 23.4785 96.5618 23.9478C95.7938 24.4171 95.1751 25.0465 94.7058 25.8358C94.2578 26.6251 94.0338 27.4998 94.0338 28.4598C94.0338 29.3985 94.2578 30.2731 94.7058 31.0838C95.1751 31.8731 95.7938 32.5131 96.5618 33.0038C97.3511 33.4731 98.2364 33.7078 99.2178 33.7078ZM118.252 36.7158C116.972 36.7158 115.884 36.4598 114.988 35.9478C114.092 35.4358 113.409 34.7318 112.94 33.8358C112.492 32.9185 112.268 31.8625 112.268 30.6678V16.5558H115.436V30.5718C115.436 31.5958 115.713 32.3958 116.268 32.9718C116.844 33.5478 117.601 33.8358 118.54 33.8358C119.052 33.8358 119.564 33.7505 120.076 33.5798C120.609 33.4091 121.068 33.1851 121.452 32.9078V35.8198C121.046 36.0758 120.556 36.2891 119.98 36.4598C119.404 36.6305 118.828 36.7158 118.252 36.7158ZM121.452 23.3718H109.164V20.6198H121.452V23.3718ZM126.162 20.6198H129.33V36.2998H126.162V20.6198ZM127.73 17.5158C127.367 17.5158 127.026 17.4305 126.706 17.2598C126.386 17.0678 126.13 16.8118 125.938 16.4918C125.746 16.1718 125.65 15.8198 125.65 15.4358C125.65 15.0518 125.746 14.6998 125.938 14.3798C126.13 14.0598 126.386 13.8038 126.706 13.6118C127.026 13.4198 127.367 13.3238 127.73 13.3238C128.114 13.3238 128.455 13.4198 128.754 13.6118C129.074 13.8038 129.319 14.0598 129.49 14.3798C129.682 14.6998 129.778 15.0518 129.778 15.4358C129.778 15.8198 129.682 16.1718 129.49 16.4918C129.319 16.8118 129.074 17.0678 128.754 17.2598C128.455 17.4305 128.114 17.5158 127.73 17.5158ZM153.947 20.1718C155.525 20.1718 156.848 20.5238 157.915 21.2278C159.003 21.9318 159.824 22.8811 160.379 24.0758C160.955 25.2705 161.243 26.5931 161.243 28.0438V36.2998H158.075V28.5558C158.075 27.5958 157.915 26.7105 157.595 25.8998C157.296 25.0891 156.816 24.4385 156.155 23.9478C155.515 23.4571 154.704 23.2118 153.723 23.2118C152.784 23.2118 151.995 23.4571 151.355 23.9478C150.715 24.4171 150.235 25.0571 149.915 25.8678C149.595 26.6571 149.435 27.5318 149.435 28.4918V36.2998H146.267V28.4918C146.267 27.5318 146.107 26.6571 145.787 25.8678C145.488 25.0571 145.008 24.4171 144.347 23.9478C143.707 23.4571 142.896 23.2118 141.915 23.2118C140.933 23.2118 140.123 23.4571 139.483 23.9478C138.864 24.4385 138.405 25.0891 138.107 25.8998C137.808 26.7105 137.659 27.5958 137.659 28.5558V36.2998H134.491V28.0758C134.491 26.6038 134.757 25.2705 135.291 24.0758C135.845 22.8811 136.656 21.9318 137.723 21.2278C138.811 20.5238 140.133 20.1718 141.691 20.1718C143.013 20.1718 144.155 20.4278 145.115 20.9398C146.096 21.4518 146.853 22.1558 147.387 23.0518C147.941 23.9478 148.229 24.9825 148.251 26.1558H147.547C147.589 24.9825 147.877 23.9478 148.411 23.0518C148.965 22.1558 149.712 21.4518 150.651 20.9398C151.611 20.4278 152.709 20.1718 153.947 20.1718ZM172.652 36.6838C171.137 36.6838 169.783 36.3105 168.588 35.5638C167.415 34.8171 166.487 33.8251 165.804 32.5878C165.121 31.3291 164.78 29.9425 164.78 28.4278C164.78 26.9345 165.143 25.5691 165.868 24.3318C166.615 23.0731 167.617 22.0811 168.876 21.3558C170.135 20.6091 171.553 20.2358 173.132 20.2358C174.711 20.2358 176.129 20.5985 177.388 21.3238C178.647 22.0278 179.639 22.9985 180.364 24.2358C181.111 25.4731 181.484 26.8705 181.484 28.4278V36.2998H178.476V30.4438L179.564 29.6118C179.564 30.9345 179.265 32.1291 178.668 33.1958C178.092 34.2625 177.281 35.1158 176.236 35.7558C175.212 36.3745 174.017 36.6838 172.652 36.6838ZM173.132 33.6758C174.113 33.6758 174.999 33.4411 175.788 32.9718C176.577 32.5025 177.196 31.8731 177.644 31.0838C178.092 30.2731 178.316 29.3985 178.316 28.4598C178.316 27.4998 178.092 26.6251 177.644 25.8358C177.196 25.0465 176.577 24.4171 175.788 23.9478C174.999 23.4571 174.113 23.2118 173.132 23.2118C172.151 23.2118 171.265 23.4571 170.476 23.9478C169.708 24.4171 169.089 25.0465 168.62 25.8358C168.172 26.6251 167.948 27.4998 167.948 28.4598C167.948 29.3985 168.172 30.2731 168.62 31.0838C169.089 31.8731 169.708 32.5025 170.476 32.9718C171.265 33.4411 172.151 33.6758 173.132 33.6758ZM186.662 13.4198H189.83V36.2998H186.662V13.4198Z" fill="white"/>
</g>
<defs>
<clipPath id="clip0_110_7224">
<rect width="127" height="50" fill="white" transform="translate(65)"/>
</clipPath>
</defs>
</svg>
