<svg width="274" height="83" viewBox="0 0 274 83" fill="none" xmlns="http://www.w3.org/2000/svg">
<g filter="url(#filter0_dd_1_2419)">
<g clip-path="url(#clip0_1_2419)">
<rect x="5" y="1.62402" width="264" height="72" rx="16" fill="#303030"/>
<g clip-path="url(#clip1_1_2419)">
<path d="M13.2168 21.7791C13.2168 15.066 18.6588 9.62402 25.3718 9.62402H57.0615C63.7746 9.62402 69.2168 15.066 69.2168 21.7791V53.469C69.2168 60.182 63.7746 65.624 57.0615 65.624H25.3716C18.6588 65.624 13.2166 60.182 13.2166 53.469L13.2168 21.7791Z" fill="#2797CF"/>
<path d="M40.6682 48.9855C71.6499 30.3214 38.2296 50.499 69.2111 31.835V54.51L64.3946 63.5021L40.6682 48.9855Z" fill="#FFFFFE" fill-opacity="0.4"/>
<path d="M13.2161 53.0508V31.5947L63.1056 61.9684L59.2096 64.4906L17.721 62.0494L13.2161 53.0508Z" fill="#FFFFFE" fill-opacity="0.4"/>
<path opacity="0.1" fill-rule="evenodd" clip-rule="evenodd" d="M13.217 25.6583V22.5664L41.2166 39.7892L69.219 22.604V25.6959L41.2168 42.8812L13.217 25.6583Z" fill="black"/>
<path d="M41.298 39.6413L13.2168 22.567V21.8739C13.2168 15.1086 18.7206 9.62402 25.5099 9.62402H56.9235C63.7759 9.62402 69.3056 15.2071 69.2157 22.0348L69.2085 22.567L41.298 39.6413Z" fill="#FFFFFE" fill-opacity="0.4"/>
<path d="M13.3546 20.6895L41.2165 37.7744L69.0952 20.7055L69.1816 21.8839V22.814L41.2165 39.935L13.2517 22.8138V21.7756L13.3546 20.6895Z" fill="#B1DAEE"/>
<path d="M41.2165 48.5214L13.2517 31.4004V33.5607L59.8717 62.1157L61.1415 61.7441L62.1145 61.3309L42.9686 49.6091L69.1816 33.5607V31.4004L41.2165 48.5214Z" fill="#B1DAEE"/>
<path fill-rule="evenodd" clip-rule="evenodd" d="M13.217 49.6709V53.4691C13.217 60.1822 18.659 65.6242 25.3721 65.6242H57.062C63.7751 65.6242 69.217 60.1822 69.217 53.4691V49.6709C69.217 56.384 63.7751 61.8259 57.062 61.8259H25.3721C18.659 61.8259 13.217 56.384 13.217 49.6709Z" fill="#2797CF"/>
<path fill-rule="evenodd" clip-rule="evenodd" d="M25.3718 9.62402C18.6588 9.62402 13.2168 15.066 13.2168 21.7791V22.0994C13.8732 16.0054 19.0332 11.2613 25.3013 11.2613H57.062C63.775 11.2613 69.217 16.7032 69.217 23.4163V21.7791C69.217 15.066 63.775 9.62402 57.062 9.62402H25.3718Z" fill="white" fill-opacity="0.3"/>
</g>
<g clip-path="url(#clip2_1_2419)">
<mask id="mask0_1_2419" style="mask-type:luminance" maskUnits="userSpaceOnUse" x="77" y="9" width="57" height="57">
<path d="M77.0706 9.62402H133.071V65.624H77.0706V9.62402Z" fill="white"/>
</mask>
<g mask="url(#mask0_1_2419)">
<path d="M77.0705 21.7791C77.0705 15.066 82.5125 9.62402 89.2256 9.62402H120.915C127.628 9.62402 133.07 15.066 133.07 21.7791V53.4688C133.07 60.1818 127.628 65.624 120.915 65.624H89.2254C82.5125 65.624 77.0703 60.1818 77.0703 53.469L77.0705 21.7791Z" fill="#FFFFFE"/>
<path d="M107.988 9.62402H120.915C127.628 9.62402 133.07 15.066 133.07 21.7791V34.7072H113.198C110.321 34.7072 107.988 32.375 107.988 29.4979V9.62402Z" fill="#EF5A3C"/>
<path d="M107.987 9.62402L133.07 34.7072H111.987C109.778 34.7072 107.987 32.9163 107.987 30.7072V9.62402Z" fill="white"/>
<path d="M109.288 9.62598L133.07 33.419V34.753L107.981 9.62598H109.288Z" fill="#C24228"/>
<path fill-rule="evenodd" clip-rule="evenodd" d="M77.103 49.752V53.55C77.103 60.263 82.545 65.705 89.2581 65.705H120.948C127.661 65.705 133.103 60.263 133.103 53.55V49.752C133.103 56.465 127.661 61.907 120.948 61.907H89.2581C82.545 61.907 77.103 56.465 77.103 49.752Z" fill="#CCCCCB"/>
<path fill-rule="evenodd" clip-rule="evenodd" d="M89.2578 9.70508C82.5448 9.70508 77.1028 15.1471 77.1028 21.8601V22.1805C77.7592 16.0869 82.919 11.3423 89.1873 11.3423H120.948C127.661 11.3423 133.103 16.7843 133.103 23.4974V21.8601C133.103 15.1471 127.661 9.70508 120.948 9.70508H89.2578Z" fill="white" fill-opacity="0.3"/>
<path fill-rule="evenodd" clip-rule="evenodd" d="M107.898 9.62598V30.7291C107.898 32.9467 109.696 34.7446 111.913 34.7446H133.152V36.264H111.913C108.857 36.264 106.378 33.7859 106.378 30.7291V9.62598H107.898Z" fill="#CCCCCB"/>
</g>
</g>
<g clip-path="url(#clip3_1_2419)">
<mask id="mask1_1_2419" style="mask-type:luminance" maskUnits="userSpaceOnUse" x="141" y="9" width="57" height="57">
<path d="M184.916 9.62402H153.226C146.513 9.62402 141.071 15.066 141.071 21.7791V53.469C141.071 60.182 146.513 65.624 153.226 65.624H184.916C191.629 65.624 197.071 60.182 197.071 53.469V21.7791C197.071 15.066 191.629 9.62402 184.916 9.62402Z" fill="white"/>
</mask>
<g mask="url(#mask1_1_2419)">
<path d="M141.071 21.7791C141.071 15.066 146.513 9.62402 153.226 9.62402H184.915C191.628 9.62402 197.07 15.066 197.07 21.7791V53.4688C197.07 60.1818 191.628 65.624 184.915 65.624H153.225C146.513 65.624 141.07 60.1818 141.07 53.469L141.071 21.7791Z" fill="#00A05E"/>
<path d="M141.071 50.749H196.487" stroke="#00804B" stroke-width="1.16667" stroke-linecap="round"/>
<path d="M148.396 32.3741C148.396 31.5499 147.728 30.8818 146.904 30.8818C146.08 30.8818 145.412 31.5499 145.412 32.3741V43.4573C145.412 44.2815 146.08 44.9496 146.904 44.9496C147.728 44.9496 148.396 44.2815 148.396 43.4573V32.3741Z" stroke="#19C77F" stroke-width="0.651163"/>
<path d="M145.737 32.3737C145.737 32.0643 145.86 31.7675 146.079 31.5487C146.298 31.3299 146.595 31.207 146.904 31.207C147.213 31.207 147.51 31.3299 147.729 31.5487C147.948 31.7675 148.071 32.0643 148.071 32.3737V43.4569C148.071 43.7663 147.948 44.0631 147.729 44.2819C147.51 44.5007 147.213 44.6236 146.904 44.6236C146.595 44.6236 146.298 44.5007 146.079 44.2819C145.86 44.0631 145.737 43.7663 145.737 43.4569V32.3737Z" fill="black" fill-opacity="0.5"/>
<mask id="mask2_1_2419" style="mask-type:luminance" maskUnits="userSpaceOnUse" x="145" y="31" width="4" height="14">
<path d="M145.737 32.3737C145.737 32.0643 145.86 31.7675 146.079 31.5487C146.298 31.3299 146.595 31.207 146.904 31.207C147.213 31.207 147.51 31.3299 147.729 31.5487C147.948 31.7675 148.071 32.0643 148.071 32.3737V43.4569C148.071 43.7663 147.948 44.0631 147.729 44.2819C147.51 44.5007 147.213 44.6236 146.904 44.6236C146.595 44.6236 146.298 44.5007 146.079 44.2819C145.86 44.0631 145.737 43.7663 145.737 43.4569V32.3737Z" fill="white"/>
</mask>
<g mask="url(#mask2_1_2419)">
<path d="M145.303 32.3732C145.303 31.9487 145.472 31.5415 145.772 31.2413C146.072 30.9411 146.479 30.7725 146.904 30.7725C147.329 30.7725 147.736 30.9411 148.036 31.2413C148.336 31.5415 148.505 31.9487 148.505 32.3732H147.637C147.637 32.1789 147.559 31.9926 147.422 31.8552C147.285 31.7179 147.098 31.6407 146.904 31.6407C146.71 31.6407 146.523 31.7179 146.386 31.8552C146.249 31.9926 146.171 32.1789 146.171 32.3732H145.303ZM148.505 43.4565C148.505 43.881 148.336 44.2882 148.036 44.5884C147.736 44.8886 147.329 45.0572 146.904 45.0572C146.479 45.0572 146.072 44.8886 145.772 44.5884C145.472 44.2882 145.303 43.881 145.303 43.4565H146.171C146.171 43.6507 146.249 43.8371 146.386 43.9745C146.523 44.1118 146.71 44.189 146.904 44.189C147.098 44.189 147.285 44.1118 147.422 43.9745C147.559 43.8371 147.637 43.6507 147.637 43.4565H148.505ZM146.904 45.0572C146.479 45.0572 146.072 44.8886 145.772 44.5884C145.472 44.2882 145.303 43.881 145.303 43.4565V32.3732C145.303 31.9487 145.472 31.5415 145.772 31.2413C146.072 30.9411 146.479 30.7725 146.904 30.7725V31.6407C146.71 31.6407 146.523 31.7179 146.386 31.8552C146.249 31.9926 146.171 32.1789 146.171 32.3732V43.4565C146.171 43.6507 146.249 43.8371 146.386 43.9745C146.523 44.1118 146.71 44.189 146.904 44.189V45.0572ZM146.904 30.7725C147.114 30.7725 147.322 30.8139 147.517 30.8943C147.711 30.9748 147.887 31.0927 148.036 31.2413C148.185 31.39 148.302 31.5664 148.383 31.7606C148.463 31.9549 148.505 32.163 148.505 32.3732V43.4565C148.505 43.881 148.336 44.2882 148.036 44.5884C147.736 44.8886 147.329 45.0572 146.904 45.0572V44.189C147.098 44.189 147.285 44.1118 147.422 43.9745C147.559 43.8371 147.637 43.6507 147.637 43.4565V32.3732C147.637 32.1789 147.559 31.9926 147.422 31.8552C147.285 31.7179 147.098 31.6407 146.904 31.6407V30.7725Z" fill="#1B271D"/>
</g>
<path d="M153.117 32.3741C153.117 31.5499 152.449 30.8818 151.625 30.8818C150.801 30.8818 150.133 31.5499 150.133 32.3741V43.4573C150.133 44.2815 150.801 44.9496 151.625 44.9496C152.449 44.9496 153.117 44.2815 153.117 43.4573V32.3741Z" stroke="#19C77F" stroke-width="0.651163"/>
<path d="M150.458 32.3737C150.458 32.0643 150.581 31.7675 150.8 31.5487C151.019 31.3299 151.315 31.207 151.625 31.207C151.934 31.207 152.231 31.3299 152.45 31.5487C152.668 31.7675 152.791 32.0643 152.791 32.3737V43.4569C152.791 43.7663 152.668 44.0631 152.45 44.2819C152.231 44.5007 151.934 44.6236 151.625 44.6236C151.315 44.6236 151.019 44.5007 150.8 44.2819C150.581 44.0631 150.458 43.7663 150.458 43.4569V32.3737Z" fill="black" fill-opacity="0.5"/>
<mask id="mask3_1_2419" style="mask-type:luminance" maskUnits="userSpaceOnUse" x="150" y="31" width="3" height="14">
<path d="M150.458 32.3737C150.458 32.0643 150.581 31.7675 150.8 31.5487C151.019 31.3299 151.315 31.207 151.625 31.207C151.934 31.207 152.231 31.3299 152.45 31.5487C152.668 31.7675 152.791 32.0643 152.791 32.3737V43.4569C152.791 43.7663 152.668 44.0631 152.45 44.2819C152.231 44.5007 151.934 44.6236 151.625 44.6236C151.315 44.6236 151.019 44.5007 150.8 44.2819C150.581 44.0631 150.458 43.7663 150.458 43.4569V32.3737Z" fill="white"/>
</mask>
<g mask="url(#mask3_1_2419)">
<path d="M150.024 32.3732C150.024 31.9487 150.193 31.5415 150.493 31.2413C150.793 30.9411 151.2 30.7725 151.625 30.7725C152.049 30.7725 152.456 30.9411 152.757 31.2413C153.057 31.5415 153.225 31.9487 153.225 32.3732H152.357C152.357 32.1789 152.28 31.9926 152.143 31.8552C152.005 31.7179 151.819 31.6407 151.625 31.6407C151.43 31.6407 151.244 31.7179 151.107 31.8552C150.969 31.9926 150.892 32.1789 150.892 32.3732H150.024ZM153.225 43.4565C153.225 43.881 153.057 44.2882 152.757 44.5884C152.456 44.8886 152.049 45.0572 151.625 45.0572C151.2 45.0572 150.793 44.8886 150.493 44.5884C150.193 44.2882 150.024 43.881 150.024 43.4565H150.892C150.892 43.6507 150.969 43.8371 151.107 43.9745C151.244 44.1118 151.43 44.189 151.625 44.189C151.819 44.189 152.005 44.1118 152.143 43.9745C152.28 43.8371 152.357 43.6507 152.357 43.4565H153.225ZM151.625 45.0572C151.2 45.0572 150.793 44.8886 150.493 44.5884C150.193 44.2882 150.024 43.881 150.024 43.4565V32.3732C150.024 31.9487 150.193 31.5415 150.493 31.2413C150.793 30.9411 151.2 30.7725 151.625 30.7725V31.6407C151.43 31.6407 151.244 31.7179 151.107 31.8552C150.969 31.9926 150.892 32.1789 150.892 32.3732V43.4565C150.892 43.6507 150.969 43.8371 151.107 43.9745C151.244 44.1118 151.43 44.189 151.625 44.189V45.0572ZM151.625 30.7725C152.049 30.7725 152.456 30.9411 152.757 31.2413C153.057 31.5415 153.225 31.9487 153.225 32.3732V43.4565C153.225 43.881 153.057 44.2882 152.757 44.5884C152.456 44.8886 152.049 45.0572 151.625 45.0572V44.189C151.819 44.189 152.005 44.1118 152.143 43.9745C152.28 43.8371 152.357 43.6507 152.357 43.4565V32.3732C152.357 32.1789 152.28 31.9926 152.143 31.8552C152.005 31.7179 151.819 31.6407 151.625 31.6407V30.7725Z" fill="#1B271D"/>
</g>
<path d="M157.838 32.3741C157.838 31.5499 157.17 30.8818 156.346 30.8818C155.522 30.8818 154.854 31.5499 154.854 32.3741V43.4573C154.854 44.2815 155.522 44.9496 156.346 44.9496C157.17 44.9496 157.838 44.2815 157.838 43.4573V32.3741Z" stroke="#19C77F" stroke-width="0.651163"/>
<path d="M155.179 32.3737C155.179 32.0643 155.302 31.7675 155.521 31.5487C155.739 31.3299 156.036 31.207 156.346 31.207C156.655 31.207 156.952 31.3299 157.171 31.5487C157.389 31.7675 157.512 32.0643 157.512 32.3737V43.4569C157.512 43.7663 157.389 44.0631 157.171 44.2819C156.952 44.5007 156.655 44.6236 156.346 44.6236C156.036 44.6236 155.739 44.5007 155.521 44.2819C155.302 44.0631 155.179 43.7663 155.179 43.4569V32.3737Z" fill="black" fill-opacity="0.5"/>
<mask id="mask4_1_2419" style="mask-type:luminance" maskUnits="userSpaceOnUse" x="155" y="31" width="3" height="14">
<path d="M155.179 32.3737C155.179 32.0643 155.302 31.7675 155.521 31.5487C155.739 31.3299 156.036 31.207 156.346 31.207C156.655 31.207 156.952 31.3299 157.171 31.5487C157.389 31.7675 157.512 32.0643 157.512 32.3737V43.4569C157.512 43.7663 157.389 44.0631 157.171 44.2819C156.952 44.5007 156.655 44.6236 156.346 44.6236C156.036 44.6236 155.739 44.5007 155.521 44.2819C155.302 44.0631 155.179 43.7663 155.179 43.4569V32.3737Z" fill="white"/>
</mask>
<g mask="url(#mask4_1_2419)">
<path d="M154.745 32.3732C154.745 31.9487 154.914 31.5415 155.214 31.2413C155.514 30.9411 155.921 30.7725 156.346 30.7725C156.77 30.7725 157.177 30.9411 157.478 31.2413C157.778 31.5415 157.946 31.9487 157.946 32.3732H157.078C157.078 32.1789 157.001 31.9926 156.864 31.8552C156.726 31.7179 156.54 31.6407 156.346 31.6407C156.151 31.6407 155.965 31.7179 155.828 31.8552C155.69 31.9926 155.613 32.1789 155.613 32.3732H154.745ZM157.946 43.4565C157.946 43.881 157.778 44.2882 157.478 44.5884C157.177 44.8886 156.77 45.0572 156.346 45.0572C155.921 45.0572 155.514 44.8886 155.214 44.5884C154.914 44.2882 154.745 43.881 154.745 43.4565H155.613C155.613 43.6507 155.69 43.8371 155.828 43.9745C155.965 44.1118 156.151 44.189 156.346 44.189C156.54 44.189 156.726 44.1118 156.864 43.9745C157.001 43.8371 157.078 43.6507 157.078 43.4565H157.946ZM156.346 45.0572C155.921 45.0572 155.514 44.8886 155.214 44.5884C154.914 44.2882 154.745 43.881 154.745 43.4565V32.3732C154.745 31.9487 154.914 31.5415 155.214 31.2413C155.514 30.9411 155.921 30.7725 156.346 30.7725V31.6407C156.151 31.6407 155.965 31.7179 155.828 31.8552C155.69 31.9926 155.613 32.1789 155.613 32.3732V43.4565C155.613 43.6507 155.69 43.8371 155.828 43.9745C155.965 44.1118 156.151 44.189 156.346 44.189V45.0572ZM156.346 30.7725C156.77 30.7725 157.177 30.9411 157.478 31.2413C157.778 31.5415 157.946 31.9487 157.946 32.3732V43.4565C157.946 43.881 157.778 44.2882 157.478 44.5884C157.177 44.8886 156.77 45.0572 156.346 45.0572V44.189C156.54 44.189 156.726 44.1118 156.864 43.9745C157.001 43.8371 157.078 43.6507 157.078 43.4565V32.3732C157.078 32.1789 157.001 31.9926 156.864 31.8552C156.726 31.7179 156.54 31.6407 156.346 31.6407V30.7725Z" fill="#1B271D"/>
</g>
<path d="M162.559 32.3741C162.559 31.5499 161.891 30.8818 161.067 30.8818C160.243 30.8818 159.574 31.5499 159.574 32.3741V43.4573C159.574 44.2815 160.243 44.9496 161.067 44.9496C161.891 44.9496 162.559 44.2815 162.559 43.4573V32.3741Z" stroke="#19C77F" stroke-width="0.651163"/>
<path d="M159.9 32.3737C159.9 32.0643 160.023 31.7675 160.242 31.5487C160.46 31.3299 160.757 31.207 161.067 31.207C161.376 31.207 161.673 31.3299 161.892 31.5487C162.11 31.7675 162.233 32.0643 162.233 32.3737V43.4569C162.233 43.7663 162.11 44.0631 161.892 44.2819C161.673 44.5007 161.376 44.6236 161.067 44.6236C160.757 44.6236 160.46 44.5007 160.242 44.2819C160.023 44.0631 159.9 43.7663 159.9 43.4569V32.3737Z" fill="black" fill-opacity="0.5"/>
<mask id="mask5_1_2419" style="mask-type:luminance" maskUnits="userSpaceOnUse" x="159" y="31" width="4" height="14">
<path d="M159.9 32.3737C159.9 32.0643 160.023 31.7675 160.242 31.5487C160.46 31.3299 160.757 31.207 161.067 31.207C161.376 31.207 161.673 31.3299 161.892 31.5487C162.11 31.7675 162.233 32.0643 162.233 32.3737V43.4569C162.233 43.7663 162.11 44.0631 161.892 44.2819C161.673 44.5007 161.376 44.6236 161.067 44.6236C160.757 44.6236 160.46 44.5007 160.242 44.2819C160.023 44.0631 159.9 43.7663 159.9 43.4569V32.3737Z" fill="white"/>
</mask>
<g mask="url(#mask5_1_2419)">
<path d="M159.466 32.3732C159.466 31.9487 159.634 31.5415 159.935 31.2413C160.235 30.9411 160.642 30.7725 161.067 30.7725C161.491 30.7725 161.898 30.9411 162.199 31.2413C162.499 31.5415 162.667 31.9487 162.667 32.3732H161.799C161.799 32.1789 161.722 31.9926 161.585 31.8552C161.447 31.7179 161.261 31.6407 161.067 31.6407C160.872 31.6407 160.686 31.7179 160.549 31.8552C160.411 31.9926 160.334 32.1789 160.334 32.3732H159.466ZM162.667 43.4565C162.667 43.881 162.499 44.2882 162.199 44.5884C161.898 44.8886 161.491 45.0572 161.067 45.0572C160.642 45.0572 160.235 44.8886 159.935 44.5884C159.634 44.2882 159.466 43.881 159.466 43.4565H160.334C160.334 43.6507 160.411 43.8371 160.549 43.9745C160.686 44.1118 160.872 44.189 161.067 44.189C161.261 44.189 161.447 44.1118 161.585 43.9745C161.722 43.8371 161.799 43.6507 161.799 43.4565H162.667ZM161.067 45.0572C160.642 45.0572 160.235 44.8886 159.935 44.5884C159.634 44.2882 159.466 43.881 159.466 43.4565V32.3732C159.466 31.9487 159.634 31.5415 159.935 31.2413C160.235 30.9411 160.642 30.7725 161.067 30.7725V31.6407C160.872 31.6407 160.686 31.7179 160.549 31.8552C160.411 31.9926 160.334 32.1789 160.334 32.3732V43.4565C160.334 43.6507 160.411 43.8371 160.549 43.9745C160.686 44.1118 160.872 44.189 161.067 44.189V45.0572ZM161.067 30.7725C161.491 30.7725 161.898 30.9411 162.199 31.2413C162.499 31.5415 162.667 31.9487 162.667 32.3732V43.4565C162.667 43.881 162.499 44.2882 162.199 44.5884C161.898 44.8886 161.491 45.0572 161.067 45.0572V44.189C161.261 44.189 161.447 44.1118 161.585 43.9745C161.722 43.8371 161.799 43.6507 161.799 43.4565V32.3732C161.799 32.1789 161.722 31.9926 161.585 31.8552C161.447 31.7179 161.261 31.6407 161.067 31.6407V30.7725Z" fill="#1B271D"/>
</g>
<path d="M190.945 37.9157C190.945 35.3384 188.856 33.249 186.279 33.249C183.701 33.249 181.612 35.3384 181.612 37.9157C181.612 40.493 183.701 42.5824 186.279 42.5824C188.856 42.5824 190.945 40.493 190.945 37.9157Z" fill="#303030" stroke="#19C77F" stroke-width="0.583442"/>
<path d="M183.654 37.9159C183.654 36.4661 184.829 35.291 186.279 35.291C187.729 35.291 188.904 36.4661 188.904 37.9159C188.904 39.3656 187.729 40.5409 186.279 40.5409C184.829 40.5409 183.654 39.3656 183.654 37.9159Z" fill="#83FF49"/>
<mask id="mask6_1_2419" style="mask-type:luminance" maskUnits="userSpaceOnUse" x="183" y="35" width="6" height="6">
<path d="M183.654 37.9159C183.654 36.4661 184.829 35.291 186.279 35.291C187.729 35.291 188.904 36.4661 188.904 37.9159C188.904 39.3656 187.729 40.5409 186.279 40.5409C184.829 40.5409 183.654 39.3656 183.654 37.9159Z" fill="white"/>
</mask>
<g mask="url(#mask6_1_2419)">
<path d="M183.22 37.9154C183.22 36.2258 184.589 34.8564 186.279 34.8564C187.968 34.8564 189.338 36.2258 189.338 37.9154H188.47C188.47 36.7055 187.489 35.7247 186.279 35.7247C185.069 35.7247 184.088 36.7055 184.088 37.9154H183.22ZM189.338 37.9154C189.338 39.6049 187.968 40.9746 186.279 40.9746C184.589 40.9746 183.22 39.6049 183.22 37.9154H184.088C184.088 39.1255 185.069 40.1063 186.279 40.1063C187.489 40.1063 188.47 39.1255 188.47 37.9154H189.338ZM186.279 40.9746C184.589 40.9746 183.22 39.6049 183.22 37.9154C183.22 36.2258 184.589 34.8564 186.279 34.8564V35.7247C185.069 35.7247 184.088 36.7055 184.088 37.9154C184.088 39.1255 185.069 40.1063 186.279 40.1063V40.9746ZM186.279 34.8564C187.968 34.8564 189.338 36.2258 189.338 37.9154C189.338 39.6049 187.968 40.9746 186.279 40.9746V40.1063C187.489 40.1063 188.47 39.1255 188.47 37.9154C188.47 36.7055 187.489 35.7247 186.279 35.7247V34.8564Z" fill="#00A05E"/>
</g>
<path d="M141.071 24.8174H196.487" stroke="#00804B" stroke-width="1.16667" stroke-linecap="round"/>
<path fill-rule="evenodd" clip-rule="evenodd" d="M141.103 49.752V53.55C141.103 60.263 146.545 65.705 153.258 65.705H184.948C191.661 65.705 197.103 60.263 197.103 53.55V49.752C197.103 56.465 191.661 61.907 184.948 61.907H153.258C146.545 61.907 141.103 56.465 141.103 49.752Z" fill="black" fill-opacity="0.2"/>
<path fill-rule="evenodd" clip-rule="evenodd" d="M153.258 9.70508C146.545 9.70508 141.103 15.1471 141.103 21.8601V22.1805C141.759 16.0869 146.919 11.3423 153.187 11.3423H184.948C191.661 11.3423 197.103 16.7843 197.103 23.4974V21.8601C197.103 15.1471 191.661 9.70508 184.948 9.70508H153.258Z" fill="white" fill-opacity="0.3"/>
</g>
</g>
<g clip-path="url(#clip4_1_2419)">
<path d="M205.287 21.7791C205.287 15.066 210.729 9.62402 217.442 9.62402H249.132C255.845 9.62402 261.287 15.066 261.287 21.7791V53.4688C261.287 60.1818 255.845 65.624 249.132 65.624H217.442C210.729 65.624 205.287 60.1818 205.287 53.469V21.7791Z" fill="white"/>
<path d="M205.287 21.7791C205.287 15.0662 210.729 9.62402 217.442 9.62402H249.132C255.845 9.62402 261.287 15.0662 261.287 21.7791V26.0741H205.287V21.7791Z" fill="#CF74A2"/>
<path d="M222.641 22.6398L225.328 15.1738H227.047L229.734 22.6398H228.238L227.658 20.9158H224.717L224.132 22.6401L222.641 22.6398ZM225.059 19.8442H227.311L226.488 17.4106C226.385 17.093 226.293 16.7717 226.213 16.4475H226.161C226.078 16.7714 225.985 17.0926 225.882 17.4106L225.059 19.8442ZM231.039 22.6398V15.1793H233.866C234.428 15.1793 234.905 15.2724 235.295 15.4588C235.685 15.6418 235.98 15.904 236.18 16.2459C236.38 16.5875 236.481 16.9845 236.481 17.4366C236.481 17.8924 236.38 18.2944 236.18 18.643C235.983 18.9916 235.687 19.261 235.29 19.4507C234.896 19.6406 234.421 19.7354 233.866 19.7354H232.395V22.6403H231.039V22.6398ZM233.747 18.6118C234.04 18.6118 234.289 18.5651 234.492 18.472C234.7 18.3786 234.858 18.2458 234.969 18.0732C235.083 17.9007 235.139 17.6884 235.139 17.4364C235.139 17.1911 235.084 16.9843 234.974 16.815C234.863 16.6459 234.703 16.5183 234.492 16.4319C234.285 16.3457 234.037 16.3025 233.747 16.3025H232.395V18.6118H233.747ZM237.915 22.6398V15.174H241.104C241.605 15.174 242.033 15.2587 242.388 15.4276C242.744 15.5969 243.015 15.8384 243.201 16.1525C243.388 16.4666 243.481 16.8341 243.481 17.2554C243.481 17.5523 243.427 17.8215 243.32 18.063C243.22 18.3004 243.061 18.5088 242.859 18.6688C242.656 18.8277 242.413 18.9399 242.129 19.0053V19.0469C242.53 19.1331 242.83 19.323 243.03 19.6165C243.234 19.9097 243.343 20.3137 243.357 20.8281V20.9575C243.36 20.9954 243.363 21.0369 243.367 21.0816C243.381 21.4545 243.408 21.7532 243.45 21.9774C243.491 22.1984 243.545 22.3811 243.61 22.5263V22.6401H242.217C242.159 22.4985 242.112 22.3277 242.078 22.1276C242.043 21.9275 242.014 21.6685 241.989 21.351L241.979 21.1697L241.969 20.9781C241.958 20.6434 241.905 20.3812 241.808 20.191C241.715 20.0013 241.577 19.8685 241.394 19.7925C241.211 19.7131 240.973 19.6734 240.68 19.6734H239.313V22.6403H237.915V22.6398ZM240.866 18.5445C241.115 18.5445 241.329 18.503 241.508 18.4201C241.686 18.3419 241.834 18.2097 241.933 18.0422C242.036 17.8696 242.088 17.6608 242.088 17.4158C242.088 17.1673 242.034 16.96 241.927 16.7944C241.826 16.6308 241.676 16.5038 241.498 16.4319C241.318 16.3559 241.108 16.3179 240.866 16.3179H239.313V18.5445H240.866Z" fill="#CBCBCB"/>
<path d="M222.641 22.2053L225.328 14.7393H227.047L229.734 22.2053H228.238L227.658 20.4812H224.717L224.132 22.2055L222.641 22.2053ZM225.059 19.4096H227.311L226.488 16.976C226.385 16.6584 226.293 16.3372 226.213 16.0129H226.161C226.078 16.3368 225.985 16.658 225.882 16.976L225.059 19.4096ZM231.039 22.2053V14.7447H233.866C234.428 14.7447 234.905 14.8378 235.295 15.0243C235.685 15.2072 235.98 15.4694 236.18 15.8113C236.38 16.1529 236.481 16.5499 236.481 17.002C236.481 17.4579 236.38 17.8598 236.18 18.2084C235.983 18.557 235.687 18.8264 235.29 19.0161C234.896 19.206 234.421 19.3009 233.866 19.3009H232.395V22.2057H231.039V22.2053ZM233.747 18.1772C234.04 18.1772 234.289 18.1305 234.492 18.0374C234.7 17.9441 234.858 17.8112 234.969 17.6387C235.083 17.4661 235.139 17.2538 235.139 17.0018C235.139 16.7566 235.084 16.5497 234.974 16.3804C234.863 16.2113 234.703 16.0837 234.492 15.9973C234.285 15.9111 234.037 15.8679 233.747 15.8679H232.395V18.1772H233.747ZM237.915 22.2053V14.7395H241.104C241.605 14.7395 242.033 14.8241 242.388 14.993C242.744 15.1623 243.015 15.4039 243.201 15.718C243.388 16.032 243.481 16.3995 243.481 16.8208C243.481 17.1177 243.427 17.3869 243.32 17.6285C243.22 17.8659 243.061 18.0742 242.859 18.2343C242.656 18.3931 242.413 18.5054 242.129 18.5707V18.6124C242.53 18.6985 242.83 18.8885 243.03 19.1819C243.234 19.4752 243.343 19.8791 243.357 20.3935V20.5229C243.36 20.5609 243.363 20.6023 243.367 20.647C243.381 21.0199 243.408 21.3186 243.45 21.5428C243.491 21.7638 243.545 21.9465 243.61 22.0918V22.2055H242.217C242.159 22.064 242.112 21.8931 242.078 21.693C242.043 21.4929 242.014 21.234 241.989 20.9164L241.979 20.7352L241.969 20.5435C241.958 20.2088 241.905 19.9466 241.808 19.7565C241.715 19.5668 241.577 19.4339 241.394 19.358C241.211 19.2785 240.973 19.2388 240.68 19.2388H239.313V22.2057H237.915V22.2053ZM240.866 18.1099C241.115 18.1099 241.329 18.0684 241.508 17.9855C241.686 17.9074 241.834 17.7751 241.933 17.6076C242.036 17.4351 242.088 17.2263 242.088 16.9812C242.088 16.7327 242.034 16.5254 241.927 16.3598C241.826 16.1963 241.676 16.0693 241.498 15.9973C241.318 15.9213 241.108 15.8834 240.866 15.8834H239.313V18.1099H240.866Z" fill="white"/>
<path d="M225.615 56.5711C223.62 56.5711 221.92 56.103 220.516 55.1668C219.112 54.2196 218.047 52.8543 217.323 51.0712C216.599 49.2881 216.236 47.1371 216.236 44.6184V43.6822C216.236 41.1525 216.599 38.996 217.323 37.2129C218.047 35.4186 219.106 34.0533 220.499 33.1171C221.904 32.1699 223.603 31.6963 225.598 31.6963C227.593 31.6963 229.287 32.1643 230.68 33.1004C232.073 34.0366 233.126 35.4018 233.839 37.1962C234.552 38.9904 234.909 41.1525 234.909 43.6822V44.6184C234.909 47.1371 234.552 49.2935 233.839 51.0879C233.126 52.871 232.073 54.2306 230.68 55.1668C229.298 56.103 227.61 56.5711 225.615 56.5711ZM225.631 52.8432C226.712 52.8432 227.61 52.5478 228.323 51.9572C229.047 51.3553 229.588 50.4693 229.944 49.2992C230.312 48.118 230.496 46.6578 230.496 44.9195V43.3814C230.496 41.6428 230.312 40.1829 229.944 39.0015C229.576 37.8203 229.03 36.9286 228.306 36.3269C227.593 35.725 226.696 35.4242 225.615 35.4242C224.545 35.4242 223.642 35.725 222.906 36.3269C222.171 36.9175 221.614 37.8035 221.235 38.9848C220.867 40.1662 220.683 41.6317 220.683 43.3814V44.9195C220.683 46.6468 220.873 48.1012 221.251 49.2825C221.63 50.4526 222.182 51.3386 222.906 51.9405C223.642 52.5422 224.55 52.8432 225.631 52.8432ZM244.605 56.1865V37.4804H244.421C243.652 38.1936 242.766 38.7621 241.763 39.1855C240.76 39.5977 239.651 39.8653 238.436 39.9878V36.2266C239.417 36.0927 240.331 35.831 241.178 35.4409C242.036 35.0396 242.8 34.5549 243.468 33.9864C244.148 33.4069 244.733 32.7718 245.223 32.0807H248.951V56.1865H244.605Z" fill="#AF5883"/>
<path d="M225.615 55.703C223.62 55.703 221.92 55.2348 220.516 54.2986C219.112 53.3514 218.047 51.9861 217.323 50.203C216.599 48.4199 216.236 46.2689 216.236 43.7502V42.8141C216.236 40.2843 216.599 38.1279 217.323 36.3448C218.047 34.5504 219.106 33.1851 220.499 32.249C221.904 31.3017 223.603 30.8281 225.598 30.8281C227.593 30.8281 229.287 31.2961 230.68 32.2322C232.073 33.1684 233.126 34.5337 233.839 36.3281C234.552 38.1222 234.909 40.2843 234.909 42.8141V43.7502C234.909 46.2689 234.552 48.4254 233.839 50.2198C233.126 52.0029 232.073 53.3625 230.68 54.2986C229.298 55.2348 227.61 55.703 225.615 55.703ZM225.631 51.9751C226.712 51.9751 227.61 51.6797 228.323 51.0891C229.047 50.4872 229.588 49.6011 229.944 48.431C230.312 47.2498 230.496 45.7897 230.496 44.0513V42.5132C230.496 40.7746 230.312 39.3147 229.944 38.1333C229.576 36.9521 229.03 36.0604 228.306 35.4588C227.593 34.8569 226.696 34.556 225.615 34.556C224.545 34.556 223.642 34.8569 222.906 35.4588C222.171 36.0494 221.614 36.9354 221.235 38.1166C220.867 39.298 220.683 40.7636 220.683 42.5132V44.0513C220.683 45.7786 220.873 47.2331 221.251 48.4143C221.63 49.5844 222.182 50.4704 222.906 51.0723C223.642 51.674 224.55 51.9751 225.631 51.9751ZM244.605 55.3184V36.6122H244.421C243.652 37.3254 242.766 37.8939 241.763 38.3174C240.76 38.7296 239.651 38.9972 238.436 39.1196V35.3585C239.417 35.2246 240.331 34.9628 241.178 34.5727C242.036 34.1714 242.8 33.6867 243.468 33.1183C244.148 32.5387 244.733 31.9036 245.223 31.2125H248.951V55.3184H244.605Z" fill="#CF74A2"/>
<path fill-rule="evenodd" clip-rule="evenodd" d="M205.32 49.752V53.55C205.32 60.263 210.762 65.705 217.475 65.705H249.165C255.878 65.705 261.32 60.263 261.32 53.5502V49.752C261.32 56.465 255.878 61.907 249.165 61.907H217.475C210.762 61.907 205.32 56.465 205.32 49.752Z" fill="black" fill-opacity="0.2"/>
<path fill-rule="evenodd" clip-rule="evenodd" d="M217.475 9.70508C210.762 9.70508 205.32 15.1473 205.32 21.8601V22.1805C205.976 16.0869 211.136 11.3423 217.404 11.3423H249.165C255.878 11.3423 261.32 16.7843 261.32 23.4974V21.8603C261.32 15.1473 255.878 9.7053 249.165 9.7053L217.475 9.70508Z" fill="white" fill-opacity="0.3"/>
</g>
</g>
</g>
<defs>
<filter id="filter0_dd_1_2419" x="0" y="0.624023" width="274" height="82" filterUnits="userSpaceOnUse" color-interpolation-filters="sRGB">
<feFlood flood-opacity="0" result="BackgroundImageFix"/>
<feColorMatrix in="SourceAlpha" type="matrix" values="0 0 0 0 0 0 0 0 0 0 0 0 0 0 0 0 0 0 127 0" result="hardAlpha"/>
<feMorphology radius="2" operator="erode" in="SourceAlpha" result="effect1_dropShadow_1_2419"/>
<feOffset dy="2"/>
<feGaussianBlur stdDeviation="2"/>
<feComposite in2="hardAlpha" operator="out"/>
<feColorMatrix type="matrix" values="0 0 0 0 0 0 0 0 0 0 0 0 0 0 0 0 0 0 0.1 0"/>
<feBlend mode="normal" in2="BackgroundImageFix" result="effect1_dropShadow_1_2419"/>
<feColorMatrix in="SourceAlpha" type="matrix" values="0 0 0 0 0 0 0 0 0 0 0 0 0 0 0 0 0 0 127 0" result="hardAlpha"/>
<feMorphology radius="1" operator="erode" in="SourceAlpha" result="effect2_dropShadow_1_2419"/>
<feOffset dy="4"/>
<feGaussianBlur stdDeviation="3"/>
<feComposite in2="hardAlpha" operator="out"/>
<feColorMatrix type="matrix" values="0 0 0 0 0 0 0 0 0 0 0 0 0 0 0 0 0 0 0.1 0"/>
<feBlend mode="normal" in2="effect1_dropShadow_1_2419" result="effect2_dropShadow_1_2419"/>
<feBlend mode="normal" in="SourceGraphic" in2="effect2_dropShadow_1_2419" result="shape"/>
</filter>
<clipPath id="clip0_1_2419">
<rect x="5" y="1.62402" width="264" height="72" rx="16" fill="white"/>
</clipPath>
<clipPath id="clip1_1_2419">
<rect width="56" height="258" fill="white" transform="translate(13 -91.376)"/>
</clipPath>
<clipPath id="clip2_1_2419">
<rect width="56" height="258" fill="white" transform="translate(77 -91.376)"/>
</clipPath>
<clipPath id="clip3_1_2419">
<rect width="56" height="258" fill="white" transform="translate(141 -91.376)"/>
</clipPath>
<clipPath id="clip4_1_2419">
<rect width="56" height="259" fill="white" transform="translate(205 -91.876)"/>
</clipPath>
</defs>
</svg>
