<svg width="33" height="33" viewBox="0 0 33 33" fill="none" xmlns="http://www.w3.org/2000/svg">
<g clip-path="url(#clip0_132_6274)">
<path d="M26 5.03711H6C5.46957 5.03711 4.96086 5.24782 4.58579 5.6229C4.21071 5.99797 4 6.50668 4 7.03711V14.0371C4 20.6271 7.19 24.6209 9.86625 26.8109C12.7487 29.1684 15.6163 29.9684 15.7413 30.0021C15.9131 30.0489 16.0944 30.0489 16.2663 30.0021C16.3913 29.9684 19.255 29.1684 22.1413 26.8109C24.81 24.6209 28 20.6271 28 14.0371V7.03711C28 6.50668 27.7893 5.99797 27.4142 5.6229C27.0391 5.24782 26.5304 5.03711 26 5.03711ZM21.71 13.7446L14.71 20.7446C14.6171 20.8376 14.5068 20.9113 14.3854 20.9617C14.264 21.012 14.1339 21.0379 14.0025 21.0379C13.8711 21.0379 13.741 21.012 13.6196 20.9617C13.4982 20.9113 13.3879 20.8376 13.295 20.7446L10.295 17.7446C10.1074 17.557 10.0019 17.3025 10.0019 17.0371C10.0019 16.7717 10.1074 16.5173 10.295 16.3296C10.4826 16.142 10.7371 16.0366 11.0025 16.0366C11.2679 16.0366 11.5224 16.142 11.71 16.3296L14 18.6234L20.2925 12.3296C20.3854 12.2367 20.4957 12.163 20.6171 12.1127C20.7385 12.0624 20.8686 12.0366 21 12.0366C21.1314 12.0366 21.2615 12.0624 21.3829 12.1127C21.5043 12.163 21.6146 12.2367 21.7075 12.3296C21.8004 12.4225 21.8741 12.5328 21.9244 12.6542C21.9747 12.7756 22.0006 12.9057 22.0006 13.0371C22.0006 13.1685 21.9747 13.2986 21.9244 13.42C21.8741 13.5414 21.8004 13.6517 21.7075 13.7446H21.71Z" fill="white"/>
</g>
<defs>
<clipPath id="clip0_132_6274">
<rect width="32" height="32" fill="white" transform="translate(0.5 0.0371094)"/>
</clipPath>
</defs>
</svg>
