<svg width="37" height="37" viewBox="0 0 37 37" fill="none" xmlns="http://www.w3.org/2000/svg">
<path d="M7.00754 25.6994C7.00754 29.6484 0.879883 29.6484 0.879883 25.6994L0.879882 3.33345C0.879882 -0.615518 7.00754 -0.615518 7.00754 3.33345L7.00754 25.6994Z" fill="white"/>
<path d="M16.9651 32.9728C16.9651 36.9218 10.8374 36.9218 10.8374 32.9728L10.8374 10.6069C10.8374 6.65792 16.9651 6.65792 16.9651 10.6069L16.9651 32.9728Z" fill="white"/>
<path d="M26.9221 25.6994C26.9221 29.6484 20.7944 29.6484 20.7944 25.6994L20.7944 3.33345C20.7944 -0.615518 26.9221 -0.615518 26.9221 3.33345L26.9221 25.6994Z" fill="white"/>
<path d="M36.8796 32.9728C36.8796 36.9218 30.752 36.9218 30.752 32.9728L30.752 11.3269C30.752 7.37792 36.8796 7.37792 36.8796 11.3269L36.8796 32.9728Z" fill="white"/>
</svg>
