<svg width="93" height="37" viewBox="0 0 93 37" fill="none" xmlns="http://www.w3.org/2000/svg">
<g clip-path="url(#clip0_160_7510)">
<path d="M11.6899 23.181V26.3174H0.831543V9.68537H11.6899V12.8217H4.51434V16.5045H10.7395V19.4982H4.51434V23.181H11.6899Z" fill="white"/>
<path d="M18.0163 26.3174H14.4286V13.9384H17.4461L17.7312 15.6254C18.8955 14.3661 20.2735 13.7246 21.9605 13.7246C23.4811 13.7246 24.5028 14.176 25.1443 15.0314C25.3344 15.269 25.477 15.5066 25.5958 15.7917C26.8075 14.3898 28.1856 13.7246 29.8963 13.7246C31.4645 13.7246 32.5099 14.176 33.1515 15.0314C33.8167 15.9105 34.0068 16.9322 34.0068 19.4507V26.3174H30.4428V20.2586C30.4428 18.833 30.3478 18.2152 29.9676 17.7162C29.5637 17.241 29.0172 17.051 28.1619 17.051C27.3778 17.051 26.6887 17.2886 25.9759 17.8826C26.0235 18.334 26.0235 18.833 26.0235 19.4507V26.3174H22.4357V20.2586C22.4357 18.833 22.3644 18.2152 21.9605 17.7162C21.5803 17.241 21.0339 17.051 20.226 17.051C19.3469 17.051 18.5391 17.3598 18.0163 17.9063V26.3174Z" fill="white"/>
<path d="M42.7982 26.5074C41.8716 26.5074 40.8736 26.3411 39.9232 25.9847L37.1908 26.3174V8.25977H40.7786V15.5541C41.6577 14.3423 42.8457 13.7008 44.4614 13.7008C47.2176 13.7008 49.0708 15.7679 49.0708 19.6408C49.0708 24.0602 46.5523 26.5074 42.7982 26.5074ZM40.7786 18.5003V23.2998C41.3251 23.5374 41.8478 23.6325 42.3943 23.6325C44.1288 23.6325 45.3405 22.492 45.3405 19.9972C45.3405 17.9063 44.4376 16.8846 43.1308 16.8846C42.0854 16.8846 41.3251 17.4549 40.7786 18.5003Z" fill="white"/>
<path d="M54.9325 26.3174H51.3447V8.25977H54.9325V26.3174Z" fill="white"/>
<path d="M63.9888 26.5074C59.4744 26.5074 57.2172 24.4166 57.2172 20.0922C57.2172 15.958 60.0209 13.7008 63.2285 13.7008C66.6261 13.7008 68.2656 15.7442 68.2656 19.3082C68.2656 19.9734 68.2181 20.5674 68.1705 21.1614H60.8762C61.2326 23.0147 62.4919 23.6562 64.7966 23.6562C65.747 23.6562 66.7212 23.5612 67.5528 23.4424L67.3865 26.2698C66.5311 26.4124 65.3669 26.5074 63.9888 26.5074ZM63.1334 16.3619C61.8979 16.3619 60.995 17.241 60.8049 19.2131L64.8679 18.9993C64.8679 17.1935 64.3214 16.3619 63.1334 16.3619Z" fill="white"/>
<path d="M74.2607 26.3174H70.673V13.9384H73.6905L73.9756 15.6254C75.1398 14.3661 76.5179 13.7246 78.2049 13.7246C79.7255 13.7246 80.7472 14.176 81.3887 15.0314C81.5788 15.269 81.7214 15.5066 81.8402 15.7917C83.0519 14.3898 84.43 13.7246 86.1407 13.7246C87.7089 13.7246 88.7543 14.176 89.3958 15.0314C90.0611 15.9105 90.2512 16.9322 90.2512 19.4507V26.3174H86.6872V20.2586C86.6872 18.833 86.5922 18.2152 86.212 17.7162C85.8081 17.241 85.2616 17.051 84.4062 17.051C83.6222 17.051 82.9331 17.2886 82.2203 17.8826C82.2678 18.334 82.2678 18.833 82.2678 19.4507V26.3174H78.6801V20.2586C78.6801 18.833 78.6088 18.2152 78.2049 17.7162C77.8247 17.241 77.2782 17.051 76.4704 17.051C75.5913 17.051 74.7834 17.3598 74.2607 17.9063V26.3174Z" fill="white"/>
</g>
<defs>
<clipPath id="clip0_160_7510">
<rect width="91.44" height="36" fill="white" transform="translate(0.679688 0.0371094)"/>
</clipPath>
</defs>
</svg>
