<svg width="64" height="33" viewBox="0 0 64 33" fill="none" xmlns="http://www.w3.org/2000/svg">
<g clip-path="url(#clip0_164_6024)">
<path d="M2.96664 20.8378H5.38712C6.00878 20.8378 6.58414 20.7319 7.1132 20.5203C7.6555 20.2955 8.12504 19.9846 8.52184 19.5878C8.93187 19.191 9.2427 18.7281 9.45432 18.199C9.67918 17.67 9.7916 17.0946 9.7916 16.473C9.7916 15.8513 9.67918 15.2759 9.45432 14.7469C9.22947 14.2046 8.91864 13.735 8.52184 13.3382C8.12504 12.9414 7.6555 12.6306 7.1132 12.4058C6.58414 12.1809 6.00878 12.0685 5.38712 12.0685H2.96664V20.8378ZM0.0898438 23.3971V9.50911H5.4268C6.47171 9.50911 7.43726 9.68767 8.32344 10.0448C9.20963 10.3887 9.98339 10.8781 10.6447 11.513C11.3061 12.1478 11.8219 12.8885 12.1922 13.735C12.5758 14.5815 12.7676 15.4942 12.7676 16.473C12.7676 17.465 12.5824 18.3776 12.2121 19.2109C11.8417 20.0442 11.3193 20.7782 10.6447 21.4131C9.98339 22.0348 9.20963 22.5242 8.32344 22.8813C7.43726 23.2252 6.47171 23.3971 5.4268 23.3971H0.0898438Z" fill="white"/>
<path d="M19.618 23.5955C18.5863 23.5955 17.6472 23.3574 16.8007 22.8813C15.9674 22.4051 15.3061 21.7636 14.8167 20.9568C14.3273 20.15 14.0826 19.2439 14.0826 18.2387C14.0826 17.2335 14.3141 16.3275 14.777 15.5206C15.2532 14.7138 15.8947 14.0723 16.7015 13.5962C17.5083 13.12 18.4077 12.8819 19.3997 12.8819C20.3917 12.8819 21.2713 13.1266 22.0385 13.616C22.8056 14.1054 23.4074 14.7667 23.8439 15.6C24.2936 16.4333 24.5185 17.379 24.5185 18.4371V19.1514H16.8602C16.9793 19.5614 17.171 19.9317 17.4356 20.2624C17.7133 20.5931 18.0506 20.851 18.4474 21.0362C18.8575 21.2213 19.2939 21.3139 19.7569 21.3139C20.2198 21.3139 20.643 21.2412 21.0266 21.0957C21.4234 20.9502 21.7607 20.7452 22.0385 20.4806L23.8241 22.1075C23.1892 22.6234 22.5345 23.0003 21.8599 23.2384C21.1986 23.4765 20.4513 23.5955 19.618 23.5955ZM16.8205 17.207H21.8401C21.7475 16.797 21.5755 16.4399 21.3242 16.1357C21.0861 15.8182 20.7952 15.5735 20.4513 15.4016C20.1206 15.2164 19.7503 15.1238 19.3402 15.1238C18.917 15.1238 18.5334 15.2098 18.1895 15.3818C17.8456 15.5537 17.5546 15.7984 17.3165 16.1158C17.0917 16.42 16.9264 16.7838 16.8205 17.207Z" fill="white"/>
<path d="M24.2977 23.3971L28.2657 18.1395L24.3969 13.0605H27.5515L29.8331 16.1357L32.0949 13.0605H35.1502L31.3409 18.0998L35.3883 23.3971H32.2139L29.7736 20.1037L27.3333 23.3971H24.2977Z" fill="white"/>
<path d="M36.4138 23.3971V13.0605H39.1319V23.3971H36.4138ZM37.7629 11.8304C37.3396 11.8304 36.9759 11.6783 36.6717 11.3741C36.3675 11.0699 36.2154 10.7061 36.2154 10.2829C36.2154 9.84639 36.3675 9.48266 36.6717 9.19167C36.9759 8.88746 37.3396 8.73535 37.7629 8.73535C38.1994 8.73535 38.5631 8.88746 38.8541 9.19167C39.1583 9.48266 39.3104 9.84639 39.3104 10.2829C39.3104 10.7061 39.1583 11.0699 38.8541 11.3741C38.5631 11.6783 38.1994 11.8304 37.7629 11.8304Z" fill="white"/>
<path d="M46.4556 27.6429C45.662 27.6429 44.8949 27.5569 44.1542 27.385C43.4135 27.2262 42.7455 26.9948 42.1503 26.6906L43.1027 24.5875C43.6714 24.8653 44.2269 25.0703 44.7692 25.2026C45.3115 25.3348 45.8538 25.401 46.3961 25.401C47.2029 25.401 47.8113 25.229 48.2214 24.8851C48.6446 24.5412 48.8563 24.0254 48.8563 23.3376V22.5242C48.0097 23.1458 47.064 23.4566 46.0191 23.4566C45.0404 23.4566 44.1542 23.2252 43.3606 22.7622C42.5802 22.2861 41.9519 21.6446 41.4758 20.8378C41.0128 20.0309 40.7814 19.1381 40.7814 18.1594C40.7814 17.1806 41.0128 16.2944 41.4758 15.5008C41.9519 14.7072 42.5934 14.0789 43.4003 13.616C44.2071 13.1398 45.1065 12.9018 46.0985 12.9018C46.6011 12.9018 47.0905 12.9745 47.5667 13.12C48.0428 13.2655 48.4859 13.4705 48.8959 13.735V13.0605H51.5743V23.3773C51.5743 24.7396 51.1312 25.7911 50.2451 26.5318C49.3721 27.2725 48.1089 27.6429 46.4556 27.6429ZM46.4358 21.1552C46.9384 21.1552 47.3947 21.0758 47.8047 20.9171C48.2148 20.7452 48.5653 20.5071 48.8563 20.2029V16.1555C48.5653 15.8645 48.2081 15.6397 47.7849 15.481C47.3749 15.309 46.9318 15.223 46.4556 15.223C45.8869 15.223 45.3776 15.3553 44.9279 15.6198C44.4782 15.8711 44.1211 16.2216 43.8566 16.6714C43.592 17.1078 43.4598 17.6038 43.4598 18.1594C43.4598 18.7281 43.5854 19.2373 43.8367 19.687C44.1013 20.1367 44.4584 20.4939 44.9081 20.7584C45.371 21.0229 45.8803 21.1552 46.4358 21.1552Z" fill="white"/>
<path d="M53.6963 23.3971V13.0605H56.4144V13.9136C57.1947 13.2126 58.1603 12.8621 59.311 12.8621C60.1178 12.8621 60.8255 13.0406 61.4339 13.3978C62.0555 13.7416 62.5383 14.2244 62.8822 14.8461C63.2261 15.4545 63.398 16.1687 63.398 16.9888V23.3971H60.68V17.3856C60.68 16.711 60.4882 16.182 60.1046 15.7984C59.721 15.4016 59.1986 15.2032 58.5372 15.2032C58.0743 15.2032 57.6643 15.2958 57.3072 15.481C56.95 15.6529 56.6524 15.9042 56.4144 16.2349V23.3971H53.6963Z" fill="white"/>
<path d="M44.3028 11.3641C44.3028 11.3072 44.294 11.2561 44.2765 11.2109C44.2605 11.1643 44.2299 11.122 44.1847 11.0841C44.1395 11.0447 44.076 11.006 43.9944 10.9681C43.9127 10.9302 43.807 10.8908 43.6772 10.85C43.5328 10.8033 43.3957 10.7508 43.2659 10.6925C43.1376 10.6342 43.0238 10.5664 42.9247 10.4891C42.827 10.4103 42.7497 10.3192 42.6928 10.2156C42.6374 10.1121 42.6097 9.99177 42.6097 9.85469C42.6097 9.72198 42.6388 9.60167 42.6972 9.49375C42.7555 9.38437 42.8372 9.29104 42.9422 9.21375C43.0472 9.135 43.1711 9.07448 43.314 9.03219C43.4584 8.9899 43.6166 8.96875 43.7887 8.96875C44.0235 8.96875 44.2284 9.01104 44.4034 9.09562C44.5784 9.18021 44.714 9.29615 44.8103 9.44344C44.908 9.59073 44.9569 9.75917 44.9569 9.94875H44.305C44.305 9.85542 44.2853 9.77375 44.2459 9.70375C44.208 9.63229 44.1497 9.57615 44.0709 9.53531C43.9936 9.49448 43.8959 9.47406 43.7778 9.47406C43.664 9.47406 43.5693 9.49156 43.4934 9.52656C43.4176 9.5601 43.3607 9.60604 43.3228 9.66437C43.2849 9.72125 43.2659 9.78542 43.2659 9.85687C43.2659 9.91083 43.279 9.95969 43.3053 10.0034C43.333 10.0472 43.3738 10.088 43.4278 10.1259C43.4818 10.1639 43.5481 10.1996 43.6269 10.2331C43.7056 10.2667 43.7968 10.2995 43.9003 10.3316C44.0738 10.3841 44.2262 10.4431 44.3575 10.5087C44.4902 10.5744 44.601 10.648 44.69 10.7297C44.7789 10.8114 44.846 10.904 44.8912 11.0075C44.9364 11.111 44.959 11.2284 44.959 11.3597C44.959 11.4982 44.9321 11.6222 44.8781 11.7316C44.8241 11.8409 44.7461 11.9335 44.644 12.0094C44.542 12.0852 44.4202 12.1428 44.2787 12.1822C44.1373 12.2216 43.979 12.2412 43.804 12.2412C43.6465 12.2412 43.4912 12.2208 43.3381 12.18C43.185 12.1377 43.0457 12.0743 42.9203 11.9897C42.7963 11.9051 42.6972 11.7972 42.6228 11.6659C42.5484 11.5347 42.5112 11.3794 42.5112 11.2H43.1697C43.1697 11.2992 43.185 11.383 43.2156 11.4516C43.2462 11.5201 43.2893 11.5755 43.3447 11.6178C43.4015 11.6601 43.4686 11.6907 43.5459 11.7097C43.6247 11.7286 43.7107 11.7381 43.804 11.7381C43.9178 11.7381 44.0111 11.7221 44.084 11.69C44.1584 11.6579 44.2131 11.6134 44.2481 11.5566C44.2846 11.4997 44.3028 11.4355 44.3028 11.3641Z" fill="white"/>
<path d="M47.7702 9.0125V12.1975H47.1161V9.0125H47.7702ZM48.7502 9.0125V9.52656H46.1514V9.0125H48.7502Z" fill="white"/>
<path d="M51.8238 9.0125H52.4778V11.1169C52.4778 11.3619 52.4253 11.5682 52.3203 11.7359C52.2168 11.9036 52.0731 12.0298 51.8894 12.1144C51.7071 12.199 51.4971 12.2412 51.2594 12.2412C51.0217 12.2412 50.8102 12.199 50.625 12.1144C50.4413 12.0298 50.2969 11.9036 50.1919 11.7359C50.0884 11.5682 50.0366 11.3619 50.0366 11.1169V9.0125H50.6928V11.1169C50.6928 11.2598 50.7154 11.3765 50.7606 11.4669C50.8059 11.5573 50.8707 11.6236 50.9553 11.6659C51.0414 11.7082 51.1427 11.7294 51.2594 11.7294C51.379 11.7294 51.4803 11.7082 51.5635 11.6659C51.648 11.6236 51.7122 11.5573 51.756 11.4669C51.8012 11.3765 51.8238 11.2598 51.8238 11.1169V9.0125Z" fill="white"/>
<path d="M54.9368 12.1975H54.2433L54.2477 11.6856H54.9368C55.1088 11.6856 55.2539 11.647 55.3721 11.5697C55.4902 11.4909 55.5792 11.3765 55.6389 11.2262C55.7002 11.076 55.7308 10.8945 55.7308 10.6816V10.5262C55.7308 10.3629 55.7133 10.2193 55.6783 10.0953C55.6448 9.97135 55.5945 9.86708 55.5274 9.7825C55.4603 9.69792 55.3779 9.63448 55.2802 9.59219C55.1825 9.54844 55.0702 9.52656 54.9433 9.52656H54.2302V9.0125H54.9433C55.1562 9.0125 55.3509 9.04896 55.5274 9.12187C55.7053 9.19333 55.8592 9.29615 55.9889 9.43031C56.1187 9.56448 56.2186 9.7249 56.2886 9.91156C56.3601 10.0968 56.3958 10.3031 56.3958 10.5306V10.6816C56.3958 10.9076 56.3601 11.114 56.2886 11.3006C56.2186 11.4873 56.1187 11.6477 55.9889 11.7819C55.8606 11.9146 55.7068 12.0174 55.5274 12.0903C55.3495 12.1618 55.1526 12.1975 54.9368 12.1975ZM54.6152 9.0125V12.1975H53.9589V9.0125H54.6152Z" fill="white"/>
<path d="M58.5113 9.0125V12.1975H57.8572V9.0125H58.5113Z" fill="white"/>
<path d="M62.683 10.5306V10.6816C62.683 10.9236 62.6502 11.1409 62.5846 11.3334C62.519 11.5259 62.4264 11.69 62.3068 11.8256C62.1872 11.9598 62.0443 12.0626 61.878 12.1341C61.7133 12.2055 61.5302 12.2412 61.329 12.2412C61.1292 12.2412 60.9462 12.2055 60.7799 12.1341C60.6151 12.0626 60.4722 11.9598 60.3512 11.8256C60.2301 11.69 60.1361 11.5259 60.069 11.3334C60.0034 11.1409 59.9705 10.9236 59.9705 10.6816V10.5306C59.9705 10.2871 60.0034 10.0698 60.069 9.87875C60.1346 9.68625 60.2272 9.52219 60.3468 9.38656C60.4678 9.25094 60.6108 9.1474 60.7755 9.07594C60.9418 9.00448 61.1248 8.96875 61.3246 8.96875C61.5259 8.96875 61.7089 9.00448 61.8737 9.07594C62.0399 9.1474 62.1828 9.25094 62.3024 9.38656C62.4235 9.52219 62.5168 9.68625 62.5824 9.87875C62.6495 10.0698 62.683 10.2871 62.683 10.5306ZM62.0202 10.6816V10.5262C62.0202 10.3571 62.0049 10.2083 61.9743 10.08C61.9437 9.95167 61.8985 9.84375 61.8387 9.75625C61.7789 9.66875 61.706 9.60312 61.6199 9.55937C61.5339 9.51417 61.4354 9.49156 61.3246 9.49156C61.2138 9.49156 61.1153 9.51417 61.0293 9.55937C60.9447 9.60312 60.8725 9.66875 60.8127 9.75625C60.7544 9.84375 60.7099 9.95167 60.6793 10.08C60.6487 10.2083 60.6334 10.3571 60.6334 10.5262V10.6816C60.6334 10.8493 60.6487 10.998 60.6793 11.1278C60.7099 11.2561 60.7551 11.3648 60.8149 11.4537C60.8747 11.5412 60.9476 11.6076 61.0337 11.6528C61.1197 11.698 61.2181 11.7206 61.329 11.7206C61.4398 11.7206 61.5383 11.698 61.6243 11.6528C61.7103 11.6076 61.7825 11.5412 61.8409 11.4537C61.8992 11.3648 61.9437 11.2561 61.9743 11.1278C62.0049 10.998 62.0202 10.8493 62.0202 10.6816Z" fill="white"/>
</g>
<defs>
<clipPath id="clip0_164_6024">
<rect width="63.36" height="32" fill="white" transform="translate(0.120117 0.0371094)"/>
</clipPath>
</defs>
</svg>
