<svg width="94" height="37" viewBox="0 0 94 37" fill="none" xmlns="http://www.w3.org/2000/svg">
<g clip-path="url(#clip0_160_7490)">
<path d="M10.7079 21.7548C10.7079 20.947 9.75753 20.6856 8.35569 20.3292L6.33609 19.8303C3.57993 19.1412 1.10889 18.1433 1.10889 14.8169C1.10889 11.4668 4.03137 9.61349 7.54785 9.61349C10.6604 9.61349 12.6325 10.4926 13.7017 11.1104V15.4109C12.1098 14.413 9.49617 13.4864 7.40529 13.4864C6.16977 13.4864 5.43321 13.7952 5.43321 14.508C5.43321 15.3396 6.40737 15.601 8.02305 16.0287L9.78129 16.5039C12.2523 17.1692 14.8659 18.072 14.8659 21.4935C14.8659 24.7248 12.0385 26.4831 8.26065 26.4831C5.29065 26.4831 2.89089 25.5327 1.79793 24.7486V20.5906C3.41361 21.7786 6.35985 22.7528 8.52201 22.7528C10.1852 22.7528 10.7079 22.3964 10.7079 21.7548Z" fill="white"/>
<path d="M18.6868 12.4884C17.1187 12.4884 16.1683 11.7756 16.1683 10.5639C16.1683 9.35213 17.1187 8.66309 18.6868 8.66309C20.2788 8.66309 21.1816 9.35213 21.1816 10.5639C21.1816 11.7756 20.2788 12.4884 18.6868 12.4884ZM16.7623 13.6527H20.5639V26.2455H16.7623V13.6527Z" fill="white"/>
<path d="M34.9027 23.5131C34.9027 28.4789 31.8376 30.2372 28.2974 30.2372C26.3015 30.2372 24.5908 29.6669 23.5454 29.0254V25.2C24.7096 26.0792 26.254 26.6732 27.8697 26.6732C30.3883 26.6732 31.1011 25.5802 31.1011 24.1071V23.9645C30.2932 24.4872 29.2478 24.8912 27.8697 24.8912C24.8997 24.8912 22.6187 22.8953 22.6187 19.7115C22.6187 15.3159 26.159 13.4151 29.5804 13.4151C31.9564 13.4151 33.6434 14.0328 34.9027 14.5318V23.5131ZM26.5629 19.1888C26.5629 20.9232 27.7271 21.4697 28.9864 21.4697C29.723 21.4697 30.4833 21.2796 31.1011 21.042V17.0266C30.6496 16.9078 30.1269 16.8128 29.5567 16.8128C27.941 16.8128 26.5629 17.5256 26.5629 19.1888Z" fill="white"/>
<path d="M43.6161 17.0979C42.6419 17.0979 41.7153 17.3117 41.0262 17.5968V26.2455H37.2246V13.6527H40.7886V15.1496C41.7866 14.2467 43.4022 13.4151 45.3506 13.4151C48.4631 13.4151 49.5798 15.4109 49.5798 18.1671V26.2455H45.7782V19.1888C45.7782 17.977 45.2318 17.0979 43.6161 17.0979Z" fill="white"/>
<path d="M57.7815 22.8003C58.7557 22.8003 59.6823 22.5864 60.3713 22.3013V13.6527H64.1729V26.2455H60.6089V24.7486C59.611 25.6515 57.9953 26.4831 56.047 26.4831C52.9345 26.4831 51.8177 24.4872 51.8177 21.7311V13.6527H55.6193V20.7094C55.6193 21.9212 56.1658 22.8003 57.7815 22.8003Z" fill="white"/>
<path d="M72.7072 17.0979C71.8281 17.0979 70.9965 17.3355 70.355 17.5968V26.2455H66.5534V13.6527H70.1174V15.1496C71.0915 14.2467 72.5884 13.4151 74.4417 13.4151C76.2712 13.4151 77.3642 14.1754 77.9344 15.4109C78.8611 14.413 80.5005 13.4151 82.5201 13.4151C85.4664 13.4151 86.5118 15.4109 86.5118 18.1671V26.2455H82.7102V19.1888C82.7102 17.9532 82.235 17.0979 80.7856 17.0979C79.9065 17.0979 79.0512 17.3355 78.4096 17.5968C78.4334 17.7869 78.4334 17.977 78.4334 18.1671V26.2455H74.6318V19.1888C74.6318 17.9532 74.1566 17.0979 72.7072 17.0979Z" fill="white"/>
<path d="M90.801 26.6019C89.4942 26.6019 88.4488 25.5564 88.4488 24.2496C88.4488 22.9428 89.4942 21.8736 90.801 21.8736C92.1078 21.8736 93.177 22.9428 93.177 24.2496C93.177 25.5564 92.1078 26.6019 90.801 26.6019Z" fill="white"/>
</g>
<defs>
<clipPath id="clip0_160_7490">
<rect width="92.88" height="36" fill="white" transform="translate(0.959961 0.0371094)"/>
</clipPath>
</defs>
</svg>
