<svg width="124" height="37" viewBox="0 0 124 37" fill="none" xmlns="http://www.w3.org/2000/svg">
<g clip-path="url(#clip0_164_6012)">
<path d="M5.00874 24.265H21.1007V26.533H2.37354V11.8018H5.00874V24.265Z" fill="white"/>
<path d="M22.6345 21.1114C22.6345 17.1802 25.5721 15.4306 31.8577 15.4306C38.1649 15.4306 41.0809 17.1802 41.0809 21.1114C41.0809 25.0426 38.1649 26.7922 31.8577 26.7922C25.5721 26.7922 22.6345 25.0426 22.6345 21.1114ZM25.0969 21.1114C25.0969 23.6602 26.8249 24.6754 31.8577 24.6754C36.8905 24.6754 38.6185 23.6602 38.6185 21.1114C38.6185 18.5842 36.8905 17.5474 31.8577 17.5474C26.8249 17.5474 25.0969 18.5842 25.0969 21.1114Z" fill="white"/>
<path d="M60.1765 16.2514V24.8482C60.1765 29.125 57.5197 30.7018 51.3421 30.7018C49.0309 30.7018 45.9853 30.3562 43.7605 29.7082L44.3221 27.7858C46.4389 28.3474 48.8797 28.7362 51.4717 28.7362C56.3533 28.7362 57.8869 27.613 57.8005 24.8698L57.7573 24.3514C55.5109 25.2802 52.7893 25.993 49.9597 25.993C45.5533 25.993 43.2853 24.4594 43.2853 20.809C43.2853 16.813 46.5253 15.4954 51.4933 15.4954C54.8413 15.4954 57.9085 15.8842 60.1765 16.2514ZM45.7477 20.7874C45.7477 23.0986 47.0869 24.049 50.1541 24.049C52.6381 24.049 55.2085 23.5306 57.6925 22.6882V17.9794C55.7701 17.7202 53.2861 17.5258 51.1693 17.5258C47.7781 17.5258 45.7477 18.3682 45.7477 20.7874Z" fill="white"/>
<path d="M65.5016 11.2402V14.1562H63.0392V11.2402H65.5016ZM63.0392 26.533V15.7114H65.5016V26.533H63.0392Z" fill="white"/>
<path d="M84.9385 16.2514V30.421H82.4761V24.7618C80.1865 25.8202 77.4217 26.749 74.5489 26.749C70.4449 26.749 68.1337 25.1074 68.1337 21.2194C68.1337 16.8994 71.3521 15.4954 76.1905 15.4954C79.5385 15.4954 82.6705 15.8626 84.9385 16.2514ZM70.5961 21.1114C70.5961 23.6602 71.9353 24.6754 75.0025 24.6754C77.4865 24.6754 79.9921 23.9626 82.4761 23.0338V17.9794C80.5537 17.7202 78.0481 17.5258 75.9313 17.5258C72.5401 17.5258 70.5961 18.4762 70.5961 21.1114Z" fill="white"/>
<path d="M87.6088 21.6082V15.7114H90.0712V21.2842C90.0712 23.4658 91.4104 24.697 94.6936 24.697C96.508 24.697 98.992 24.1786 101.649 23.293V15.7114H104.111V26.533H101.973L101.757 24.9778C99.4456 25.9498 96.6592 26.7922 93.916 26.7922C89.9416 26.7922 87.6088 25.3234 87.6088 21.6082Z" fill="white"/>
<path d="M115.658 24.805C118.812 24.805 121.469 24.3298 122.57 24.0922L123.089 25.9498C121.253 26.425 118.229 26.7922 115.464 26.7922C109.545 26.7922 106.651 25.3018 106.651 21.1114C106.651 17.0074 109.783 15.4522 115.118 15.4522C120.021 15.4522 123.477 16.705 123.477 20.5498C123.477 20.917 123.434 21.5218 123.391 21.7594H109.07C109.373 24.2218 111.381 24.805 115.658 24.805ZM115.032 17.2018C111.187 17.2018 109.329 17.9794 109.07 20.3554H121.058C120.864 18.217 119.46 17.2018 115.032 17.2018Z" fill="white"/>
</g>
<defs>
<clipPath id="clip0_164_6012">
<rect width="123.12" height="36" fill="white" transform="translate(0.839844 0.0371094)"/>
</clipPath>
</defs>
</svg>
