<svg width="294" height="18" viewBox="0 0 294 18" fill="none" xmlns="http://www.w3.org/2000/svg">
<path opacity="0.6" d="M1.80221 6.10962C23.9551 4.1306 161.171 0.390846 218.823 1.39877C235.397 1.68852 251.981 2.00091 268.607 2.40286C273.903 2.53092 283.303 2.03174 290.626 3.54995C293.544 4.15487 293.508 5.072 291.298 5.47928C281.942 7.20364 270.05 6.6832 259.823 7.207C237.42 8.35437 215.634 10.3994 193.1 11.3458C183.047 11.7679 173.436 12.7761 163.423 13.2308C150.82 13.8031 160.924 13.7485 168.029 13.6728C195.152 13.3837 221.582 13.9545 249.81 16.4241" stroke="url(#paint0_linear_164_6028)" stroke-width="2" stroke-linecap="round"/>
<defs>
<linearGradient id="paint0_linear_164_6028" x1="-22.2337" y1="-19.8305" x2="302.718" y2="97.6348" gradientUnits="userSpaceOnUse">
<stop stop-color="#FF7750"/>
<stop offset="0.54" stop-color="#BD5969"/>
<stop offset="1" stop-color="#4B2494"/>
</linearGradient>
</defs>
</svg>
